<?xml version="1.0" encoding="UTF-8" standalone="no"?>
<svg
   xmlns:dc="http://purl.org/dc/elements/1.1/"
   xmlns:cc="http://creativecommons.org/ns#"
   xmlns:rdf="http://www.w3.org/1999/02/22-rdf-syntax-ns#"
   xmlns:svg="http://www.w3.org/2000/svg"
   xmlns="http://www.w3.org/2000/svg"
   id="svg4630"
   version="1.1"
   viewBox="0 0 157.69 44.722"
   height="44.722mm"
   width="157.69mm">
  <defs
     id="defs4624" />
  <metadata
     id="metadata4627">
    <rdf:RDF>
      <cc:Work
         rdf:about="">
        <dc:format>image/svg+xml</dc:format>
        <dc:type
           rdf:resource="http://purl.org/dc/dcmitype/StillImage" />
        <dc:title></dc:title>
      </cc:Work>
    </rdf:RDF>
  </metadata>
  <g
     transform="translate(0,-252.278)"
     id="layer1">
    <path
       id="path5228"
       d="m 48.683335,279.00833 v -17.99167 h 0.895217 0.895221 l 0.184173,1.7198 c 0.101296,0.94588 0.226463,1.71979 0.278152,1.71979 0.05169,0 0.730631,-0.63666 1.508762,-1.41479 0.99291,-0.99291 1.846197,-1.56483 2.861527,-1.91796 1.028396,-0.35768 2.17356,-0.50318 3.960281,-0.50318 1.747951,0 2.934232,0.14663 3.89473,0.4814 0.780175,0.27193 1.954472,0.99684 2.698652,1.66592 0.729301,0.6557 1.625698,1.81452 2.007892,2.59569 0.379732,0.77615 0.864878,2.05043 1.0781,2.83173 0.213222,0.78131 0.453795,2.61119 0.534609,4.0664 0.09968,1.79497 0.01982,3.34546 -0.248314,4.8214 -0.217387,1.19657 -0.689451,2.8182 -1.049033,3.60363 -0.359582,0.78543 -1.11328,1.93666 -1.674884,2.55829 -0.561605,0.62163 -1.470832,1.41414 -2.020504,1.76113 -0.549675,0.34699 -1.740964,0.82109 -2.647307,1.05356 -1.129707,0.28975 -2.230297,0.37593 -3.499983,0.27407 -1.018645,-0.0817 -2.447396,-0.35552 -3.175,-0.60844 -0.905248,-0.31466 -1.803233,-0.93967 -2.844271,-1.97964 -0.836744,-0.83589 -1.529942,-1.44002 -1.540441,-1.34253 -0.0105,0.0975 -0.0026,3.42173 0.01767,7.38717 L 50.835354,297 h -1.076012 -1.076015 v -17.99167 z m 12.955685,5.13751 c 1.04462,-0.31022 1.766456,-0.77514 2.785211,-1.79389 1.069686,-1.06969 1.516478,-1.78479 2.011397,-3.21928 0.557903,-1.61705 0.636249,-2.31654 0.636249,-5.68059 0,-2.90038 -0.112414,-4.19952 -0.460717,-5.32446 -0.253394,-0.8184 -0.848706,-2.05854 -1.322916,-2.75586 -0.563185,-0.82816 -1.366878,-1.55086 -2.317409,-2.08388 -1.331939,-0.74688 -1.656922,-0.81511 -3.836459,-0.80539 -1.910114,0.008 -2.658051,0.1336 -3.780282,0.63219 -0.83168,0.3695 -1.826254,1.10691 -2.452528,1.81839 -0.636128,0.72269 -1.234097,1.7825 -1.509356,2.67511 -0.350835,1.1377 -0.455858,2.45359 -0.455858,5.71161 0,3.35452 0.100695,4.56106 0.485052,5.81203 0.26678,0.86829 0.799285,2.01586 1.183347,2.55015 0.384061,0.5343 1.0947,1.24308 1.579194,1.57506 0.484497,0.33198 1.43936,0.75396 2.121919,0.93772 0.682556,0.18376 1.844479,0.34215 2.582053,0.35197 0.737571,0.01 1.975567,-0.17057 2.751103,-0.40088 z m 40.23755,2.00007 c -0.64826,-0.13712 -1.78331,-0.54515 -2.522365,-0.90673 -0.73904,-0.36158 -1.90858,-1.22228 -2.59896,-1.91267 -0.69039,-0.69038 -1.53855,-1.85511 -1.88481,-2.58827 -0.34626,-0.73317 -0.80238,-1.99638 -1.01359,-2.80715 -0.21121,-0.81076 -0.40751,-2.54273 -0.43622,-3.84882 -0.0287,-1.3061 0.12087,-3.20259 0.33238,-4.21443 0.21152,-1.01185 0.68802,-2.5247 1.05888,-3.3619 0.37088,-0.83721 1.2793,-2.16188 2.01873,-2.94372 0.87007,-0.91996 1.90722,-1.67409 2.93953,-2.13736 1.048325,-0.47047 2.252035,-0.76553 3.511575,-0.86078 1.38842,-0.10501 2.34737,-0.0197 3.48042,0.30971 0.86017,0.25006 2.05873,0.80997 2.66344,1.24425 0.60472,0.43427 1.3378,1.11192 1.62906,1.50587 0.29126,0.39395 0.78394,1.2149 1.09485,1.82431 0.3109,0.60942 0.7416,1.85592 0.95711,2.77001 0.21551,0.91409 0.39359,2.52518 0.39574,3.5802 l 0.004,1.91823 h -8.87185 c -6.921965,0 -8.900155,0.0738 -9.000625,0.3356 -0.0708,0.18457 0.0372,1.2859 0.24014,2.44739 0.20291,1.16149 0.63551,2.67866 0.96134,3.37148 0.32582,0.69283 1.17754,1.78576 1.8927,2.42875 0.72843,0.65492 1.907725,1.38091 2.681475,1.65074 1.03131,0.35965 2.08495,0.47304 4.15932,0.44762 1.99564,-0.0245 3.22526,-0.18282 4.36562,-0.56225 0.87313,-0.29052 1.80399,-0.61848 2.06859,-0.7288 0.42394,-0.17676 0.47109,-0.0785 0.39688,0.82684 -0.0835,1.01885 -0.0996,1.03258 -1.9315,1.64437 -1.32597,0.44284 -2.63261,0.64514 -4.6302,0.71688 -1.53062,0.055 -3.31332,-0.0122 -3.96158,-0.14937 z m 9.18119,-16.33185 c -0.0786,-1.12779 -0.29878,-2.40771 -0.48937,-2.84427 -0.19057,-0.43656 -0.68288,-1.29697 -1.09401,-1.91202 -0.41113,-0.61505 -1.30926,-1.44849 -1.99584,-1.85209 -1.09991,-0.64656 -1.51572,-0.73381 -3.49728,-0.73381 -1.99624,0 -2.40752,0.0878 -3.65991,0.78157 -0.776025,0.42986 -1.717795,1.14423 -2.092815,1.5875 -0.37503,0.44326 -0.96136,1.41384 -1.30296,2.15685 -0.34161,0.743 -0.74556,2.02416 -0.89767,2.84701 -0.15212,0.82286 -0.20375,1.61393 -0.11475,1.75794 0.10064,0.16285 3.02106,0.26184 7.724645,0.26184 h 7.56282 z m 12.10579,16.45427 c -0.29104,-0.0668 -1.18401,-0.25325 -1.98438,-0.41433 -0.80036,-0.16108 -1.78263,-0.46062 -2.18281,-0.66565 -0.60917,-0.3121 -0.7276,-0.54394 -0.7276,-1.42431 0,-0.57835 0.0453,-1.05154 0.10079,-1.05154 0.0554,0 0.86501,0.28765 1.79906,0.63923 0.93406,0.35157 2.64829,0.77814 3.8094,0.94791 1.51196,0.22108 2.66398,0.23207 4.05915,0.0387 1.07142,-0.14847 2.49676,-0.55233 3.16742,-0.89745 0.67066,-0.34513 1.48727,-1.025 1.8147,-1.51084 0.40781,-0.60512 0.59531,-1.27536 0.59531,-2.128 0,-0.85542 -0.18837,-1.52581 -0.60236,-2.14369 -0.33129,-0.49446 -1.16107,-1.27454 -1.84394,-1.73351 -0.68287,-0.45896 -2.6518,-1.38307 -4.37539,-2.05356 -1.72359,-0.6705 -3.77132,-1.60467 -4.55051,-2.07593 -0.77921,-0.47127 -1.78327,-1.31389 -2.23126,-1.87249 -0.72395,-0.90268 -0.82404,-1.24108 -0.89996,-3.04271 -0.0788,-1.87033 -0.0247,-2.12174 0.70037,-3.25149 0.56807,-0.88519 1.17793,-1.41599 2.20119,-1.91586 0.77847,-0.3803 2.12978,-0.82537 3.0029,-0.98906 0.91381,-0.17132 2.59803,-0.23131 3.96875,-0.14135 1.30969,0.086 3.19026,0.38291 4.17904,0.65989 0.98878,0.27699 1.87333,0.57915 1.96565,0.67147 0.0923,0.0923 -0.0218,0.56556 -0.25359,1.05164 l -0.42145,0.8838 -1.94108,-0.662 c -1.55528,-0.53042 -2.49322,-0.66682 -4.71919,-0.68629 -2.32886,-0.0204 -2.98105,0.069 -4.03294,0.55289 -0.69015,0.31745 -1.55336,0.89931 -1.91823,1.29302 -0.52842,0.57017 -0.66322,0.99062 -0.66243,2.06626 5.3e-4,0.86784 0.18382,1.65026 0.51259,2.18945 0.28138,0.46147 1.06757,1.16485 1.74709,1.56308 0.67953,0.39823 2.85435,1.37108 4.83295,2.16189 1.9786,0.79081 4.10542,1.78733 4.72628,2.21449 0.62085,0.42716 1.45981,1.2106 1.86436,1.74098 0.62862,0.82415 0.74749,1.25576 0.81775,2.96931 0.0688,1.67892 -0.0172,2.19799 -0.52917,3.1918 -0.33626,0.65275 -1.12265,1.57243 -1.74753,2.04374 -0.62489,0.4713 -1.75598,1.04859 -2.51355,1.28286 -0.78044,0.24134 -2.63872,0.46779 -4.2878,0.52251 -1.60073,0.0531 -3.14854,0.0419 -3.43958,-0.0249 z m 20.97177,-0.108 c -0.68928,-0.12537 -1.85015,-0.42621 -2.57969,-0.66853 l -1.32646,-0.44058 v -1.19767 c 0,-1.03698 0.0621,-1.17205 0.46302,-1.00676 0.25466,0.10501 1.09503,0.41888 1.86748,0.6975 0.77245,0.27863 2.34139,0.63268 3.48654,0.7868 1.49341,0.20098 2.61734,0.19715 3.97525,-0.0135 1.04125,-0.16156 2.32982,-0.51889 2.86346,-0.79407 0.53366,-0.27518 1.24548,-0.76025 1.58181,-1.07794 0.33633,-0.31769 0.72328,-0.87159 0.85989,-1.23089 0.13661,-0.3593 0.24838,-1.01449 0.24838,-1.45596 0,-0.44148 -0.19845,-1.22088 -0.441,-1.73202 -0.24255,-0.51113 -0.98669,-1.32987 -1.65365,-1.81943 -0.66695,-0.48956 -2.8912,-1.54991 -4.94276,-2.35634 -2.05157,-0.80642 -4.27536,-1.85388 -4.94175,-2.32767 -0.66642,-0.4738 -1.43935,-1.15637 -1.71764,-1.51683 -0.2783,-0.36045 -0.64412,-1.06009 -0.81293,-1.55475 -0.16881,-0.49466 -0.30432,-1.38762 -0.30112,-1.98437 0.003,-0.59675 0.22562,-1.56125 0.49426,-2.14333 0.26865,-0.58209 0.77205,-1.3152 1.11867,-1.62915 0.34662,-0.31394 1.10927,-0.81793 1.69478,-1.11996 0.58552,-0.30204 1.7031,-0.67025 2.48351,-0.81825 0.78042,-0.14802 2.15473,-0.26911 3.05403,-0.26911 0.8993,0 2.34156,0.12519 3.20503,0.2782 0.86347,0.153 2.1355,0.46023 2.82672,0.68272 0.69241,0.22287 1.25677,0.5676 1.25677,0.76768 0,0.19974 -0.13072,0.65008 -0.2905,1.00074 l -0.2905,0.63758 -2.0246,-0.67082 c -1.56401,-0.51821 -2.59643,-0.67547 -4.53815,-0.69127 -1.77119,-0.0144 -2.91117,0.11838 -3.85988,0.44964 -0.74048,0.25855 -1.66769,0.80551 -2.06045,1.21547 -0.39277,0.40995 -0.78266,1.16779 -0.86645,1.68408 -0.0838,0.51628 -0.017,1.34867 0.14834,1.84974 0.16537,0.50107 0.62534,1.2206 1.02216,1.59895 0.39682,0.37835 1.43587,1.04045 2.30899,1.47134 0.87313,0.43089 2.71859,1.21907 4.10104,1.75151 1.38245,0.53243 2.99975,1.2526 3.59401,1.60036 0.59425,0.34776 1.50906,1.10671 2.03291,1.68654 0.52385,0.57984 1.07877,1.50916 1.23317,2.06517 0.15439,0.556 0.28138,1.31672 0.28219,1.69049 7.9e-4,0.37377 -0.17727,1.28148 -0.39574,2.01713 -0.28179,0.94889 -0.7301,1.6444 -1.54283,2.39356 -0.6301,0.5808 -1.85034,1.32434 -2.71165,1.65232 -1.21729,0.46353 -2.24358,0.61562 -4.60872,0.68298 -1.67349,0.0477 -3.60667,-0.0159 -4.29594,-0.14128 z M 0,269.08646 v -16.80799 l 9.06198,0.0696 9.061979,0.0696 v 0.92604 0.92604 l -7.9375,0.13229 -7.9375,0.13229 v 6.21771 6.21771 l 7.474479,0.0703 7.474479,0.0703 v 1.05009 1.0501 l -7.474479,0.0703 -7.474479,0.0703 v 7.14375 7.14375 l 7.9375,0.13229 7.9375,0.13229 v 0.92604 0.92604 L 9.06198,285.8249 0,285.8945 Z m 22.658044,16.47793 c 0.109829,-0.17771 2.090267,-2.99482 4.400974,-6.26025 2.437826,-3.44507 4.153223,-6.11364 4.086786,-6.35763 -0.06298,-0.23126 -1.968217,-3.01008 -4.233874,-6.17516 l -4.119372,-5.75469 1.237576,0.011 1.237575,0.011 3.571875,5.13501 c 1.964531,2.82425 3.690938,5.13657 3.836459,5.13848 0.14552,0.002 1.871927,-2.30932 3.836458,-5.13606 l 3.571875,-5.13955 1.140095,-0.01 c 0.842851,-0.007 1.08857,0.0763 0.942475,0.32082 -0.108688,0.1819 -1.581589,2.29526 -3.273113,4.69635 -1.691524,2.40109 -3.455093,4.88951 -3.91904,5.5298 -0.463947,0.6403 -0.843542,1.31273 -0.843542,1.4943 0,0.18156 1.964531,3.07507 4.365625,6.43001 2.401094,3.35494 4.365625,6.16509 4.365625,6.24477 0,0.0797 -0.507201,0.14487 -1.127114,0.14487 H 40.60827 l -3.815043,-5.43764 c -2.098273,-2.99069 -3.901081,-5.49079 -4.006242,-5.55579 -0.105159,-0.065 -1.952442,2.38194 -4.105074,5.43762 l -3.913875,5.55579 h -1.154841 c -0.841965,0 -1.10074,-0.0875 -0.955151,-0.32311 z m 53.927701,-0.008 c -0.0697,-0.1819 -0.0958,-5.74807 -0.0578,-12.36927 l 0.069,-12.03854 0.83107,-0.0808 0.83106,-0.0808 0.18866,2.13128 c 0.10377,1.1722 0.26557,2.12296 0.35956,2.1128 0.094,-0.0102 0.70668,-0.74898 1.36153,-1.64181 0.79563,-1.08478 1.59415,-1.82971 2.40699,-2.24542 0.66899,-0.34216 1.87651,-0.69023 2.68335,-0.77351 0.80685,-0.0833 2.11835,-0.07 2.91445,0.0294 l 1.44744,0.18085 -0.17357,0.8454 -0.17357,0.84541 h -2.36973 c -1.94358,0 -2.59366,0.11029 -3.61488,0.61328 -0.68483,0.33731 -1.62529,1.04625 -2.08992,1.57543 -0.46462,0.52918 -1.12957,1.58422 -1.47766,2.34455 -0.34809,0.76033 -0.74639,2.07545 -0.88511,2.92249 -0.13873,0.84704 -0.25292,4.78453 -0.25376,8.74998 l -10e-4,7.20989 h -0.93438 c -0.51389,0 -0.99141,-0.14883 -1.06116,-0.33073 z"
       style="fill:#ffffff;fill-opacity:1;stroke-width:1" />
    <path
       id="path5192"
       d=""
       style="fill:#000000;stroke-width:1" />
  </g>
</svg>
