<?xml version="1.0" encoding="UTF-8" standalone="no"?>
<svg
   xmlns:dc="http://purl.org/dc/elements/1.1/"
   xmlns:cc="http://creativecommons.org/ns#"
   xmlns:rdf="http://www.w3.org/1999/02/22-rdf-syntax-ns#"
   xmlns:svg="http://www.w3.org/2000/svg"
   xmlns="http://www.w3.org/2000/svg"
   version="1.1"
   height="2500"
   width="8097.0801"
   viewBox="0 0 971.45532 300"
   id="Layer_1">
  <metadata
     id="metadata18">
    <rdf:RDF>
      <cc:Work
         rdf:about="">
        <dc:format>image/svg+xml</dc:format>
        <dc:type
           rdf:resource="http://purl.org/dc/dcmitype/StillImage" />
        <dc:title>Figma.logo</dc:title>
      </cc:Work>
    </rdf:RDF>
  </metadata>
  <defs
     id="defs16" />
  <style
     id="style2"
     type="text/css">.st0{fill:#0acf83}.st1{fill:#a259ff}.st2{fill:#f24e1e}.st3{fill:#ff7262}.st4{fill:#1abcfe}</style>
  <title
     id="title4">Figma.logo</title>
  <desc
     id="desc6">Created using Figma</desc>
  <g
     id="g882">
    <path
       id="path0_fill"
       class="st0"
       d="m 49.98,300 c 27.6,0 50,-22.4 50,-50 v -50 h -50 c -27.6,0 -50,22.4 -50,50 0,27.6 22.4,50 50,50 z"
       style="fill:#ffffff;fill-opacity:1;stroke:none" />
    <path
       id="path1_fill"
       class="st1"
       d="m -0.02,150 c 0,-27.6 22.4,-50 50,-50 h 50 v 100 h -50 c -27.6,0 -50,-22.4 -50,-50 z"
       style="fill:#ffffff;fill-opacity:1;stroke:none" />
    <path
       id="path1_fill_1_"
       class="st2"
       d="m -0.02,50 c 0,-27.6 22.4,-50 50,-50 h 50 v 100 h -50 c -27.6,0 -50,-22.4 -50,-50 z"
       style="fill:#ffffff;fill-opacity:1;stroke:none" />
    <path
       id="path2_fill"
       class="st3"
       d="m 99.98,0 h 50 c 27.6,0 50,22.4 50,50 0,27.6 -22.4,50 -50,50 h -50 z"
       style="fill:#ffffff;fill-opacity:1;stroke:none" />
    <path
       id="path3_fill"
       class="st4"
       d="m 199.98,150 c 0,27.6 -22.4,50 -50,50 -27.6,0 -50,-22.4 -50,-50 0,-27.6 22.4,-50 50,-50 27.6,0 50,22.4 50,50 z"
       style="fill:#ffffff;fill-opacity:1;stroke:none" />
    <g
       id="g848"
       transform="matrix(9.8452151,0,0,9.8452151,257.65458,45.647149)"
       style="fill:#ffffff;fill-opacity:1;stroke:none;stroke-width:0.01218866">
      <path
         id="path828"
         d="m 0.52,0 v 20.16 l 2.6,0.01 v -9.6 H 9.37 V 8.03 H 3.11 v -5.5 h 8.15 V 0 Z m 15.4,4.1 a 1.7,1.7 0 1 0 0,-3.4 1.7,1.7 0 0 0 0,3.4 z m -1.31,2.53 v 13.54 h 2.6 V 6.63 Z"
         style="fill:#ffffff;fill-opacity:1;stroke:none;stroke-width:0.01218866" />
      <path
         id="path830"
         d="m 26.82,6.24 c -3.44,0 -5.84,2.91 -5.84,6.37 0,3.46 2.4,6.37 5.84,6.37 1.58,0 2.88,-0.6 3.83,-1.6 v 1.8 a 4.07,4.07 0 0 1 -4.06,4.12 c -0.83,0 -1.65,-0.32 -2.3,-0.78 l -1.3,2.25 a 6.65,6.65 0 0 0 10.26,-5.6 V 6.64 h -2.6 v 1.21 c -0.95,-1 -2.25,-1.6 -3.83,-1.6 z m -3.25,6.37 c 0,-2.15 1.64,-3.84 3.54,-3.84 1.9,0 3.53,1.7 3.53,3.84 0,2.15 -1.64,3.83 -3.53,3.83 -1.9,0 -3.54,-1.68 -3.54,-3.83 z"
         style="fill:#ffffff;fill-opacity:1;fill-rule:evenodd;stroke:none;stroke-width:0.01218866" />
      <path
         id="path832"
         d="m 42.59,8.77 a 2.83,2.83 0 0 0 -2.78,2.84 v 8.56 h -2.6 V 6.63 h 2.6 v 1.24 a 4.1,4.1 0 0 1 3.34,-1.63 c 1.82,0 3.22,0.9 4.02,2.28 A 4.98,4.98 0 0 1 51.3,6.24 c 2.95,0 4.8,2.38 4.8,5.33 v 8.6 H 53.52 V 11.6 A 2.83,2.83 0 0 0 50.74,8.76 2.83,2.83 0 0 0 47.96,11.6 v 8.56 h -2.6 V 11.6 A 2.83,2.83 0 0 0 42.59,8.76 Z"
         style="fill:#ffffff;fill-opacity:1;stroke:none;stroke-width:0.01218866" />
      <path
         id="path834"
         d="M 69.93,8.17 A 6.27,6.27 0 0 0 65.36,6.24 c -3.86,0 -6.6,3.26 -6.6,7.16 0,3.9 2.74,7.16 6.6,7.16 a 6.3,6.3 0 0 0 4.57,-1.93 v 1.54 h 2.59 V 6.63 h -2.6 v 1.54 z m -8.58,5.23 c 0,-2.58 1.98,-4.63 4.29,-4.63 2.3,0 4.29,2.05 4.29,4.63 0,2.58 -1.98,4.62 -4.29,4.62 -2.3,0 -4.29,-2.04 -4.29,-4.62 z"
         style="fill:#ffffff;fill-opacity:1;fill-rule:evenodd;stroke:none;stroke-width:0.01218866" />
    </g>
  </g>
</svg>
