<svg width="526.8125" height="143.21249" version="1.1" viewBox="0 0 526.8125 143.21249" xml:space="preserve" xmlns="http://www.w3.org/2000/svg"><defs><clipPath id="clipPath18"><path d="m275.945 28.6719-29.961 9.9179s3.821 151.6402-50.867 162.2582c-36.062 41.785 5.551 1784.892 136.559 5.972 0 0-44.84-22.515-53.328-60.75-8.485-38.261-2.403-117.3981-2.403-117.3981z"/></clipPath><clipPath id="clipPath36"><path d="m292.098 175.105s260.343 171.469 199.351 527.575c-58.738 258.718-197.418 343.77-212.32 376.24-16.406 22.98-32.93 63.71-32.93 63.71l11.074-720.864s-22.906-220.11 34.825-246.661z"/></clipPath><clipPath id="clipPath52"><path d="m230.742 165.523s-244.2108 166.598-230.159969 460.543c14.054669 293.954 186.538969 438.484 220.132969 464.704 21.719 23.15 22.617 32.07 24.297 54.91 15.222-32.7 12.691-488.422 14.304-541.688 6.258-207.351-11.484-399.328-28.574-438.469z"/></clipPath></defs><g transform="matrix(1.25,0,0,-1.25,0,143.2125)" fill="#fff"><g transform="scale(.1)"><g clip-path="url(#clipPath18)" fill="#fff"><path d="m275.945 28.6719-29.961 9.9179s3.821 151.6402-50.867 162.2582c-36.062 41.785 5.551 1784.892 136.559 5.972 0 0-44.84-22.515-53.328-60.75-8.485-38.261-2.403-117.3981-2.403-117.3981" fill="#fff"/></g></g><g transform="scale(.1)"><g clip-path="url(#clipPath36)" fill="#fff"><path d="m292.098 175.105s260.343 171.469 199.351 527.575c-58.738 258.718-197.418 343.77-212.32 376.24-16.406 22.98-32.93 63.71-32.93 63.71l11.074-720.864s-22.906-220.11 34.825-246.661" fill="#fff"/></g></g><g transform="scale(.1)"><g clip-path="url(#clipPath52)" fill="#fff"><path d="m230.742 165.523s-244.2108 166.598-230.159969 460.543c14.054669 293.954 186.538969 438.484 220.132969 464.704 21.719 23.15 22.617 32.07 24.297 54.91 15.222-32.7 12.691-488.422 14.304-541.688 6.258-207.351-11.484-399.328-28.574-438.469" fill="#fff"/></g></g><g><path d="m318.161 26.0406c1.727-1.3812 5.181-1.95 8.226-1.95 3.948 0 7.814 0.7324 11.597 4.1426 3.865 3.4945 6.498 8.8555 6.498 17.3848 0 8.2047-3.126 14.866-9.541 18.7652-3.62 2.2742-8.307 3.1672-13.654 3.1672-1.563 0-3.126-0.0809-4.031-0.4867-0.247-0.1625-0.741-0.8125-0.741-1.1383-0.164-1.4617-0.164-12.5902-0.164-19.1699 0-6.7422 0-16.1653 0.164-17.3035 0.084-0.9743 0.576-2.6801 1.646-3.4114zm-16.418 45.1657c1.398 0 6.711-0.2434 9.18-0.2434 4.606 0 7.813 0.2434 16.449 0.2434 7.239 0 13.327-1.9497 17.686-5.686 5.265-4.5496 8.061-10.8855 8.061-18.6023 0-10.9668-5.017-17.3028-10.034-20.8774-5.019-3.7359-11.517-5.8484-20.811-5.8484-4.936 0-13.409 0.1625-20.483 0.2426h-0.097c-0.328 0.6511 0.606 3.184 1.185 3.25 1.912 0.2164 2.43 0.2898 3.318 0.6554 1.493 0.6145 1.846 1.3754 2.012 4.0567 0.245 5.0355 0.164 11.0469 0.164 17.8711 0 4.8734 0.081 14.3781-0.083 17.384-0.247 2.5179-1.314 3.1671-3.454 3.6554-1.07 0.243-2.55 0.4871-4.606 0.7309-0.165 0.4871 1.102 2.6812 1.513 3.168"/><path d="m374.901 67.2254c-0.328-0.0813-0.74-0.8938-0.74-1.3-0.081-2.9234-0.163-10.5594-0.163-15.8391 0-0.1625 0.245-0.4062 0.411-0.4062 1.069-0.0821 3.7-0.1633 5.921-0.1633 3.126 0 4.937 0.407 5.923 0.8945 2.632 1.2989 3.865 4.1422 3.865 7.2289 0 7.0672-4.935 9.7485-12.254 9.7485-0.494 0-1.893 0-2.963-0.1633zm18.672-32.493c0 7.1485-5.263 11.2098-14.888 11.2098-0.411 0-3.455 0.082-4.195-0.0813-0.247-0.0804-0.492-0.2429-0.492-0.4054 0-5.1184-0.084-13.3227 0.163-16.5711 0.165-1.3813 1.153-3.3313 2.386-3.8996 1.317-0.7317 4.276-0.8942 6.333-0.8942 5.676 0 10.693 3.1688 10.693 10.6418zm-33.527 36.4739c0.74 0 2.93-0.2434 8.522-0.2434 5.265 0 9.541 0.1617 14.641 0.1617 6.333 0 15.052-2.2742 15.052-11.6973 0-4.63-3.289-8.3671-7.566-10.1543-0.247-0.0812-0.247-0.2437 0-0.325 6.087-1.5425 11.433-5.2796 11.433-12.4281 0-6.9859-4.359-11.373-10.693-14.1351-3.866-1.7051-8.636-2.2739-13.491-2.2739-3.701 0-13.619 0.4063-19.131 0.3239-0.577 0.2449 0.528 2.8445 1.02 3.25 1.317 0.0808 2.332 0.1757 3.731 0.582 1.973 0.4875 2.207 1.1238 2.454 4.0484 0.166 2.5176 0.166 11.5348 0.166 17.9528 0 8.773 0.081 14.7027 0 17.6269-0.084 2.275-0.906 3.0063-2.469 3.4125-1.233 0.243-3.289 0.4871-4.934 0.7309-0.413 0.4062 0.854 2.843 1.265 3.168"/><path d="m65.782 20.2277c-0.1371 0.2188-0.282 0.8649-0.2515 1.6422 0.0226 0.591 0.1398 0.9664 0.2508 1.0949 1.5511 0.245 2.2855 0.4102 3.1574 0.6434 1.4543 0.3606 2.0023 1.1461 2.0879 3.0059 0.2386 4.3812 0.2527 12.5964 0.1652 18.3742l0.0012 0.1703c0.0066 0.6195 0.0164 1.4672-0.7621 2.0648-1.1407 0.7516-2.5629 1.3731-4.3625 1.9129-0.6887 0.2039-1.0696 0.566-1.0493 0.9895 0.0215 0.407 0.4536 0.9246 1.3516 1.0976 2.3816 0.2457 8.627 1.7325 11.0773 2.8629 0.145-0.1761 0.3739-0.5582 0.3297-1.1672-0.0183-0.2562-0.041-0.5242-0.0632-0.8019-0.07-0.8164-0.1481-1.7418-0.1481-2.6645 0-0.2718 0.2945-0.5293 0.607-0.5293 0.159 0 0.3059 0.0621 0.4254 0.1801 4.6703 3.6551 8.8473 4.9598 10.9977 4.9598 3.5336 0 6.2832-1.6867 8.4086-5.1543 0.1246-0.1836 0.2918-0.2805 0.4789-0.2805 0.1781 0 0.3465 0.0918 0.4453 0.2391 4.2947 3.2535 8.5507 5.1957 11.3957 5.1957 6.734 0 10.756-5.0352 10.756-13.466 0-2.4227-0.025-5.4934-0.046-8.3602-0.021-2.5148-0.038-4.8726-0.038-6.5039 0-0.3957 0.529-1.4926 1.328-1.7121 0.984-0.4789 2.407-0.7234 4.203-1.0332l0.069-0.0113c0.137-0.4828-0.149-2.3629-0.423-2.7477-0.445 0.0035-1.063 0.0356-1.832 0.0742-1.398 0.0719-3.314 0.1684-5.545 0.1684-4.474 0-6.812-0.0879-9.045-0.232-0.168 0.5578-0.227 2.357-0.022 2.732 1.302 0.2437 1.946 0.4082 2.728 0.6394 1.424 0.4692 1.834 1.1141 1.917 3.0032 0.033 1.3445 0.291 13.1679-0.167 15.9754-0.422 2.9093-2.618 6.3148-7.419 6.3148-1.781 0-4.659-0.7398-7.4023-2.8176-0.1703-0.1652-0.2683-0.4863-0.2683-0.6972l5e-3 -0.054c0.3231-1.5156 0.3231-3.2828 0.3231-5.957 0-1.5238-0.0098-3.141-0.0184-4.7465-0.0187-3.2597-0.0363-6.3379 0.0184-8.6632 0-1.5852 0.9595-1.9633 1.7315-2.2688 0.419-0.093 0.752-0.173 1.085-0.2523 0.647-0.1559 1.315-0.3164 2.306-0.475 0.135-0.3125 0.147-1.2457-0.039-2.0438-0.104-0.441-0.223-0.6351-0.286-0.6984-2.488 0.0851-5.0413 0.1597-8.7245 0.1597-1.1164 0-2.9398-0.048-4.548-0.091-1.3035-0.0347-2.5383-0.0687-3.2399-0.0715-0.1015 0.1606-0.2437 0.675-0.2437 1.4161 0 0.6886 0.1266 1.1742 0.2566 1.3238 0.3457 0.064 0.675 0.1222 0.9891 0.1781 0.8641 0.1539 1.6102 0.2852 2.3262 0.4613 1.2191 0.3715 1.6765 1.0485 1.7656 2.5969 0.2379 3.6152 0.4238 14.0289-0.0883 16.6371-0.8715 4.1852-3.257 6.3059-7.0883 6.3059-2.2465 0-5.0816-1.0793-7.4-2.8153-0.3886-0.2863-0.6824-1.007-0.6824-1.6722 0-1.2399-0.0039-2.7168-9e-3 -4.3-0.0156-5.2305-0.034-11.7403 0.0934-14.5578 0.0781-0.8657 0.3797-1.8965 2.0144-2.2766 0.3563-0.0996 0.9743-0.2031 1.6903-0.3211 0.4121-0.0687 0.8629-0.1434 1.3261-0.2266 0.1664-0.4476 0.0645-2.2031-0.2207-2.7496-0.7144 0.0047-1.5941 0.0457-2.6031 0.0899-1.5414 0.0679-3.4578 0.1539-5.6426 0.1539-2.5707 0-4.3609-0.086-5.7984-0.1539-0.9641-0.0453-1.8004-0.086-2.6348-0.0899"/><path d="m147.384 50.6094c-1.497 0-2.895-0.3918-3.935-1.1035-2.856-1.7352-4.31-5.1996-4.31-10.2887 0-9.5305 4.778-16.1856 11.617-16.1856 2.018 0 3.663 0.5793 5.03 1.7719 2.102 1.7129 3.216 5.211 3.216 10.109 0 9.3891-4.669 15.6969-11.618 15.6969zm1.317-31.1129c-12.358 0-16.761 9.0547-16.761 17.5269 0 5.9184 2.423 10.5461 7.204 13.7532 3.398 2.0863 7.455 3.2867 11.12 3.2867 9.431 0 16.019-6.7731 16.019-16.4719 0-6.5941-2.633-11.7984-7.612-15.0512-2.388-1.4632-6.531-3.0437-9.97-3.0437"/><path d="m275.357 50.6094c-1.499 0-2.898-0.3918-3.937-1.1035-2.855-1.7352-4.309-5.1985-4.309-10.2887 0-9.5305 4.776-16.1856 11.617-16.1856 2.018 0 3.663 0.5793 5.03 1.7727 2.101 1.7121 3.216 5.2094 3.216 10.107 0 9.3895-4.669 15.6981-11.617 15.6981zm1.316-31.1129c-12.359 0-16.762 9.0539-16.762 17.5262 0 5.9199 2.425 10.548 7.206 13.755 3.397 2.086 7.454 3.2856 11.118 3.2856 9.432 0 16.02-6.7742 16.02-16.4711 0-6.5957-2.633-11.8-7.612-15.0508-2.388-1.4644-6.53-3.0449-9.97-3.0449"/><path d="m234.002 50.9336c-3.809 0-6.271-3.0051-6.271-7.6555 0-4.6933 2.117-10.1734 8.082-10.1734 1.024 0 2.881 0.4547 3.801 1.468 1.386 1.2718 2.291 3.9 2.291 6.6753 0 6.0653-2.955 9.6856-7.903 9.6856zm-0.492-32.0859c-1.431 0-2.472-0.4161-3.094-0.7649-3.015-1.9308-4.413-3.859-4.413-6.0789 0-2.09374 0.814-3.75702 2.562-5.23593 2.117-1.7918 4.972-2.66406 8.728-2.66406 7.386 0 10.698 3.96797 10.698 7.89999 0 2.7363-1.375 4.5707-4.203 5.6078-2.18 0.7957-5.821 1.236-10.278 1.236zm0.492-18.8477c-4.436 0-7.633 0.935156-10.364 3.03398-2.656 2.04805-3.846 5.08516-3.846 7.18402 0 0.6031 0.143 2.1629 1.455 3.6531 0.774 0.8777 2.564 2.5199 6.7 5.3613 0.127 0.0477 0.215 0.1731 0.215 0.325 0 0.1696-0.109 0.3067-0.259 0.3387-3.409 1.3039-4.437 3.443-4.747 4.6039-5e-3 0.0414-0.019 0.1082-0.034 0.1789-0.098 0.4555-0.189 0.8859 0.427 1.3277 0.477 0.3403 1.244 0.7942 2.056 1.2727 1.198 0.707 2.556 1.5082 3.308 2.152 0.119 0.116 0.167 0.2863 0.139 0.4566-0.029 0.1723-0.129 0.3133-0.276 0.3859-5.045 1.6934-7.585 5.4364-7.585 11.1367 0 3.6801 1.699 7.0063 4.66 9.1274 2.029 1.6016 7.122 3.5273 10.421 3.5273l0.192-0.0019c3.395-0.0805 5.308-0.7903 7.956-1.7699 1.438-0.5321 2.799-0.7477 4.703-0.7477 2.81 0 4.037 0.8895 5.09 1.9109 0.06-0.1265 0.204-0.5281 0.268-1.4527 0.067-0.943-0.191-2.3402-0.913-3.3375-0.575-0.7949-1.906-1.3715-3.163-1.3715-0.126 0-0.25 0.0059-0.369 0.0184-1.294 0.1269-1.902 0.3152-1.908 0.3183l-0.317-0.1105c-0.1-0.1457-0.035-0.3082 0.047-0.5133 0.02-0.0492 0.04-0.0961 0.047-0.1269 0.165-0.6575 0.458-2.5774 0.458-3.1153 0-5.9777-2.361-8.5851-4.913-10.5129-2.435-1.8355-5.281-2.9394-8.489-3.2777h-3e-3c-0.065 0-0.369-0.0273-0.982-0.0812-0.395-0.036-0.887-0.0805-0.96-0.0805l-0.072-0.0094c-0.558-0.1578-2.004-0.8445-2.004-2.123 0-1.0641 0.656-2.3821 3.783-2.618 0.634-0.0477 1.314-0.0949 2.024-0.1434 4.129-0.2871 9.285-0.6449 11.712-1.4672 3.338-1.2148 5.415-4.2011 5.415-7.7933 0-5.3649-3.819-10.409-10.214-13.49103-3.102-1.458986-6.252-2.16797-9.658-2.16797"/><path d="m213.712 23.0887c-1.809 0.2437-3.126 0.4875-4.688 1.2183-0.247 0.1625-0.577 0.8938-0.577 1.1375-0.165 2.5184-0.165 9.8293-0.165 14.6215 0 3.8996-0.657 7.311-2.302 9.7492-1.974 2.7614-4.77 4.386-8.39 4.386-3.207 0-7.485-2.1934-11.021-5.1992-0.083-0.0813-0.626-0.5961-0.614 0.2039 0.012 0.7988 0.136 2.425 0.21 3.4488 0.075 1.0234-0.539 1.5058-0.539 1.5058-2.303-1.1371-8.789-2.6769-11.184-2.9246-1.751-0.3367-2.192-2.0179-0.328-2.5984v-4e-4c0-0.0027 0.018-0.0058 0.028-9e-3 1.951-0.5863 3.265-1.2129 4.246-1.8593 0.741-0.5688 0.658-1.3813 0.658-2.0313 0.082-5.4422 0.082-13.8102-0.165-18.3586-0.082-1.7875-0.576-2.4363-1.892-2.7621l0.12 0.0402c-0.987-0.2425-1.81-0.4058-3.043-0.5683-0.412-0.4055-0.412-2.7614-1e-3 -3.2496 0.823 0 5.019 0.2445 8.473 0.2445 4.77 0 7.238-0.2445 8.472-0.2445 0.493 0.5695 0.658 2.7629 0.329 3.2496-1.399 0.0812-2.386 0.2437-3.373 0.4875-1.316 0.325-1.645 0.9746-1.726 2.4371-0.165 3.8176-0.165 11.9406-0.165 17.4652 0 1.5434 0.411 2.2746 0.905 2.6809 1.644 1.4625 4.359 2.4359 6.745 2.4359 2.302 0 3.865-0.7308 5.017-1.7047 1.563-1.3 2.138-3.1683 2.303-4.5496 0.329-3.0875 0.246-9.2605 0.246-14.6219 0-2.9246-0.246-3.6558-1.315-3.9804-0.494-0.2442-1.81-0.4875-3.373-0.65-0.493-0.4867-0.329-2.7614 0-3.2496 2.139 0 4.607 0.2445 8.225 0.2445 4.525 0 7.403-0.2445 8.555-0.2445 0.493 0.5695 0.657 2.682 0.329 3.2496"/><path d="m413.701 27.0969h1.392c1.125 0 1.553 0.3926 1.553 1.4097 0 1.0344-0.411 1.3747-1.678 1.3747h-1.267zm2.963-4.3727-1.642 3.5344h-1.321v-3.5344h-0.964v8.0317h2.375c1.766 0 2.498-0.786 2.498-2.2493 0-1.1769-0.554-1.9269-1.588-2.1421l1.695-3.6403zm-1.552 9.7973c-3.232 0-5.801-2.5516-5.801-5.7992 0-3.1942 2.569-5.7649 5.782-5.7649 3.195 0 5.765 2.5707 5.765 5.7649 0 3.2652-2.498 5.7992-5.746 5.7992zm-0.019-12.1352c-3.569 0-6.353 2.7844-6.353 6.3532 0 3.5878 2.784 6.3531 6.372 6.3531 3.498 0 6.334-2.8016 6.334-6.2629 0-3.6227-2.783-6.4434-6.353-6.4434"/></g></g></svg>
