<?xml version="1.0" encoding="UTF-8" standalone="no"?>
<svg
   xmlns:dc="http://purl.org/dc/elements/1.1/"
   xmlns:cc="http://creativecommons.org/ns#"
   xmlns:rdf="http://www.w3.org/1999/02/22-rdf-syntax-ns#"
   xmlns:svg="http://www.w3.org/2000/svg"
   xmlns="http://www.w3.org/2000/svg"
   id="svg5425"
   version="1.1"
   viewBox="0 0 81.309998 13.295"
   height="13.295mm"
   width="81.309998mm">
  <defs
     id="defs5419" />
  <metadata
     id="metadata5422">
    <rdf:RDF>
      <cc:Work
         rdf:about="">
        <dc:format>image/svg+xml</dc:format>
        <dc:type
           rdf:resource="http://purl.org/dc/dcmitype/StillImage" />
        <dc:title></dc:title>
      </cc:Work>
    </rdf:RDF>
  </metadata>
  <g
     transform="translate(0,-283.705)"
     id="layer1">
    <g
       id="text5456"
       style="font-style:normal;font-variant:normal;font-weight:normal;font-stretch:normal;font-size:16.93333244px;line-height:1.25;font-family:'Open Sans';-inkscape-font-specification:'Open Sans, Normal';font-variant-ligatures:normal;font-variant-caps:normal;font-variant-numeric:normal;font-feature-settings:normal;text-align:start;letter-spacing:0px;word-spacing:0px;writing-mode:lr-tb;text-anchor:start;fill:#ffffff;fill-opacity:1;stroke:none;stroke-width:0.26458332"
       aria-label="mongoose">
      <g
         style="fill:#ffffff;fill-opacity:1"
         id="g5483">
        <path
           d="m 11.550715,292.93204 v -5.89525 q 0,-1.08314 -0.46302,-1.62057 -0.463021,-0.54571 -1.4386721,-0.54571 -1.2815755,0 -1.8934244,0.73588 -0.6118489,0.73587 -0.6118489,2.26549 v 5.06016 h -1.372526 v -5.89525 q 0,-1.08314 -0.4630208,-1.62057 -0.4630208,-0.54571 -1.44694,-0.54571 -1.2898437,0 -1.8934244,0.77722 -0.5953125,0.76894 -0.5953125,2.53008 v 4.75423 H -4.4703484e-8 v -9.06198 H 1.1162108 l 0.2232422,1.24023 h 0.066146 q 0.3886068,-0.66146 1.0914062,-1.03353 0.7110677,-0.37207 1.5874999,-0.37207 2.1249348,0 2.7781249,1.53789 h 0.066146 q 0.4051432,-0.71106 1.1740885,-1.12447 0.7689453,-0.41342 1.7528645,-0.41342 1.5378904,0 2.2985674,0.79375 0.768945,0.78549 0.768945,2.52181 v 5.91179 z"
           style="font-style:normal;font-variant:normal;font-weight:normal;font-stretch:normal;font-size:16.93333244px;font-family:'Open Sans';-inkscape-font-specification:'Open Sans, Normal';font-variant-ligatures:normal;font-variant-caps:normal;font-variant-numeric:normal;font-feature-settings:normal;text-align:start;writing-mode:lr-tb;text-anchor:start;fill:#ffffff;fill-opacity:1;stroke-width:0.26458332"
           id="path5458" />
        <path
           d="m 23.564452,288.39278 q 0,2.21589 -1.116211,3.46439 -1.116211,1.24023 -3.08405,1.24023 -1.215429,0 -2.158007,-0.57051 -0.942578,-0.5705 -1.455209,-1.63711 -0.51263,-1.0666 -0.51263,-2.497 0,-2.21589 1.107943,-3.44785 1.107943,-1.24024 3.075781,-1.24024 1.901693,0 3.017903,1.26504 1.12448,1.26504 1.12448,3.42305 z m -6.903971,0 q 0,1.73633 0.694531,2.64583 0.694531,0.90951 2.042252,0.90951 1.347722,0 2.042253,-0.90124 0.702799,-0.9095 0.702799,-2.6541 0,-1.72806 -0.702799,-2.62103 -0.694531,-0.90124 -2.058789,-0.90124 -1.347721,0 -2.033984,0.8847 -0.686263,0.88471 -0.686263,2.63757 z"
           style="font-style:normal;font-variant:normal;font-weight:normal;font-stretch:normal;font-size:16.93333244px;font-family:'Open Sans';-inkscape-font-specification:'Open Sans, Normal';font-variant-ligatures:normal;font-variant-caps:normal;font-variant-numeric:normal;font-feature-settings:normal;text-align:start;writing-mode:lr-tb;text-anchor:start;fill:#ffffff;fill-opacity:1;stroke-width:0.26458332"
           id="path5460" />
        <path
           d="m 32.16341,292.93204 v -5.86218 q 0,-1.10794 -0.504362,-1.65364 -0.504362,-0.54571 -1.579232,-0.54571 -1.422135,0 -2.083593,0.76895 -0.661459,0.76894 -0.661459,2.53835 v 4.75423 h -1.372526 v -9.06198 h 1.116211 l 0.223242,1.24023 h 0.06615 q 0.42168,-0.66972 1.182357,-1.03353 0.760677,-0.37207 1.694987,-0.37207 1.637109,0 2.463932,0.79375 0.826823,0.78549 0.826823,2.52181 v 5.91179 z"
           style="font-style:normal;font-variant:normal;font-weight:normal;font-stretch:normal;font-size:16.93333244px;font-family:'Open Sans';-inkscape-font-specification:'Open Sans, Normal';font-variant-ligatures:normal;font-variant-caps:normal;font-variant-numeric:normal;font-feature-settings:normal;text-align:start;writing-mode:lr-tb;text-anchor:start;fill:#ffffff;fill-opacity:1;stroke-width:0.26458332"
           id="path5462" />
        <path
           d="m 43.763735,283.87006 v 0.86816 l -1.678451,0.19844 q 0.231511,0.28939 0.413412,0.76068 0.181901,0.46302 0.181901,1.05006 0,1.33119 -0.909505,2.12494 -0.909506,0.79375 -2.497005,0.79375 -0.405144,0 -0.760677,-0.0661 -0.876433,0.46302 -0.876433,1.16582 0,0.37207 0.305925,0.55397 0.305924,0.17364 1.050065,0.17364 h 1.604036 q 1.471745,0 2.257227,0.62011 0.79375,0.62012 0.79375,1.80248 0,1.50481 -1.207162,2.2903 -1.207161,0.79375 -3.522265,0.79375 -1.777669,0 -2.745052,-0.66146 -0.959115,-0.66146 -0.959115,-1.86862 0,-0.82682 0.529167,-1.43041 0.529167,-0.60358 1.488281,-0.81855 -0.347266,-0.1571 -0.587044,-0.48783 -0.231511,-0.33072 -0.231511,-0.76894 0,-0.49609 0.264584,-0.86817 0.264583,-0.37207 0.835091,-0.71933 -0.7028,-0.28939 -1.149284,-0.98392 -0.438216,-0.69453 -0.438216,-1.5875 0,-1.48828 0.892969,-2.2903 0.892968,-0.81029 2.530078,-0.81029 0.711067,0 1.281575,0.16537 z m -7.226432,10.58333 q 0,0.73587 0.620117,1.11621 0.620117,0.38034 1.777669,0.38034 1.72806,0 2.554883,-0.5209 0.835091,-0.51263 0.835091,-1.39733 0,-0.73587 -0.454753,-1.02526 -0.454752,-0.28112 -1.711523,-0.28112 H 38.51341 q -0.93431,0 -1.455209,0.44649 -0.520898,0.44648 -0.520898,1.28157 z m 0.74414,-7.68118 q 0,0.95084 0.537435,1.43867 0.537435,0.48782 1.49655,0.48782 2.009179,0 2.009179,-1.9513 0,-2.04225 -2.033984,-2.04225 -0.967383,0 -1.488281,0.5209 -0.520899,0.5209 -0.520899,1.54616 z"
           style="font-style:normal;font-variant:normal;font-weight:normal;font-stretch:normal;font-size:16.93333244px;font-family:'Open Sans';-inkscape-font-specification:'Open Sans, Normal';font-variant-ligatures:normal;font-variant-caps:normal;font-variant-numeric:normal;font-feature-settings:normal;text-align:start;writing-mode:lr-tb;text-anchor:start;fill:#ffffff;fill-opacity:1;stroke-width:0.26458332"
           id="path5464" />
        <path
           d="m 53.462369,288.39278 q 0,2.21589 -1.116211,3.46439 -1.11621,1.24023 -3.084049,1.24023 -1.215429,0 -2.158008,-0.57051 -0.942578,-0.5705 -1.455208,-1.63711 -0.51263,-1.0666 -0.51263,-2.497 0,-2.21589 1.107943,-3.44785 1.107942,-1.24024 3.075781,-1.24024 1.901692,0 3.017903,1.26504 1.124479,1.26504 1.124479,3.42305 z m -6.903971,0 q 0,1.73633 0.694532,2.64583 0.694531,0.90951 2.042252,0.90951 1.347721,0 2.042253,-0.90124 0.702799,-0.9095 0.702799,-2.6541 0,-1.72806 -0.702799,-2.62103 -0.694532,-0.90124 -2.058789,-0.90124 -1.347722,0 -2.033985,0.8847 -0.686263,0.88471 -0.686263,2.63757 z"
           style="font-style:normal;font-variant:normal;font-weight:normal;font-stretch:normal;font-size:16.93333244px;font-family:'Open Sans';-inkscape-font-specification:'Open Sans, Normal';font-variant-ligatures:normal;font-variant-caps:normal;font-variant-numeric:normal;font-feature-settings:normal;text-align:start;writing-mode:lr-tb;text-anchor:start;fill:#ffffff;fill-opacity:1;stroke-width:0.26458332"
           id="path5466" />
        <path
           d="m 63.681898,288.39278 q 0,2.21589 -1.116211,3.46439 -1.116211,1.24023 -3.08405,1.24023 -1.215429,0 -2.158007,-0.57051 -0.942578,-0.5705 -1.455209,-1.63711 -0.51263,-1.0666 -0.51263,-2.497 0,-2.21589 1.107943,-3.44785 1.107943,-1.24024 3.075781,-1.24024 1.901693,0 3.017903,1.26504 1.12448,1.26504 1.12448,3.42305 z m -6.903971,0 q 0,1.73633 0.694531,2.64583 0.694531,0.90951 2.042252,0.90951 1.347722,0 2.042253,-0.90124 0.702799,-0.9095 0.702799,-2.6541 0,-1.72806 -0.702799,-2.62103 -0.694531,-0.90124 -2.058789,-0.90124 -1.347721,0 -2.033984,0.8847 -0.686263,0.88471 -0.686263,2.63757 z"
           style="font-style:normal;font-variant:normal;font-weight:normal;font-stretch:normal;font-size:16.93333244px;font-family:'Open Sans';-inkscape-font-specification:'Open Sans, Normal';font-variant-ligatures:normal;font-variant-caps:normal;font-variant-numeric:normal;font-feature-settings:normal;text-align:start;writing-mode:lr-tb;text-anchor:start;fill:#ffffff;fill-opacity:1;stroke-width:0.26458332"
           id="path5468" />
        <path
           d="m 71.925319,290.45984 q 0,1.26504 -0.942578,1.9513 -0.942578,0.68626 -2.645833,0.68626 -1.802474,0 -2.811198,-0.57051 v -1.2733 q 0.65319,0.33073 1.397331,0.5209 0.752408,0.19016 1.44694,0.19016 1.074869,0 1.653645,-0.33899 0.578776,-0.34727 0.578776,-1.05007 0,-0.52916 -0.46302,-0.90123 -0.454753,-0.38034 -1.785938,-0.89297 -1.265039,-0.47129 -1.802474,-0.81856 -0.529166,-0.35553 -0.79375,-0.80202 -0.256315,-0.44648 -0.256315,-1.0666 0,-1.10794 0.901237,-1.74459 0.901237,-0.64493 2.472201,-0.64493 1.463476,0 2.860807,0.59532 l -0.487826,1.11621 q -1.364257,-0.56224 -2.4722,-0.56224 -0.975651,0 -1.471745,0.30592 -0.496094,0.30593 -0.496094,0.84336 0,0.3638 0.181902,0.62012 0.190169,0.25631 0.60358,0.48782 0.413412,0.23151 1.5875,0.66973 1.612305,0.58705 2.174544,1.18236 0.570508,0.59531 0.570508,1.49655 z"
           style="font-style:normal;font-variant:normal;font-weight:normal;font-stretch:normal;font-size:16.93333244px;font-family:'Open Sans';-inkscape-font-specification:'Open Sans, Normal';font-variant-ligatures:normal;font-variant-caps:normal;font-variant-numeric:normal;font-feature-settings:normal;text-align:start;writing-mode:lr-tb;text-anchor:start;fill:#ffffff;fill-opacity:1;stroke-width:0.26458332"
           id="path5470" />
        <path
           d="m 77.977665,293.0974 q -2.00918,0 -3.175,-1.2237 -1.157552,-1.22369 -1.157552,-3.39824 0,-2.19108 1.07487,-3.48092 1.083138,-1.28985 2.902148,-1.28985 1.703255,0 2.695443,1.12448 0.992187,1.11621 0.992187,2.95176 v 0.86816 h -6.242513 q 0.04134,1.59577 0.802019,2.4226 0.768945,0.82682 2.158007,0.82682 1.463477,0 2.89388,-0.61185 v 1.2237 q -0.727604,0.31419 -1.380794,0.44648 -0.644922,0.14056 -1.562695,0.14056 z m -0.37207,-8.24342 q -1.091407,0 -1.744597,0.71107 -0.644921,0.71106 -0.760677,1.96783 h 4.737695 q 0,-1.29811 -0.578776,-1.98437 -0.578776,-0.69453 -1.653645,-0.69453 z"
           style="font-style:normal;font-variant:normal;font-weight:normal;font-stretch:normal;font-size:16.93333244px;font-family:'Open Sans';-inkscape-font-specification:'Open Sans, Normal';font-variant-ligatures:normal;font-variant-caps:normal;font-variant-numeric:normal;font-feature-settings:normal;text-align:start;writing-mode:lr-tb;text-anchor:start;fill:#ffffff;fill-opacity:1;stroke-width:0.26458332"
           id="path5472" />
      </g>
    </g>
  </g>
</svg>
