<svg id="Layer_2_1_" width="1489.302" height="436.89999" enable-background="new 0 0 841.9 595.3" version="1.1" viewBox="0 0 1489.302 436.9" xml:space="preserve" xmlns="http://www.w3.org/2000/svg">

<g transform="translate(542.98934,-202.85061)" fill="#fff"><g transform="translate(-27.7418,303.8569)">
	
	<polygon points=""/>
	<g transform="translate(-691.04754,-179.00629)"><path d="m666.3 296.5c0-32.5-40.7-63.3-103.1-82.4 14.4-63.6 8-114.2-20.2-130.4-6.5-3.8-14.1-5.6-22.4-5.6v22.3c4.6 0 8.3 0.9 11.4 2.6 13.6 7.8 19.5 37.5 14.9 75.7-1.1 9.4-2.9 19.3-5.1 29.4-19.6-4.8-41-8.5-63.5-10.9-13.5-18.5-27.5-35.3-41.6-50 32.6-30.3 63.2-46.9 84-46.9v-22.3c-27.5 0-63.5 19.6-99.9 53.6-36.4-33.8-72.4-53.2-99.9-53.2v22.3c20.7 0 51.4 16.5 84 46.6-14 14.7-28 31.4-41.3 49.9-22.6 2.4-44 6.1-63.6 11-2.3-10-4-19.7-5.2-29-4.7-38.2 1.1-67.9 14.6-75.8 3-1.8 6.9-2.6 11.5-2.6v-22.3c-8.4 0-16 1.8-22.6 5.6-28.1 16.2-34.4 66.7-19.9 130.1-62.2 19.2-102.7 49.9-102.7 82.3 0 32.5 40.7 63.3 103.1 82.4-14.4 63.6-8 114.2 20.2 130.4 6.5 3.8 14.1 5.6 22.5 5.6 27.5 0 63.5-19.6 99.9-53.6 36.4 33.8 72.4 53.2 99.9 53.2 8.4 0 16-1.8 22.6-5.6 28.1-16.2 34.4-66.7 19.9-130.1 62-19.1 102.5-49.9 102.5-82.3zm-130.2-66.7c-3.7 12.9-8.3 26.2-13.5 39.5-4.1-8-8.4-16-13.1-24-4.6-8-9.5-15.8-14.4-23.4 14.2 2.1 27.9 4.7 41 7.9zm-45.8 106.5c-7.8 13.5-15.8 26.3-24.1 38.2-14.9 1.3-30 2-45.2 2-15.1 0-30.2-0.7-45-1.9-8.3-11.9-16.4-24.6-24.2-38-7.6-13.1-14.5-26.4-20.8-39.8 6.2-13.4 13.2-26.8 20.7-39.9 7.8-13.5 15.8-26.3 24.1-38.2 14.9-1.3 30-2 45.2-2 15.1 0 30.2 0.7 45 1.9 8.3 11.9 16.4 24.6 24.2 38 7.6 13.1 14.5 26.4 20.8 39.8-6.3 13.4-13.2 26.8-20.7 39.9zm32.3-13c5.4 13.4 10 26.8 13.8 39.8-13.1 3.2-26.9 5.9-41.2 8 4.9-7.7 9.8-15.6 14.4-23.7 4.6-8 8.9-16.1 13-24.1zm-101.4 106.7c-9.3-9.6-18.6-20.3-27.8-32 9 0.4 18.2 0.7 27.5 0.7 9.4 0 18.7-0.2 27.8-0.7-9 11.7-18.3 22.4-27.5 32zm-74.4-58.9c-14.2-2.1-27.9-4.7-41-7.9 3.7-12.9 8.3-26.2 13.5-39.5 4.1 8 8.4 16 13.1 24s9.5 15.8 14.4 23.4zm73.9-208.1c9.3 9.6 18.6 20.3 27.8 32-9-0.4-18.2-0.7-27.5-0.7-9.4 0-18.7 0.2-27.8 0.7 9-11.7 18.3-22.4 27.5-32zm-74 58.9c-4.9 7.7-9.8 15.6-14.4 23.7-4.6 8-8.9 16-13 24-5.4-13.4-10-26.8-13.8-39.8 13.1-3.1 26.9-5.8 41.2-7.9zm-90.5 125.2c-35.4-15.1-58.3-34.9-58.3-50.6s22.9-35.6 58.3-50.6c8.6-3.7 18-7 27.7-10.1 5.7 19.6 13.2 40 22.5 60.9-9.2 20.8-16.6 41.1-22.2 60.6-9.9-3.1-19.3-6.5-28-10.2zm53.8 142.9c-13.6-7.8-19.5-37.5-14.9-75.7 1.1-9.4 2.9-19.3 5.1-29.4 19.6 4.8 41 8.5 63.5 10.9 13.5 18.5 27.5 35.3 41.6 50-32.6 30.3-63.2 46.9-84 46.9-4.5-0.1-8.3-1-11.3-2.7zm237.2-76.2c4.7 38.2-1.1 67.9-14.6 75.8-3 1.8-6.9 2.6-11.5 2.6-20.7 0-51.4-16.5-84-46.6 14-14.7 28-31.4 41.3-49.9 22.6-2.4 44-6.1 63.6-11 2.3 10.1 4.1 19.8 5.2 29.1zm38.5-66.7c-8.6 3.7-18 7-27.7 10.1-5.7-19.6-13.2-40-22.5-60.9 9.2-20.8 16.6-41.1 22.2-60.6 9.9 3.1 19.3 6.5 28.1 10.2 35.4 15.1 58.3 34.9 58.3 50.6-0.1 15.7-23 35.6-58.4 50.6z"/><circle cx="420.89999" cy="296.5" r="45.700001"/></g>
	<polygon points=""/>
</g><g transform="matrix(1.9915036,0,0,1.9915036,0,-590.24212)" style="font-feature-settings:normal;font-variant-caps:normal;font-variant-ligatures:normal;font-variant-numeric:normal" aria-label="React"><g transform="translate(-181.84462,-101.61468)" stroke-width=".50213313"><path d="m294.62587 694.57092h-34.78125l-20.90625-34.59375q-2.34375-3.9375-4.5-7.03125t-4.40625-5.25q-2.15625-2.25-4.59375-3.375-2.34375-1.21875-5.15625-1.21875h-8.15625v51.46875h-30.28125v-134.4375h48q48.9375 0 48.9375 36.5625 0 7.03125-2.15625 13.03125-2.15625 5.90625-6.09375 10.6875t-9.5625 8.25q-5.53125 3.46875-12.375 5.4375v0.375q3 0.9375 5.8125 3.09375 2.8125 2.0625 5.4375 4.875t4.96875 6.09375q2.4375 3.1875 4.40625 6.28125zm-82.5-111.75v37.40625h13.125q9.75 0 15.65625-5.625 6-5.71875 6-14.15625 0-17.625-21.09375-17.625z"/><path d="m385.56337 655.00842h-62.625q1.5 20.90625 26.34375 20.90625 15.84375 0 27.84375-7.5v21.375q-13.3125 7.125-34.59375 7.125-23.25 0-36.09375-12.84375-12.84375-12.9375-12.84375-36 0-23.90625 13.875-37.875t34.125-13.96875q21 0 32.4375 12.46875 11.53125 12.46875 11.53125 33.84375zm-27.46875-18.1875q0-20.625-16.6875-20.625-7.125 0-12.375 5.90625-5.15625 5.90625-6.28125 14.71875z"/><path d="m483.06337 694.57092h-28.03125v-13.78125h-0.375q-9.65625 16.125-28.59375 16.125-13.96875 0-22.03125-7.875-7.96875-7.96875-7.96875-21.1875 0-27.9375 33.09375-32.25l26.0625-3.46875q0-15.75-17.0625-15.75-17.15625 0-32.625 10.21875v-22.3125q6.1875-3.1875 16.875-5.625 10.78125-2.4375 19.59375-2.4375 41.0625 0 41.0625 40.96875zm-27.84375-39v-6.46875l-17.4375 2.25q-14.4375 1.875-14.4375 13.03125 0 5.0625 3.46875 8.34375 3.5625 3.1875 9.5625 3.1875 8.34375 0 13.59375-5.71875 5.25-5.8125 5.25-14.625z"/><path d="m579.43837 691.10217q-10.03125 5.8125-28.96875 5.8125-22.125 0-35.8125-13.40625t-13.6875-34.59375q0-24.46875 14.625-38.53125 14.71875-14.15625 39.28125-14.15625 16.96875 0 24.5625 4.5v25.125q-9.28125-6.9375-20.71875-6.9375-12.75 0-20.25 7.5-7.40625 7.40625-7.40625 20.53125 0 12.75 7.125 20.0625 7.125 7.21875 19.59375 7.21875 11.0625 0 21.65625-6.9375z"/><path d="m656.96962 693.44592q-6.5625 3.46875-19.78125 3.46875-31.3125 0-31.3125-32.53125v-43.96875h-15.5625v-21.84375h15.5625v-20.71875l29.53125-8.4375v29.15625h21.5625v21.84375h-21.5625v38.8125q0 15 11.90625 15 4.6875 0 9.65625-2.71875z"/></g></g></g></svg>
