<?xml version="1.0" encoding="UTF-8" standalone="no"?>
<svg
   xmlns:dc="http://purl.org/dc/elements/1.1/"
   xmlns:cc="http://creativecommons.org/ns#"
   xmlns:rdf="http://www.w3.org/1999/02/22-rdf-syntax-ns#"
   xmlns:svg="http://www.w3.org/2000/svg"
   xmlns="http://www.w3.org/2000/svg"
   id="svg8"
   version="1.1"
   viewBox="0 0 341.9819 105.83334"
   height="400"
   width="1292.53">
  <defs
     id="defs2" />
  <metadata
     id="metadata5">
    <rdf:RDF>
      <cc:Work
         rdf:about="">
        <dc:format>image/svg+xml</dc:format>
        <dc:type
           rdf:resource="http://purl.org/dc/dcmitype/StillImage" />
        <dc:title></dc:title>
      </cc:Work>
    </rdf:RDF>
  </metadata>
  <g
     transform="translate(0,-191.16665)"
     id="layer1">
    <g
       style="stroke-width:1.36533201"
       transform="matrix(0.20670592,0,0,0.20670592,106.93156,134.04097)"
       id="layer1-3">
      <g
         style="stroke-width:1.36533201"
         id="g840">
        <path
           style="fill:#ffffff;fill-opacity:1;stroke:none;stroke-width:1.45635402"
           d="M 0,107.32812 35.210938,502.26953 193.2207,546.13281 351.66797,502.20703 386.91602,107.32812 Z m 71.998047,80.73047 h 121.292973 0.16796 121.16993 l -8.7461,98.03907 -1.18164,13.00781 -11.38086,127.52148 -0.72851,8.1836 -99.13282,27.47265 v 0.01 l -0.2246,0.0605 -99.220708,-27.54297 -6.785156,-76.05469 h 22.410154 26.21289 l 3.44922,38.63086 53.94531,14.5664 0.0449,-0.0117 v -0.004 l 54.02343,-14.58203 5.62305,-62.82031 H 193.45898 193.29102 85.0625 l -4.339844,-48.4375 h 112.568364 0.16796 63.67774 l 4.4082,-49.60157 H 193.45898 193.29102 76.402344 Z"
           transform="matrix(0.93750003,0,0,0.93750003,193.633,276.3622)"
           id="polygon2989" />
        <path
           d="m 279,276.3622 h 55 v 23 h -32 v 23 h 32 v 23 h -55 z"
           id="path2999"
           style="fill:#ffffff;fill-opacity:1;stroke:none;stroke-width:1.36533201" />
        <path
           d="m 345,276.3622 h 55 v 20 h -32 v 4 h 32 v 46 h -55 v -21 h 32 v -4 h -32 z"
           id="path3001"
           style="fill:#ffffff;fill-opacity:1;stroke:none;stroke-width:1.36533201" />
        <path
           d="m 411,276.3622 h 55 v 20 h -32 v 4 h 32 v 46 h -55 v -21 h 32 v -4 h -32 z"
           id="path3003"
           style="fill:#ffffff;fill-opacity:1;stroke:none;stroke-width:1.36533201" />
      </g>
    </g>
    <path
       style="fill:#ffffff;stroke-width:0.26458332"
       d="m 121.51741,252.0061 c -4.92332,0.0258 -9.20222,1.21149 -12.78516,2.96429 -1.31461,-2.60343 -2.62921,-4.92332 -2.8612,-6.62458 -0.25777,-1.98478 -0.56708,-3.19628 -0.25777,-5.56773 0.30932,-2.37143 1.70126,-5.74817 1.67548,-6.00593 -0.0258,-0.25777 -0.30932,-1.46926 -3.14473,-1.49504 -2.83543,-0.0258 -5.284197,0.5413 -5.567738,1.28882 -0.28355,0.74753 -0.824852,2.44878 -1.185728,4.20158 -0.489746,2.57766 -5.670836,11.77989 -8.635141,16.6001 -0.953734,-1.88168 -1.778577,-3.53138 -1.959014,-4.846 -0.257762,-1.98478 -0.567081,-3.19628 -0.257762,-5.56773 0.309318,-2.37143 1.701251,-5.74817 1.675473,-6.00593 -0.02582,-0.25777 -0.309318,-1.46926 -3.144741,-1.49504 -2.835423,-0.0258 -5.284194,0.5413 -5.567735,1.28882 -0.283539,0.74754 -0.592858,2.50033 -1.185717,4.20158 -0.592859,1.70126 -7.475202,17.06408 -9.279557,21.03366 -0.927956,2.03635 -1.72703,3.66028 -2.294111,4.76866 -0.567091,1.1084 -0.02582,0.0773 -0.103113,0.20622 -0.489756,0.95374 -0.773297,1.46927 -0.773297,1.46927 0,0 0,0 0,0.0258 -0.386643,0.69597 -0.799074,1.34039 -1.00528,1.34039 -0.154659,0 -0.438199,-1.85592 0.05154,-4.38203 1.031058,-5.33573 3.479829,-13.63579 3.454061,-13.91933 0,-0.15466 0.463977,-1.59813 -1.59815,-2.34567 -2.01057,-0.74752 -2.73231,0.48975 -2.912748,0.48975 -0.180437,0 -0.309318,0.43821 -0.309318,0.43821 0,0 2.242554,-9.33111 -4.278913,-9.33111 -4.072689,0 -9.691979,4.45934 -12.475845,8.48049 -1.752809,0.95373 -5.490401,2.99008 -9.485777,5.18107 -1.520815,0.85064 -3.093186,1.70126 -4.562444,2.50033 -0.103103,-0.10315 -0.206216,-0.23197 -0.309319,-0.33509 -7.887633,-8.42893 -22.4771484,-14.38331 -21.85851,-25.69922 0.231984,-4.12424 1.649695,-14.9504 28.019105,-28.09643 21.703848,-10.69726 38.974141,-7.73297 41.964213,-1.15994 4.278914,9.38266 -9.253778,26.8076 -31.679373,29.3337 -8.557819,0.95373 -13.042941,-2.34567 -14.177102,-3.58294 -1.185727,-1.28883 -1.366155,-1.36616 -1.804365,-1.10839 -0.72174,0.38665 -0.257762,1.54659 0,2.21679 0.670194,1.7528 3.428283,4.84599 8.093842,6.3668 4.124246,1.34039 14.15133,2.0879 26.292079,-2.60343 13.584238,-5.25841 24.204182,-19.87372 21.085218,-32.11758 C 85.2498,191.68901 64.628559,187.59052 45.115712,194.52442 33.516262,198.64867 20.937314,205.14436 11.889745,213.59907 1.1409296,223.65191 -0.56032239,232.39016 0.13563961,236.05044 2.6359666,249.04182 20.550662,257.49652 27.716543,263.76023 c -0.360875,0.2062 -0.695971,0.38664 -0.979512,0.5413 -3.582941,1.77859 -17.2445004,8.91868 -20.6470054,16.47122 -3.866482,8.5578 0.618637,14.69263 3.582942,15.51748 9.2022214,2.55188 18.6622124,-2.03636 23.7401914,-9.61466 5.077979,-7.5783 4.459341,-17.42495 2.113673,-21.93584 -0.02582,-0.0515 -0.05154,-0.10315 -0.103103,-0.15466 0.927956,-0.54131 1.88169,-1.10839 2.809647,-1.64969 1.830134,-1.08262 3.63449,-2.08791 5.181083,-2.91276 -0.876399,2.39722 -1.520814,5.25842 -1.830133,9.38266 -0.386644,4.846 1.598149,11.13547 4.201579,13.61002 1.159949,1.08261 2.526105,1.1084 3.402504,1.1084 3.041629,0 4.407794,-2.52611 5.928609,-5.51618 1.855912,-3.66028 3.531385,-7.9134 3.531385,-7.9134 0,0 -2.087905,11.49633 3.582942,11.49633 2.062117,0 4.150023,-2.68076 5.077978,-4.04691 v 0.0258 c 0,0 0.05154,-0.0773 0.154659,-0.25777 0.206216,-0.3351 0.335097,-0.5413 0.335097,-0.5413 0,0 0,-0.0258 0,-0.0515 0.824843,-1.44349 2.680754,-4.71712 5.438853,-10.15597 3.557164,-7.01121 6.985436,-15.77525 6.985436,-15.77525 0,0 0.309318,2.13947 1.366165,5.69663 0.618638,2.0879 1.907458,4.382 2.938527,6.59879 -0.824853,1.15994 -1.340388,1.80435 -1.340388,1.80435 0,0 0,0 0.02582,0.0258 -0.670183,0.87641 -1.391933,1.83014 -2.190998,2.7581 -2.809645,3.35095 -6.160603,7.19166 -6.62458,8.30004 -0.541303,1.3146 -0.412422,2.26834 0.618637,3.04163 0.747527,0.56709 2.087904,0.64442 3.454061,0.56709 2.526104,-0.18043 4.304681,-0.79906 5.18109,-1.18572 1.366156,-0.48975 2.964295,-1.23727 4.459341,-2.34567 2.758089,-2.03634 4.433563,-4.9491 4.278903,-8.7898 -0.07735,-2.11367 -0.773296,-4.22736 -1.623918,-6.21215 0.257763,-0.36087 0.489747,-0.72174 0.747519,-1.08261 4.356238,-6.36681 7.732954,-13.35225 7.732954,-13.35225 0,0 0.309318,2.13945 1.366159,5.69662 0.51553,1.80436 1.57237,3.76336 2.50032,5.67083 -4.098463,3.32518 -6.624558,7.19167 -7.526745,9.71776 -1.623918,4.69134 -0.360865,6.80501 2.036348,7.29476 1.082616,0.232 2.629207,-0.28353 3.763367,-0.77329 1.44349,-0.46398 3.14474,-1.26305 4.76867,-2.44877 2.75809,-2.03636 5.41308,-4.87177 5.25842,-8.71247 -0.0773,-1.75281 -0.54132,-3.47983 -1.18573,-5.15531 3.47984,-1.44349 7.96496,-2.24257 13.68735,-1.57237 12.26967,1.44348 14.69267,9.09912 14.22869,12.32118 -0.46398,3.22207 -3.04164,4.97488 -3.89226,5.51618 -0.85063,0.54132 -1.13417,0.72175 -1.05684,1.10839 0.1031,0.5671 0.51553,0.54131 1.23728,0.4382 1.00528,-0.18043 6.44413,-2.60343 6.67612,-8.53202 0.38665,-7.57831 -6.83078,-15.85258 -19.59021,-15.77526 z m -94.651481,31.91135 c -4.072687,4.43357 -9.743532,6.10904 -12.192301,4.69134 -2.629207,-1.52082 -1.598139,-8.06807 3.402503,-12.7594 3.041638,-2.86119 6.959665,-5.51617 9.563094,-7.14009 0.592869,-0.36088 1.469268,-0.87641 2.526105,-1.52083 0.180438,-0.10315 0.283541,-0.15465 0.283541,-0.15465 l 0.618637,-0.38665 c 1.830133,6.7019 0.07735,12.60472 -4.201579,17.27028 z m 29.64304,-20.15725 c -1.417713,3.45405 -4.382017,12.2954 -6.186372,11.80565 -1.546593,-0.41242 -2.500326,-7.11433 -0.309318,-13.73889 1.108393,-3.32518 3.45405,-7.29477 4.820216,-8.84136 2.216776,-2.47456 4.665546,-3.2994 5.258415,-2.29412 0.747518,1.31462 -2.706543,10.90349 -3.582941,13.06872 z m 24.461944,11.70255 c -0.592869,0.30931 -1.15995,0.51554 -1.417712,0.36087 -0.180438,-0.10316 0.257762,-0.51553 0.257762,-0.51553 0,0 3.067408,-3.2994 4.278903,-4.79444 0.695973,-0.8764 1.520825,-1.90746 2.397224,-3.06741 v 0.3351 c 0,3.94381 -3.814926,6.59879 -5.516177,7.68141 z m 18.868422,-4.30469 c -0.438199,-0.30932 -0.360865,-1.34038 1.108395,-4.56244 0.56709,-1.26306 1.90746,-3.37673 4.20158,-5.41309 0.25776,0.82486 0.4382,1.62393 0.41242,2.37146 -0.0257,4.97487 -3.58293,6.83078 -5.722395,7.60407 z"
       id="path832" />
    <g
       style="stroke-width:1.05891359"
       transform="matrix(0.94436408,0,0,0.94436408,236.14855,16.523869)"
       id="layer1-4">
      <g
         id="text5495"
         style="font-style:normal;font-variant:normal;font-weight:normal;font-stretch:normal;font-size:16.93333244px;line-height:1.25;font-family:monospace;-inkscape-font-specification:'monospace, Normal';font-variant-ligatures:normal;font-variant-caps:normal;font-variant-numeric:normal;font-feature-settings:normal;text-align:start;letter-spacing:0px;word-spacing:0px;writing-mode:lr-tb;text-anchor:start;fill:#000000;fill-opacity:1;stroke:none;stroke-width:0.28017089"
         aria-label="&lt;ðŸ’…ðŸ¾&gt;">
        <g
           style="stroke-width:0.28017089"
           transform="translate(-312.87109,-482.01367)"
           id="g5659">
          <g
             id="g5513"
             style="fill:#ffffff;fill-opacity:1;stroke:none;stroke-width:0.1389751"
             transform="matrix(2.0159791,0,0,2.0159791,326.70985,122.97606)">
            <path
               id="path5503"
               style="font-style:normal;font-variant:normal;font-weight:normal;font-stretch:normal;font-size:16.93333244px;font-family:Consolas;-inkscape-font-specification:'Consolas, Normal';font-variant-ligatures:normal;font-variant-caps:normal;font-variant-numeric:normal;font-feature-settings:normal;text-align:start;writing-mode:lr-tb;text-anchor:start;fill:#ffffff;fill-opacity:1;stroke:none;stroke-width:0.1389751"
               d="M 6.4574867,292.65919 5.5562498,293.56869 4.3772161e-8,288.93022 5.5562498,284.29174 l 0.9012369,0.91777 -4.5061847,3.70417 z" />
            <path
               id="path5505"
               style="font-style:normal;font-variant:normal;font-weight:normal;font-stretch:normal;font-size:16.93333244px;font-family:'Segoe UI Emoji';-inkscape-font-specification:'Segoe UI Emoji, Normal';font-variant-ligatures:normal;font-variant-caps:normal;font-variant-numeric:normal;font-feature-settings:normal;text-align:start;writing-mode:lr-tb;text-anchor:start;fill:#ffffff;fill-opacity:1;stroke:none;stroke-width:0.1389751"
               d="m 29.327407,277.98308 v 3.56361 q 0,0.28939 -0.09095,0.55397 -0.08268,0.25631 -0.239779,0.47956 -0.157096,0.21497 -0.380338,0.3886 -0.214974,0.16537 -0.479558,0.26459 v 0.69453 q 0,0.85163 -0.37207,1.5875 -0.37207,0.73587 -1.041797,1.25677 0.248047,0.24805 0.463021,0.48782 0.223242,0.23151 0.380339,0.48783 0.165364,0.25632 0.256315,0.55397 0.09922,0.29766 0.09922,0.678 0,0.23977 -0.04961,0.47129 0.264583,0.51263 0.264583,1.09967 0,0.61185 -0.248047,1.05833 -0.248046,0.43822 -0.669726,0.8599 l -4.530989,4.53099 h -12.37754 v -4.15892 l 11.294401,-11.2944 q 0.272851,0.30592 0.545703,0.59531 0.28112,0.28939 0.504362,0.60358 0.223242,0.31419 0.363802,0.678 0.148828,0.35553 0.148828,0.80201 0,0.23978 -0.04961,0.47129 l 0.05788,0.1323 0.314193,-0.30593 h 1.083138 v -1.29811 q -0.272852,-0.0992 -0.496094,-0.26458 -0.214974,-0.16537 -0.37207,-0.38034 -0.148828,-0.22325 -0.239779,-0.47956 -0.08268,-0.26458 -0.08268,-0.55397 v -3.56361 z m -2.372981,12.57598 q 0,-0.19017 -0.06615,-0.38861 l -2.017448,2.02572 -1.314648,-1.31465 -3.629753,3.62975 q -0.05788,0.0579 -0.132291,0.0827 -0.07441,0.0248 -0.148829,0.0248 -0.165364,0 -0.297656,-0.12403 -0.124023,-0.12402 -0.124023,-0.28938 0,-0.0744 0.0248,-0.1571 0.03307,-0.0744 0.08268,-0.12402 l 4.646744,-4.64675 q 0.248047,-0.24804 0.42168,-0.48782 0.173633,-0.23978 0.173633,-0.61185 0,-0.19017 -0.06615,-0.38861 -0.03307,0.0496 -0.173633,0.19844 -0.14056,0.14883 -0.338997,0.35553 -0.198438,0.19844 -0.438216,0.42995 -0.231511,0.23151 -0.446485,0.43822 -0.206705,0.2067 -0.380338,0.37207 -0.165365,0.16536 -0.231511,0.23151 -0.338997,-0.3142 -0.661458,-0.64492 -0.322461,-0.33073 -0.65319,-0.66146 l -4.820377,4.82037 q -0.04961,0.0496 -0.132292,0.0827 -0.07441,0.0248 -0.148828,0.0248 -0.173633,0 -0.297656,-0.12402 -0.124024,-0.12403 -0.124024,-0.29766 0,-0.0744 0.02481,-0.14883 0.02481,-0.0744 0.08268,-0.13229 l 5.83737,-5.83737 q 0.124023,-0.12402 0.23151,-0.23978 0.107487,-0.11575 0.190169,-0.23977 0.08268,-0.1323 0.124024,-0.28112 0.04961,-0.14883 0.04961,-0.339 0,-0.1819 -0.06615,-0.38034 l -2.017448,2.02572 -1.314648,-1.31465 -7.300846,7.30911 v 2.37298 h 10.69082 l 4.167187,-4.15892 q 0.239779,-0.23977 0.413412,-0.47955 0.181901,-0.24805 0.181901,-0.61185 z m 1.182356,-11.38535 h -3.563606 v 2.37298 q 0,0.19844 0.07441,0.32246 0.08268,0.11575 0.206706,0.1819 0.124023,0.0579 0.281119,0.0744 0.157097,0.0165 0.322461,0.0165 h 0.305925 v 1.19063 h 1.190625 V 282.142 h 0.314192 q 0.157097,0 0.314193,-0.0165 0.157096,-0.0165 0.28112,-0.0744 0.124023,-0.0661 0.198437,-0.1819 0.07441,-0.12402 0.07441,-0.32246 z m -3.786848,7.4414 q 0,-0.14883 -0.04134,-0.31419 h 0.264584 q 0.496093,0 0.926041,-0.1819 0.438216,-0.19017 0.760677,-0.51263 0.322461,-0.32246 0.504362,-0.75241 0.19017,-0.42995 0.19017,-0.92604 h -1.190625 v 0.59531 q 0,0.24805 -0.09922,0.46302 -0.09095,0.21498 -0.256315,0.38034 -0.157096,0.1571 -0.37207,0.24805 -0.214974,0.0909 -0.463021,0.0909 h -0.595313 l -2.372981,2.38125 0.892968,0.89297 1.480013,-1.48829 q 0.372071,-0.37207 0.372071,-0.87643 z m -5.126302,-0.9095 0.892968,0.89297 1.488282,-1.48002 q 0.173632,-0.17363 0.264583,-0.41341 0.09922,-0.23978 0.09922,-0.47956 0,-0.24804 -0.09922,-0.47955 -0.09095,-0.23978 -0.264583,-0.41341 z m 7.499283,3.27422 q 0,-0.52917 -0.363802,-0.89297 l -2.38125,2.38125 0.892969,0.8847 1.488281,-1.48002 q 0.173633,-0.17363 0.264583,-0.41341 0.09922,-0.23978 0.09922,-0.47955 z" />
            <path
               id="path5507"
               style="font-style:normal;font-variant:normal;font-weight:normal;font-stretch:normal;font-size:16.93333244px;font-family:Consolas;-inkscape-font-specification:'Consolas, Normal';font-variant-ligatures:normal;font-variant-caps:normal;font-variant-numeric:normal;font-feature-settings:normal;text-align:start;writing-mode:lr-tb;text-anchor:start;fill:#ffffff;fill-opacity:1;stroke:none;stroke-width:0.1389751"
               d="m 33.172133,285.20951 0.892969,-0.91777 5.556249,4.63848 -5.556249,4.63847 -0.892969,-0.9095 4.506185,-3.71244 z" />
          </g>
          <g
             aria-label="styled"
             style="font-style:normal;font-variant:normal;font-weight:bold;font-stretch:normal;font-size:11.64166641px;line-height:1.25;font-family:'Open Sans';-inkscape-font-specification:'Open Sans, Bold';font-variant-ligatures:normal;font-variant-caps:normal;font-variant-numeric:normal;font-feature-settings:normal;text-align:start;letter-spacing:0px;word-spacing:0px;writing-mode:lr-tb;text-anchor:start;fill:#ffffff;fill-opacity:1;stroke:none;stroke-width:0.07412855"
             id="text5575">
            <path
               d="m 330.68633,752.65294 q 0,0.97772 -0.68213,1.48931 -0.67644,0.5116 -2.02933,0.5116 -0.6935,0 -1.18236,-0.0966 -0.48886,-0.091 -0.91519,-0.27285 v -1.43247 q 0.48318,0.22738 1.08572,0.38086 0.60823,0.15348 1.06867,0.15348 0.94361,0 0.94361,-0.54571 0,-0.20464 -0.12505,-0.32969 -0.12506,-0.13074 -0.43202,-0.28991 -0.30696,-0.16484 -0.81855,-0.38085 -0.73329,-0.30696 -1.08004,-0.56844 -0.34107,-0.26149 -0.50023,-0.59687 -0.15348,-0.34106 -0.15348,-0.8356 0,-0.84698 0.65371,-1.30742 0.65939,-0.46612 1.86449,-0.46612 1.14825,0 2.23397,0.50023 l -0.52297,1.25057 q -0.47749,-0.20464 -0.89245,-0.33538 -0.41496,-0.13074 -0.84698,-0.13074 -0.76739,0 -0.76739,0.41496 0,0.23306 0.24443,0.40359 0.25011,0.17053 1.08572,0.50591 0.74466,0.30128 1.09141,0.56276 0.34674,0.26148 0.51159,0.60255 0.16485,0.34106 0.16485,0.81287 z"
               style="font-style:normal;font-variant:normal;font-weight:bold;font-stretch:normal;font-size:11.64166641px;font-family:'Open Sans';-inkscape-font-specification:'Open Sans, Bold';font-variant-ligatures:normal;font-variant-caps:normal;font-variant-numeric:normal;font-feature-settings:normal;text-align:start;writing-mode:lr-tb;text-anchor:start;fill:#ffffff;fill-opacity:1;stroke-width:0.07412855"
               id="path5623" />
            <path
               d="m 334.72794,753.27254 q 0.45476,0 1.09141,-0.19896 v 1.29036 q -0.64802,0.28991 -1.59163,0.28991 -1.04025,0 -1.51774,-0.52297 -0.47181,-0.52865 -0.47181,-1.58026 v -3.0639 h -0.82992 v -0.73329 l 0.95498,-0.57981 0.50023,-1.34152 h 1.10846 v 1.35289 h 1.77922 v 1.30173 h -1.77922 v 3.0639 q 0,0.36949 0.20464,0.5457 0.21032,0.17622 0.55138,0.17622 z"
               style="font-style:normal;font-variant:normal;font-weight:bold;font-stretch:normal;font-size:11.64166641px;font-family:'Open Sans';-inkscape-font-specification:'Open Sans, Bold';font-variant-ligatures:normal;font-variant-caps:normal;font-variant-numeric:normal;font-feature-settings:normal;text-align:start;writing-mode:lr-tb;text-anchor:start;fill:#ffffff;fill-opacity:1;stroke-width:0.07412855"
               id="path5625" />
            <path
               d="m 336.18884,748.18499 h 1.89859 l 1.19941,3.5755 q 0.15348,0.46612 0.21032,1.10277 h 0.0341 q 0.0625,-0.58549 0.24443,-1.10277 l 1.17667,-3.5755 h 1.8588 l -2.68872,7.16804 q -0.36949,0.99477 -1.0573,1.48932 -0.68213,0.49454 -1.59732,0.49454 -0.44907,0 -0.88108,-0.0966 v -1.37562 q 0.31264,0.0739 0.68212,0.0739 0.46044,0 0.80151,-0.28423 0.34674,-0.27853 0.54001,-0.84697 l 0.10232,-0.31264 z"
               style="font-style:normal;font-variant:normal;font-weight:bold;font-stretch:normal;font-size:11.64166641px;font-family:'Open Sans';-inkscape-font-specification:'Open Sans, Bold';font-variant-ligatures:normal;font-variant-caps:normal;font-variant-numeric:normal;font-feature-settings:normal;text-align:start;writing-mode:lr-tb;text-anchor:start;fill:#ffffff;fill-opacity:1;stroke-width:0.07412855"
               id="path5627" />
            <path
               d="m 345.44874,754.54016 h -1.73375 v -8.84494 h 1.73375 z"
               style="font-style:normal;font-variant:normal;font-weight:bold;font-stretch:normal;font-size:11.64166641px;font-family:'Open Sans';-inkscape-font-specification:'Open Sans, Bold';font-variant-ligatures:normal;font-variant-caps:normal;font-variant-numeric:normal;font-feature-settings:normal;text-align:start;writing-mode:lr-tb;text-anchor:start;fill:#ffffff;fill-opacity:1;stroke-width:0.07412855"
               id="path5629" />
            <path
               d="m 349.89394,749.29914 q -0.55139,0 -0.86403,0.35243 -0.31264,0.34675 -0.35812,0.98909 h 2.43293 q -0.0114,-0.64234 -0.33538,-0.98909 -0.32401,-0.35243 -0.8754,-0.35243 z m 0.24443,5.35471 q -1.53479,0 -2.39882,-0.84698 -0.86403,-0.84697 -0.86403,-2.39882 0,-1.59732 0.79582,-2.46703 0.8015,-0.8754 2.21123,-0.8754 1.34721,0 2.09755,0.7674 0.75034,0.76739 0.75034,2.12028 v 0.84129 H 348.632 q 0.0284,0.73898 0.4377,1.15394 0.40928,0.41496 1.14825,0.41496 0.57413,0 1.08573,-0.11937 0.51159,-0.11938 1.06866,-0.38086 v 1.34152 q -0.45475,0.22738 -0.97203,0.33538 -0.51728,0.11369 -1.26194,0.11369 z"
               style="font-style:normal;font-variant:normal;font-weight:bold;font-stretch:normal;font-size:11.64166641px;font-family:'Open Sans';-inkscape-font-specification:'Open Sans, Bold';font-variant-ligatures:normal;font-variant-caps:normal;font-variant-numeric:normal;font-feature-settings:normal;text-align:start;writing-mode:lr-tb;text-anchor:start;fill:#ffffff;fill-opacity:1;stroke-width:0.07412855"
               id="path5631" />
            <path
               d="m 356.16384,754.65385 q -1.11983,0 -1.76216,-0.86972 -0.63666,-0.86971 -0.63666,-2.41018 0,-1.56322 0.64803,-2.43293 0.6537,-0.8754 1.79627,-0.8754 1.19941,0 1.83038,0.93224 h 0.0568 q -0.13074,-0.71055 -0.13074,-1.26762 v -2.03502 h 1.73943 v 8.84494 h -1.33015 l -0.33538,-0.82424 h -0.0739 q -0.59118,0.93793 -1.80196,0.93793 z m 0.60823,-1.38131 q 0.66508,0 0.97204,-0.38654 0.31264,-0.38654 0.34106,-1.3131 v -0.18758 q 0,-1.0232 -0.31832,-1.46658 -0.31265,-0.44339 -1.0232,-0.44339 -0.57981,0 -0.90382,0.49455 -0.31832,0.48886 -0.31832,1.42678 0,0.93793 0.32401,1.40974 0.32401,0.46612 0.92655,0.46612 z"
               style="font-style:normal;font-variant:normal;font-weight:bold;font-stretch:normal;font-size:11.64166641px;font-family:'Open Sans';-inkscape-font-specification:'Open Sans, Bold';font-variant-ligatures:normal;font-variant-caps:normal;font-variant-numeric:normal;font-feature-settings:normal;text-align:start;writing-mode:lr-tb;text-anchor:start;fill:#ffffff;fill-opacity:1;stroke-width:0.07412855"
               id="path5633" />
          </g>
          <g
             aria-label="components"
             style="font-style:normal;font-variant:normal;font-weight:bold;font-stretch:normal;font-size:11.64166641px;line-height:1.25;font-family:'Open Sans';-inkscape-font-specification:'Open Sans, Bold';font-variant-ligatures:normal;font-variant-caps:normal;font-variant-numeric:normal;font-feature-settings:normal;text-align:start;letter-spacing:0px;word-spacing:0px;writing-mode:lr-tb;text-anchor:start;fill:#ffffff;fill-opacity:1;stroke:none;stroke-width:0.07412855"
             id="text5575-4">
            <path
               d="m 328.83425,767.41087 q -2.96726,0 -2.96726,-3.25717 0,-1.62005 0.80718,-2.47271 0.80719,-0.85835 2.31356,-0.85835 1.10277,0 1.97817,0.43202 l -0.5116,1.34152 q -0.40928,-0.16485 -0.76171,-0.26717 -0.35243,-0.10801 -0.70486,-0.10801 -1.35289,0 -1.35289,1.92133 0,1.86449 1.35289,1.86449 0.50022,0 0.92655,-0.13074 0.42633,-0.13643 0.85266,-0.42065 v 1.48363 q -0.42064,0.26717 -0.85266,0.36949 -0.42633,0.10232 -1.08003,0.10232 z"
               style="font-style:normal;font-variant:normal;font-weight:bold;font-stretch:normal;font-size:11.64166641px;font-family:'Open Sans';-inkscape-font-specification:'Open Sans, Bold';font-variant-ligatures:normal;font-variant-caps:normal;font-variant-numeric:normal;font-feature-settings:normal;text-align:start;writing-mode:lr-tb;text-anchor:start;fill:#ffffff;fill-opacity:1;stroke-width:0.07412855"
               id="path5602" />
            <path
               d="m 333.61483,764.10823 q 0,0.94361 0.30696,1.42678 0.31264,0.48318 1.01183,0.48318 0.69349,0 0.99477,-0.47749 0.30695,-0.48318 0.30695,-1.43247 0,-0.94361 -0.30695,-1.41542 -0.30696,-0.47181 -1.00614,-0.47181 -0.6935,0 -1.00046,0.47181 -0.30696,0.46612 -0.30696,1.41542 z m 4.39405,0 q 0,1.55184 -0.81855,2.42724 -0.81856,0.8754 -2.27945,0.8754 -0.91519,0 -1.61437,-0.39791 -0.69919,-0.40359 -1.07436,-1.15393 -0.37517,-0.75035 -0.37517,-1.7508 0,-1.55753 0.81287,-2.42156 0.81287,-0.86403 2.28513,-0.86403 0.91519,0 1.61438,0.39791 0.69918,0.39791 1.07435,1.14256 0.37517,0.74466 0.37517,1.74512 z"
               style="font-style:normal;font-variant:normal;font-weight:bold;font-stretch:normal;font-size:11.64166641px;font-family:'Open Sans';-inkscape-font-specification:'Open Sans, Bold';font-variant-ligatures:normal;font-variant-caps:normal;font-variant-numeric:normal;font-feature-settings:normal;text-align:start;writing-mode:lr-tb;text-anchor:start;fill:#ffffff;fill-opacity:1;stroke-width:0.07412855"
               id="path5604" />
            <path
               d="m 345.13144,767.29718 h -1.73374 v -3.71192 q 0,-0.68781 -0.23306,-1.02888 -0.22738,-0.34674 -0.72192,-0.34674 -0.66508,0 -0.96635,0.48885 -0.30128,0.48886 -0.30128,1.60869 v 2.99 h -1.73374 v -6.35517 h 1.32447 l 0.23306,0.81287 h 0.0966 q 0.2558,-0.4377 0.73898,-0.68213 0.48317,-0.25011 1.10846,-0.25011 1.42678,0 1.93269,0.93224 h 0.15348 q 0.2558,-0.44338 0.75034,-0.68781 0.50023,-0.24443 1.12552,-0.24443 1.08003,0 1.63142,0.55707 0.55707,0.55139 0.55707,1.77354 v 4.14393 h -1.73942 v -3.71192 q 0,-0.68781 -0.23307,-1.02888 -0.22737,-0.34674 -0.72192,-0.34674 -0.63665,0 -0.95498,0.45475 -0.31264,0.45475 -0.31264,1.44384 z"
               style="font-style:normal;font-variant:normal;font-weight:bold;font-stretch:normal;font-size:11.64166641px;font-family:'Open Sans';-inkscape-font-specification:'Open Sans, Bold';font-variant-ligatures:normal;font-variant-caps:normal;font-variant-numeric:normal;font-feature-settings:normal;text-align:start;writing-mode:lr-tb;text-anchor:start;fill:#ffffff;fill-opacity:1;stroke-width:0.07412855"
               id="path5606" />
            <path
               d="m 354.3686,767.41087 q -1.11982,0 -1.75648,-0.81287 h -0.0909 q 0.0909,0.79582 0.0909,0.92087 v 2.57504 h -1.73374 v -9.1519 h 1.40973 l 0.24443,0.82424 h 0.0796 q 0.60823,-0.94361 1.80196,-0.94361 1.12551,0 1.76217,0.86971 0.63665,0.86972 0.63665,2.41588 0,1.01751 -0.30127,1.76785 -0.29559,0.75034 -0.84698,1.14256 -0.55139,0.39223 -1.29605,0.39223 z m -0.51159,-5.20123 q -0.64234,0 -0.93793,0.3979 -0.29559,0.39223 -0.30696,1.30173 v 0.18759 q 0,1.02319 0.30128,1.46658 0.30695,0.44338 0.96635,0.44338 1.1653,0 1.1653,-1.92133 0,-0.93793 -0.28991,-1.40405 -0.28422,-0.4718 -0.89813,-0.4718 z"
               style="font-style:normal;font-variant:normal;font-weight:bold;font-stretch:normal;font-size:11.64166641px;font-family:'Open Sans';-inkscape-font-specification:'Open Sans, Bold';font-variant-ligatures:normal;font-variant-caps:normal;font-variant-numeric:normal;font-feature-settings:normal;text-align:start;writing-mode:lr-tb;text-anchor:start;fill:#ffffff;fill-opacity:1;stroke-width:0.07412855"
               id="path5608" />
            <path
               d="m 359.62668,764.10823 q 0,0.94361 0.30696,1.42678 0.31264,0.48318 1.01182,0.48318 0.6935,0 0.99477,-0.47749 0.30696,-0.48318 0.30696,-1.43247 0,-0.94361 -0.30696,-1.41542 -0.30695,-0.47181 -1.00614,-0.47181 -0.69349,0 -1.00045,0.47181 -0.30696,0.46612 -0.30696,1.41542 z m 4.39405,0 q 0,1.55184 -0.81856,2.42724 -0.81855,0.8754 -2.27944,0.8754 -0.91519,0 -1.61438,-0.39791 -0.69918,-0.40359 -1.07435,-1.15393 -0.37517,-0.75035 -0.37517,-1.7508 0,-1.55753 0.81287,-2.42156 0.81287,-0.86403 2.28513,-0.86403 0.91519,0 1.61437,0.39791 0.69919,0.39791 1.07436,1.14256 0.37517,0.74466 0.37517,1.74512 z"
               style="font-style:normal;font-variant:normal;font-weight:bold;font-stretch:normal;font-size:11.64166641px;font-family:'Open Sans';-inkscape-font-specification:'Open Sans, Bold';font-variant-ligatures:normal;font-variant-caps:normal;font-variant-numeric:normal;font-feature-settings:normal;text-align:start;writing-mode:lr-tb;text-anchor:start;fill:#ffffff;fill-opacity:1;stroke-width:0.07412855"
               id="path5610" />
            <path
               d="m 371.31951,767.29718 h -1.73375 v -3.71192 q 0,-0.68781 -0.24443,-1.02888 -0.24443,-0.34674 -0.77876,-0.34674 -0.72761,0 -1.05162,0.48885 -0.32401,0.48318 -0.32401,1.60869 v 2.99 h -1.73374 v -6.35517 h 1.32446 l 0.23307,0.81287 h 0.0966 q 0.28991,-0.46043 0.79582,-0.69349 0.51159,-0.23875 1.15962,-0.23875 1.10846,0 1.68258,0.60255 0.57413,0.59686 0.57413,1.72806 z"
               style="font-style:normal;font-variant:normal;font-weight:bold;font-stretch:normal;font-size:11.64166641px;font-family:'Open Sans';-inkscape-font-specification:'Open Sans, Bold';font-variant-ligatures:normal;font-variant-caps:normal;font-variant-numeric:normal;font-feature-settings:normal;text-align:start;writing-mode:lr-tb;text-anchor:start;fill:#ffffff;fill-opacity:1;stroke-width:0.07412855"
               id="path5612" />
            <path
               d="m 375.74766,762.05616 q -0.55139,0 -0.86403,0.35243 -0.31264,0.34675 -0.35812,0.98909 h 2.43293 q -0.0114,-0.64234 -0.33538,-0.98909 -0.32401,-0.35243 -0.8754,-0.35243 z m 0.24443,5.35471 q -1.53479,0 -2.39882,-0.84698 -0.86403,-0.84698 -0.86403,-2.39882 0,-1.59732 0.79582,-2.46703 0.8015,-0.8754 2.21123,-0.8754 1.34721,0 2.09755,0.7674 0.75034,0.76739 0.75034,2.12028 v 0.84129 h -4.09846 q 0.0284,0.73897 0.4377,1.15394 0.40928,0.41496 1.14825,0.41496 0.57413,0 1.08572,-0.11937 0.5116,-0.11938 1.06867,-0.38086 v 1.34152 q -0.45475,0.22738 -0.97203,0.33538 -0.51728,0.11369 -1.26194,0.11369 z"
               style="font-style:normal;font-variant:normal;font-weight:bold;font-stretch:normal;font-size:11.64166641px;font-family:'Open Sans';-inkscape-font-specification:'Open Sans, Bold';font-variant-ligatures:normal;font-variant-caps:normal;font-variant-numeric:normal;font-feature-settings:normal;text-align:start;writing-mode:lr-tb;text-anchor:start;fill:#ffffff;fill-opacity:1;stroke-width:0.07412855"
               id="path5614" />
            <path
               d="m 385.87159,767.29718 h -1.73375 v -3.71192 q 0,-0.68781 -0.24443,-1.02888 -0.24443,-0.34674 -0.77876,-0.34674 -0.7276,0 -1.05161,0.48885 -0.32402,0.48318 -0.32402,1.60869 v 2.99 h -1.73374 v -6.35517 h 1.32447 l 0.23306,0.81287 h 0.0966 q 0.28991,-0.46043 0.79582,-0.69349 0.5116,-0.23875 1.15962,-0.23875 1.10846,0 1.68258,0.60255 0.57413,0.59686 0.57413,1.72806 z"
               style="font-style:normal;font-variant:normal;font-weight:bold;font-stretch:normal;font-size:11.64166641px;font-family:'Open Sans';-inkscape-font-specification:'Open Sans, Bold';font-variant-ligatures:normal;font-variant-caps:normal;font-variant-numeric:normal;font-feature-settings:normal;text-align:start;writing-mode:lr-tb;text-anchor:start;fill:#ffffff;fill-opacity:1;stroke-width:0.07412855"
               id="path5616" />
            <path
               d="m 390.34522,766.02956 q 0.45475,0 1.0914,-0.19896 v 1.29036 q -0.64802,0.28991 -1.59163,0.28991 -1.04025,0 -1.51774,-0.52297 -0.4718,-0.52865 -0.4718,-1.58026 v -3.0639 h -0.82993 v -0.73329 l 0.95498,-0.57981 0.50023,-1.34152 h 1.10846 v 1.35289 h 1.77922 v 1.30173 h -1.77922 v 3.0639 q 0,0.36948 0.20464,0.5457 0.21032,0.17622 0.55139,0.17622 z"
               style="font-style:normal;font-variant:normal;font-weight:bold;font-stretch:normal;font-size:11.64166641px;font-family:'Open Sans';-inkscape-font-specification:'Open Sans, Bold';font-variant-ligatures:normal;font-variant-caps:normal;font-variant-numeric:normal;font-feature-settings:normal;text-align:start;writing-mode:lr-tb;text-anchor:start;fill:#ffffff;fill-opacity:1;stroke-width:0.07412855"
               id="path5618" />
            <path
               d="m 397.14945,765.40996 q 0,0.97771 -0.68213,1.48931 -0.67644,0.5116 -2.02933,0.5116 -0.6935,0 -1.18236,-0.0966 -0.48886,-0.0909 -0.91519,-0.27285 v -1.43247 q 0.48318,0.22738 1.08573,0.38086 0.60823,0.15348 1.06866,0.15348 0.94362,0 0.94362,-0.54571 0,-0.20464 -0.12506,-0.32969 -0.12506,-0.13074 -0.43202,-0.28991 -0.30695,-0.16485 -0.81855,-0.38085 -0.73329,-0.30696 -1.08004,-0.56844 -0.34106,-0.26149 -0.50023,-0.59687 -0.15348,-0.34106 -0.15348,-0.8356 0,-0.84698 0.65371,-1.30742 0.65939,-0.46612 1.86449,-0.46612 1.14825,0 2.23397,0.50023 l -0.52297,1.25057 q -0.47749,-0.20464 -0.89245,-0.33538 -0.41496,-0.13074 -0.84697,-0.13074 -0.7674,0 -0.7674,0.41496 0,0.23306 0.24443,0.40359 0.25011,0.17053 1.08572,0.50591 0.74466,0.30128 1.09141,0.56276 0.34675,0.26148 0.51159,0.60255 0.16485,0.34106 0.16485,0.81287 z"
               style="font-style:normal;font-variant:normal;font-weight:bold;font-stretch:normal;font-size:11.64166641px;font-family:'Open Sans';-inkscape-font-specification:'Open Sans, Bold';font-variant-ligatures:normal;font-variant-caps:normal;font-variant-numeric:normal;font-feature-settings:normal;text-align:start;writing-mode:lr-tb;text-anchor:start;fill:#ffffff;fill-opacity:1;stroke-width:0.07412855"
               id="path5620" />
          </g>
          <path
             style="color:#000000;font-style:normal;font-variant:normal;font-weight:normal;font-stretch:normal;font-size:medium;line-height:1.25;font-family:monospace;-inkscape-font-specification:'monospace, Normal';font-variant-ligatures:normal;font-variant-position:normal;font-variant-caps:normal;font-variant-numeric:normal;font-variant-alternates:normal;font-feature-settings:normal;text-indent:0;text-align:start;text-decoration:none;text-decoration-line:none;text-decoration-style:solid;text-decoration-color:#000000;letter-spacing:0px;word-spacing:0px;text-transform:none;writing-mode:lr-tb;direction:ltr;text-orientation:mixed;dominant-baseline:auto;baseline-shift:baseline;text-anchor:start;white-space:normal;shape-padding:0;clip-rule:nonzero;display:inline;overflow:visible;visibility:visible;opacity:1;isolation:auto;mix-blend-mode:normal;color-interpolation:sRGB;color-interpolation-filters:linearRGB;solid-color:#000000;solid-opacity:1;vector-effect:none;fill:#ffffff;fill-opacity:1;fill-rule:nonzero;stroke:none;stroke-width:1.58837044;stroke-linecap:butt;stroke-linejoin:miter;stroke-miterlimit:2;stroke-dasharray:none;stroke-dashoffset:0;stroke-opacity:1;paint-order:fill markers stroke;color-rendering:auto;image-rendering:auto;shape-rendering:auto;text-rendering:auto;enable-background:accumulate"
             d="m 312.87109,666.94531 v 0.75 111.31836 H 424.93945 V 666.94531 Z m 1.5,1.5 H 423.43945 V 777.51367 H 314.37109 Z"
             id="rect5595" />
        </g>
      </g>
    </g>
  </g>
</svg>
