<?xml version="1.0" encoding="UTF-8" standalone="no"?>
<svg
   xmlns:dc="http://purl.org/dc/elements/1.1/"
   xmlns:cc="http://creativecommons.org/ns#"
   xmlns:rdf="http://www.w3.org/1999/02/22-rdf-syntax-ns#"
   xmlns:svg="http://www.w3.org/2000/svg"
   xmlns="http://www.w3.org/2000/svg"
   xmlns:xlink="http://www.w3.org/1999/xlink"
   id="svg2"
   height="147.18401"
   width="199.229"
   viewBox="0 0 199.229 147.18401"
   version="1.0">
  <metadata
     id="metadata141">
    <rdf:RDF>
      <cc:Work
         rdf:about="">
        <dc:format>image/svg+xml</dc:format>
        <dc:type
           rdf:resource="http://purl.org/dc/dcmitype/StillImage" />
        <dc:title></dc:title>
      </cc:Work>
    </rdf:RDF>
  </metadata>
  <defs
     id="defs4">
    <linearGradient
       gradientUnits="userSpaceOnUse"
       id="WhiteTransparent">
      <stop
         offset="0"
         style="stop-color:#ffffff;stop-opacity:1"
         id="stop7" />
      <stop
         offset="1"
         style="stop-color:#ffffff;stop-opacity:0"
         id="stop9" />
    </linearGradient>
    <linearGradient
       gradientUnits="userSpaceOnUse"
       xlink:href="#WhiteTransparent"
       id="liquidSpecular"
       y2="76"
       x2="0"
       y1="128"
       x1="0" />
    <linearGradient
       gradientUnits="userSpaceOnUse"
       xlink:href="#WhiteTransparent"
       id="sideSpecular"
       y2="40"
       x2="60"
       y1="20"
       x1="80" />
    <clipPath
       id="clipoutline1">
      <path
         id="outline1"
         d="M 54.1,12.5 12.9,54.7 C -2.7,70.3 23,69 32.3,74.9 36.6,77.7 18.5,81.3 22.2,85 c 3.6,3.7 21.7,7.1 25.3,10.7 3.6,3.7 -7.3,7.6 -3.7,11.3 3.5,3.7 11.9,0.2 13.4,8.6 1.1,6.2 15.4,3.1 21.8,-2.2 4,-3.4 -6.9,-3.4 -3.3,-7.1 9,-9.1 17,-4.1 20.3,-12.5 1.8,-4.5 -13.6,-7.7 -9.5,-10.6 9.8,-6.9 45.8,-10.4 29.2,-27 L 73,12.5 c -5.3,-5 -14,-5 -18.9,0 z m -9.9,64.7 c 0.9,0 30.8,4 19.3,7.1 -4.4,1.2 -24.6,-7.1 -19.3,-7.1 z m 57.2,16.6 c 0,2.1 16.3,3.3 15.4,-0.5 -1.3,-6.4 -13.6,-5.9 -15.4,0.5 z m -69.5,11.1 c 3.7,3.2 9.3,-0.7 11.1,-5.2 -3.6,-4.7 -16.9,0.3 -11.1,5.2 z m 67.5,-6.7 c -4.6,4.2 0.8,8.6 5.3,5.7 1.2,-0.8 -0.1,-4.7 -5.3,-5.7 z" />
    </clipPath>
    <linearGradient
       gradientUnits="userSpaceOnUse"
       xlink:href="#linearGradient5785"
       id="linearGradient9175"
       y2="40"
       x2="60"
       y1="20"
       x1="82.118591" />
    <linearGradient
       gradientUnits="userSpaceOnUse"
       id="linearGradient5785">
      <stop
         offset="0"
         style="stop-color:#c0cdf9;stop-opacity:1"
         id="stop5787" />
      <stop
         offset="1"
         style="stop-color:#07092d;stop-opacity:0.28804347"
         id="stop5789" />
    </linearGradient>
    <filter
       style="color-interpolation-filters:sRGB"
       id="filter8490">
      <feGaussianBlur
         stdDeviation="2.4163949"
         id="feGaussianBlur8492" />
    </filter>
    <filter
       style="color-interpolation-filters:sRGB"
       id="filter6017-3">
      <feGaussianBlur
         stdDeviation="0.80546496"
         id="feGaussianBlur6019-9" />
    </filter>
    <filter
       style="color-interpolation-filters:sRGB"
       id="filter6031-0">
      <feGaussianBlur
         stdDeviation="3.4903482"
         id="feGaussianBlur6033-8" />
    </filter>
    <linearGradient
       gradientUnits="userSpaceOnUse"
       xlink:href="#linearGradient5785-8"
       id="linearGradient9175-3"
       y2="40"
       x2="60"
       y1="20"
       x1="82.118591" />
    <linearGradient
       gradientUnits="userSpaceOnUse"
       id="linearGradient5785-8">
      <stop
         offset="0"
         style="stop-color:#c0cdf9;stop-opacity:1"
         id="stop5787-7" />
      <stop
         offset="1"
         style="stop-color:#07092d;stop-opacity:0.28804347"
         id="stop5789-3" />
    </linearGradient>
    <clipPath
       id="clipPath9086-1">
      <use
         xlink:href="#outline1"
         height="300"
         width="400"
         y="0"
         x="0"
         style="opacity:0.25;fill:#ffffff;fill-opacity:1"
         id="use9088-0"
         transform="translate(1.0095461e-6)" />
    </clipPath>
    <filter
       style="color-interpolation-filters:sRGB"
       id="filter8490-0">
      <feGaussianBlur
         stdDeviation="2.4163949"
         id="feGaussianBlur8492-5" />
    </filter>
    <linearGradient
       gradientTransform="matrix(1.0030688,0,0,1.0030688,0.0026549,-1.8259471)"
       gradientUnits="userSpaceOnUse"
       xlink:href="#WhiteTransparent-3"
       id="shinySpecular-0"
       y2="60"
       x2="58"
       y1="35"
       x1="33" />
    <linearGradient
       gradientUnits="userSpaceOnUse"
       id="WhiteTransparent-3">
      <stop
         offset="0"
         style="stop-color:#ffffff;stop-opacity:1"
         id="stop7606-1" />
      <stop
         offset="1"
         style="stop-color:#ffffff;stop-opacity:0"
         id="stop7608-8" />
    </linearGradient>
    <linearGradient
       gradientTransform="matrix(0.9939405,0,0,0.9939405,0.38937111,-1.4450758)"
       gradientUnits="userSpaceOnUse"
       xlink:href="#WhiteTransparent-3"
       id="IcecapTip-0"
       y2="50"
       x2="90"
       y1="20"
       x1="60" />
    <radialGradient
       gradientTransform="matrix(0.82653639,0,0,0.55325059,-51.008057,-26.857373)"
       gradientUnits="userSpaceOnUse"
       xlink:href="#linearGradient8568-7"
       id="radialGradient9177-1"
       fy="250.89737"
       fx="116.31038"
       r="30.599579"
       cy="250.89737"
       cx="116.31038" />
    <linearGradient
       id="linearGradient8568-7">
      <stop
         offset="0"
         style="stop-color:#ffffff;stop-opacity:1"
         id="stop8570-9" />
      <stop
         offset="1"
         style="stop-color:#ffffff;stop-opacity:0"
         id="stop8572-1" />
    </linearGradient>
    <radialGradient
       gradientTransform="matrix(2.0032532,0,0,1.340898,-132.8752,-95.166065)"
       gradientUnits="userSpaceOnUse"
       xlink:href="#linearGradient8568-7"
       id="radialGradient8574-0"
       fy="251.99396"
       fx="132.44434"
       r="30.599579"
       cy="251.99396"
       cx="132.44434" />
    <filter
       style="color-interpolation-filters:sRGB"
       id="filter8732-3"
       x="-0.078079157"
       width="1.1561583"
       y="-0.11422065"
       height="1.2284414">
      <feGaussianBlur
         stdDeviation="1.9579068"
         id="feGaussianBlur8734-5" />
    </filter>
    <radialGradient
       gradientTransform="matrix(0.526439,0,0,0.222872,-11.261856,35.925817)"
       gradientUnits="userSpaceOnUse"
       xlink:href="#linearGradient8738-4"
       id="radialGradient8744-9"
       fy="168.5"
       fx="210.25"
       r="34.25"
       cy="168.5"
       cx="210.25" />
    <linearGradient
       id="linearGradient8738-4">
      <stop
         offset="0"
         style="stop-color:#ffffff;stop-opacity:1"
         id="stop8740-8" />
      <stop
         offset="1"
         style="stop-color:#ffffff;stop-opacity:0"
         id="stop8742-4" />
    </linearGradient>
    <radialGradient
       gradientTransform="matrix(1,0,0,0.4233577,0,97.164234)"
       gradientUnits="userSpaceOnUse"
       xlink:href="#linearGradient8738-4"
       id="radialGradient8768-6"
       fy="182.08189"
       fx="217.5"
       r="34.25"
       cy="182.08189"
       cx="217.5" />
    <filter
       style="color-interpolation-filters:sRGB"
       id="filter8764-9"
       x="-0.074262142"
       width="1.1485243"
       y="-0.1754123"
       height="1.3508246">
      <feGaussianBlur
         stdDeviation="2.1195652"
         id="feGaussianBlur8766-2" />
    </filter>
    <linearGradient
       gradientTransform="matrix(0.526439,0,0,0.526439,-11.919904,-16.146493)"
       gradientUnits="userSpaceOnUse"
       xlink:href="#linearGradient8866-0"
       id="linearGradient8912-9"
       y2="201.5"
       x2="231.75"
       y1="195.1875"
       x1="231.625" />
    <linearGradient
       id="linearGradient8866-0">
      <stop
         offset="0"
         style="stop-color:#ffffff;stop-opacity:1"
         id="stop8868-3" />
      <stop
         offset="1"
         style="stop-color:#ffffff;stop-opacity:0"
         id="stop8870-0" />
    </linearGradient>
    <linearGradient
       gradientUnits="userSpaceOnUse"
       xlink:href="#linearGradient8866-0"
       id="linearGradient8910-3"
       y2="200.07138"
       x2="231.37646"
       y1="195.62132"
       x1="231.37646" />
    <filter
       style="color-interpolation-filters:sRGB"
       id="filter8906-3"
       x="-0.085441329"
       width="1.1708827"
       y="-0.27823201"
       height="1.556464">
      <feGaussianBlur
         stdDeviation="0.56515877"
         id="feGaussianBlur8908-7" />
    </filter>
    <radialGradient
       gradientTransform="matrix(1,0,0,0.1477455,0,174.56924)"
       gradientUnits="userSpaceOnUse"
       xlink:href="#linearGradient8916-4"
       id="radialGradient8922-9"
       fy="204.83229"
       fx="228.21875"
       r="14.09375"
       cy="204.83229"
       cx="228.21875" />
    <linearGradient
       id="linearGradient8916-4">
      <stop
         offset="0"
         style="stop-color:#ffffff;stop-opacity:1"
         id="stop8918-9" />
      <stop
         offset="1"
         style="stop-color:#ffffff;stop-opacity:0"
         id="stop8920-9" />
    </linearGradient>
    <filter
       style="color-interpolation-filters:sRGB"
       id="filter8980-1"
       x="-0.069862768"
       width="1.1397254"
       y="-0.47285891"
       height="1.9457178">
      <feGaussianBlur
         stdDeviation="0.82052366"
         id="feGaussianBlur8982-9" />
    </filter>
    <linearGradient
       gradientTransform="matrix(0.20301394,-0.10293298,0.23806545,0.46953471,6.1092954,28.657958)"
       gradientUnits="userSpaceOnUse"
       xlink:href="#linearGradient8866-0"
       id="linearGradient8990-4"
       y2="201.5"
       x2="231.75"
       y1="195.1875"
       x1="231.625" />
    <linearGradient
       gradientUnits="userSpaceOnUse"
       xlink:href="#linearGradient8866-0"
       id="linearGradient8992-2"
       y2="200.07138"
       x2="231.37646"
       y1="195.62132"
       x1="231.37646" />
    <radialGradient
       gradientTransform="matrix(1,0,0,0.1477455,0,174.56924)"
       gradientUnits="userSpaceOnUse"
       xlink:href="#linearGradient8916-4"
       id="radialGradient8994-0"
       fy="204.83229"
       fx="228.21875"
       r="14.09375"
       cy="204.83229"
       cx="228.21875" />
    <radialGradient
       gradientTransform="matrix(0.526439,0,0,0.2143051,-11.261856,45.715427)"
       gradientUnits="userSpaceOnUse"
       xlink:href="#linearGradient8998-5"
       id="radialGradient9004-6"
       fy="187.86935"
       fx="89.875"
       r="22.75"
       cy="187.86935"
       cx="89.875" />
    <linearGradient
       id="linearGradient8998-5">
      <stop
         offset="0"
         style="stop-color:#ffffff;stop-opacity:0.33004925"
         id="stop9000-9" />
      <stop
         offset="1"
         style="stop-color:#ffffff;stop-opacity:0"
         id="stop9002-5" />
    </linearGradient>
    <linearGradient
       gradientUnits="userSpaceOnUse"
       xlink:href="#linearGradient8866-0"
       id="linearGradient9023-6"
       y2="201.5"
       x2="231.75"
       y1="195.1875"
       x1="231.625" />
    <linearGradient
       gradientUnits="userSpaceOnUse"
       xlink:href="#linearGradient8866-0"
       id="linearGradient9025-1"
       y2="200.07138"
       x2="231.37646"
       y1="195.62132"
       x1="231.37646" />
    <radialGradient
       gradientTransform="matrix(1.1850746,-0.3283582,0.1228557,0.4433973,-45.068314,152.92161)"
       gradientUnits="userSpaceOnUse"
       xlink:href="#linearGradient9040-4"
       id="radialGradient9046-1"
       fy="230.83626"
       fx="90.28125"
       r="10.46875"
       cy="230.83626"
       cx="90.28125" />
    <linearGradient
       id="linearGradient9040-4">
      <stop
         offset="0"
         style="stop-color:#ffffff;stop-opacity:1"
         id="stop9042-3" />
      <stop
         offset="1"
         style="stop-color:#ffffff;stop-opacity:0"
         id="stop9044-7" />
    </linearGradient>
    <filter
       style="color-interpolation-filters:sRGB"
       id="filter9068-2"
       x="-0.076179281"
       width="1.1523587"
       y="-0.1655701"
       height="1.3311402">
      <feGaussianBlur
         stdDeviation="0.66458488"
         id="feGaussianBlur9070-7" />
    </filter>
    <radialGradient
       gradientTransform="matrix(1.7221535,0,0,1.6949765,-49.39526,-14.078057)"
       gradientUnits="userSpaceOnUse"
       xlink:href="#linearGradient9286-3"
       id="radialGradient11553-3"
       fy="21.225746"
       fx="68.39994"
       r="54.783398"
       cy="21.225746"
       cx="68.39994" />
    <linearGradient
       id="linearGradient9286-3">
      <stop
         offset="0"
         style="stop-color:#ffffff;stop-opacity:1"
         id="stop9288-9" />
      <stop
         offset="1"
         style="stop-color:#ffffff;stop-opacity:0"
         id="stop9290-2" />
    </linearGradient>
    <filter
       style="color-interpolation-filters:sRGB"
       id="filter9298-4">
      <feGaussianBlur
         stdDeviation="0.32610678"
         id="feGaussianBlur9300-4" />
    </filter>
    <linearGradient
       gradientUnits="userSpaceOnUse"
       xlink:href="#linearGradient5899-9"
       id="linearGradient5905-4"
       y2="223.5"
       x2="153.5"
       y1="208.16444"
       x1="95.5" />
    <linearGradient
       id="linearGradient5899-9">
      <stop
         offset="0"
         style="stop-color:#ffffff;stop-opacity:1"
         id="stop5901-9" />
      <stop
         offset="1"
         style="stop-color:#ffffff;stop-opacity:0"
         id="stop5903-3" />
    </linearGradient>
    <filter
       style="color-interpolation-filters:sRGB"
       id="filter5983-8"
       x="-0.082508981"
       width="1.165018"
       y="-0.12233575"
       height="1.2446715">
      <feGaussianBlur
         stdDeviation="3.6868363"
         id="feGaussianBlur5985-3" />
    </filter>
    <linearGradient
       gradientTransform="matrix(0.87989328,0,0,0.87989328,5.5352149,7.7283362)"
       gradientUnits="userSpaceOnUse"
       xlink:href="#linearGradient5793-9"
       id="linearGradient5801-2"
       y2="84.480316"
       x2="53.63158"
       y1="76.246338"
       x1="57.225197" />
    <linearGradient
       id="linearGradient5793-9">
      <stop
         offset="0"
         style="stop-color:#eeeeec;stop-opacity:1"
         id="stop5795-5" />
      <stop
         offset="1"
         style="stop-color:#eeeeec;stop-opacity:0"
         id="stop5797-4" />
    </linearGradient>
    <radialGradient
       gradientTransform="matrix(1.3515234,0,0,1.7175707,-63.705646,-153.95568)"
       gradientUnits="userSpaceOnUse"
       xlink:href="#linearGradient5805-9"
       id="radialGradient5811-3"
       fy="214.55121"
       fx="181.22731"
       r="22.466398"
       cy="214.55121"
       cx="181.22731" />
    <linearGradient
       id="linearGradient5805-9">
      <stop
         offset="0"
         style="stop-color:#ffffff;stop-opacity:1"
         id="stop5807-4" />
      <stop
         offset="1"
         style="stop-color:#ffffff;stop-opacity:0"
         id="stop5809-9" />
    </linearGradient>
    <filter
       style="color-interpolation-filters:sRGB"
       id="filter5845-5">
      <feGaussianBlur
         stdDeviation="1.2409356"
         id="feGaussianBlur5847-5" />
    </filter>
    <linearGradient
       gradientTransform="matrix(0.48980523,0,0,0.48980523,-5.574658,-11.10868)"
       gradientUnits="userSpaceOnUse"
       xlink:href="#WhiteTransparent-3"
       id="linearGradient5822-7"
       y2="187.65974"
       x2="82.754066"
       y1="180.47572"
       x1="73.712105" />
    <linearGradient
       id="linearGradient10981-3-9">
      <stop
         offset="0"
         style="stop-color:#729fcf;stop-opacity:1"
         id="stop10983-2-0" />
      <stop
         offset="1"
         style="stop-color:#729fcf;stop-opacity:0"
         id="stop10985-3-7" />
    </linearGradient>
    <filter
       style="color-interpolation-filters:sRGB"
       id="filter10997-7-2">
      <feGaussianBlur
         stdDeviation="2.7696726"
         id="feGaussianBlur10999-0-7" />
    </filter>
    <linearGradient
       gradientTransform="translate(-130.16572,-83.352786)"
       gradientUnits="userSpaceOnUse"
       xlink:href="#linearGradient10981-3-9"
       id="linearGradient1539"
       y2="144.5"
       x2="153.70045"
       y1="217.5"
       x1="180.81293" />
  </defs>
  <style
     id="style26"
     type="text/css" />
  <g
     transform="translate(53.375372,-211.2821)"
     id="g1008">
    <path
       style="fill:#ffffff;fill-opacity:1;stroke-width:0.99394047"
       d="m 43.461489,211.28222 c -3.429095,0 -6.807033,1.24171 -9.242188,3.72656 L -6.7318702,256.9541 c -15.5054728,15.50547 10.039557,14.21387 19.2832032,20.07812 4.273944,2.78303 -13.7166432,6.35953 -10.0390632,10.03711 3.578186,3.67758 21.5682982,7.05853 25.1464842,10.63672 3.578187,3.67758 -7.25592,7.55289 -3.677734,11.23047 3.478792,3.67758 11.827447,0.19973 13.31836,8.54883 1.093333,6.16243 15.306748,3.08038 21.667968,-2.1875 3.975762,-3.3794 -6.857483,-3.37906 -3.279297,-7.05664 8.945464,-9.04487 16.897731,-4.07473 20.177735,-12.42383 1.789093,-4.47273 -13.518516,-7.65468 -9.44336,-10.53711 9.740617,-6.85819 45.522844,-10.33652 29.023436,-26.83594 L 53.004458,215.00878 c -2.633943,-2.48485 -6.113874,-3.72656 -9.542969,-3.72656 z m 0.349609,3.98828 c 2.460003,0.0124 4.919892,0.93161 6.708985,2.72071 l 16.201171,16.5 c 1.49091,1.49091 1.49025,4.57225 0.595704,5.46679 l -8.050782,-6.56054 -1.589843,9.64062 -6.660157,-3.57812 -10.833984,6.85937 -3.578125,-14.41211 -5.765625,12.52344 -14.412109,-0.0996 c -2.783033,0 -2.384381,-2.8832 0.498047,-5.76563 5.665461,-6.26182 16.698942,-16.89663 20.177734,-20.57421 1.789092,-1.83879 4.248981,-2.73313 6.708984,-2.72071 z m -16.822265,63.70508 c 1.60918,-0.0129 3.435133,0.0731 5.28125,0.26953 l 0.255859,1.53516 c 0,0 1.420662,-1.44485 1.697266,-1.28516 1.324279,0.76458 4.21289,3.08203 4.21289,3.08203 l 3.730469,-0.91015 0.03125,2.54101 1.605469,-1.33203 c 1.42767,5.60669 -6.331534,2.43955 -12.642578,-0.40234 -2.629337,-1.18401 -7.006201,-0.20274 -9.22461,-1.83203 -1.407404,-1.03366 1.195309,-1.63509 5.052735,-1.66602 z m 62.082029,11.82227 c -3.44152,0.12424 -6.94334,1.83892 -7.83789,5.01953 0,2.08727 16.20119,3.27893 15.30664,-0.49805 -0.64606,-3.18061 -4.02723,-4.64573 -7.46875,-4.52148 z m -70.396482,9.01562 c -0.262104,-0.005 -0.527012,-1.2e-4 -0.792969,0.0156 -4.680839,0.27707 -9.6918542,3.67119 -5.728516,7.01953 3.67758,3.18061 9.24411,-0.69524 11.033203,-5.16797 -0.97841,-1.27737 -2.676992,-1.83252 -4.511718,-1.86719 z m 60.570312,0.37695 c -4.572126,4.17456 0.794845,8.54845 5.26758,5.66602 1.19273,-0.79515 -0.0991,-4.67207 -5.26758,-5.66602 z"
       id="use7631" />
    <path
       style="fill:#ffffff;fill-opacity:1;stroke-width:1"
       d="m 26.050026,358.24443 c -0.652648,-0.11841 -1.987612,-0.35172 -2.966585,-0.51847 -0.978967,-0.16675 -1.792875,-0.30978 -1.808675,-0.31785 -0.128166,-0.0655 -0.600062,-3.09161 -0.715877,-4.59074 -0.149125,-1.93021 -0.104237,-2.11075 0.526176,-2.11639 0.19847,-0.002 0.351044,0.22366 0.482966,0.71358 0.32087,1.19162 1.161575,2.67885 2.038355,3.60592 1.457904,1.54152 3.346627,2.28915 5.783053,2.28915 2.968819,0 4.863119,-1.52609 5.395306,-4.34659 0.395268,-2.09482 -0.188403,-4.16373 -1.546459,-5.48168 -0.955412,-0.92719 -1.767922,-1.38902 -4.075797,-2.31669 -2.456092,-0.98725 -3.38084,-1.45633 -4.663357,-2.36549 -2.071782,-1.46866 -2.930828,-3.10343 -2.937336,-5.58973 -0.008,-3.03896 1.331521,-5.23151 4.020536,-6.58111 2.277746,-1.1432 5.585748,-1.24772 8.855258,-0.27981 0.976978,0.28922 1.825924,0.58089 1.886539,0.64814 0.13123,0.14561 0.627126,3.49317 0.696126,4.69929 0.04652,0.81289 0.02936,0.8498 -0.418645,0.90133 -0.331194,0.0381 -0.497556,-0.0359 -0.571648,-0.25428 -0.05748,-0.1694 -0.397592,-0.92719 -0.755795,-1.68398 -1.102693,-2.32966 -2.927296,-3.65098 -5.386052,-3.90043 -1.40256,-0.14229 -2.614633,0.35883 -3.736168,1.54469 -1.134193,1.19924 -1.586405,2.22804 -1.603041,3.64695 -0.03042,2.59594 1.838855,4.35337 6.671443,6.2722 3.665258,1.45533 5.430132,2.70257 6.396463,4.52036 2.428894,4.56907 -0.671919,10.33688 -6.185291,11.50524 -1.378113,0.29204 -3.760804,0.29045 -5.381495,-0.003 z m 26.752617,0.0917 c -2.891351,-0.45788 -5.201566,-1.59237 -7.113365,-3.49318 -1.184134,-1.17734 -1.502124,-1.62516 -2.229806,-3.14028 -1.256353,-2.61587 -1.476952,-3.7128 -1.463347,-7.27648 0.01298,-3.40595 0.263436,-4.64577 1.421858,-7.03906 1.364837,-2.81976 3.468493,-4.94643 6.195164,-6.26295 1.946853,-0.94 3.265989,-1.26772 5.607397,-1.39309 2.464706,-0.13198 4.151822,0.11611 7.27604,1.06992 1.398526,0.42697 2.628082,0.80041 2.732342,0.82989 0.27298,0.0772 1.20409,6.35765 0.993146,6.69896 -0.05543,0.0897 -0.274996,0.16317 -0.487857,0.16317 -0.321555,0 -0.46522,-0.19936 -0.849469,-1.17874 -1.182674,-3.01444 -3.188621,-5.04996 -5.854755,-5.94107 -1.390108,-0.46462 -3.716797,-0.62618 -4.940113,-0.34304 -3.927173,0.90896 -7.025914,4.62821 -8.044565,9.65545 -0.388666,1.91817 -0.274383,5.27003 0.248912,7.30045 1.109875,4.30636 3.86121,7.52199 7.195547,8.40982 1.139614,0.30344 4.155175,0.2954 5.469648,-0.0146 2.085054,-0.49171 3.999772,-1.58777 5.910429,-3.38337 0.766352,-0.7202 1.106537,-0.93379 1.379829,-0.86634 0.739103,0.18241 0.610151,0.59187 -0.573899,1.82227 -1.981908,2.0595 -4.282601,3.44587 -6.82385,4.11195 -1.252287,0.32823 -4.708311,0.48266 -6.049286,0.2703 z m -68.316921,-0.21174 c -0.204175,-0.0987 -3.992428,-4.72773 -8.41835,-10.2868 -4.425927,-5.55907 -8.250834,-10.29811 -8.499807,-10.5312 -0.433738,-0.40606 -0.462246,-0.4107 -0.681547,-0.11079 -0.398661,0.54519 -0.446947,2.19998 -0.300028,10.28193 0.124724,6.86098 0.180001,7.95094 0.426523,8.40969 0.323444,0.60188 0.948766,0.9052 2.41159,1.16975 0.918363,0.16608 1.023732,0.22729 1.023732,0.59467 v 0.40952 h -4.74653 -4.746529 v -0.41599 c 0,-0.38101 0.09847,-0.43383 1.171308,-0.62827 1.362949,-0.24702 1.843708,-0.5189 2.257924,-1.27692 0.278339,-0.50936 0.300184,-1.33477 0.300184,-11.34153 v -10.79219 l -0.508554,-0.71912 c -0.663986,-0.9389 -1.229372,-1.34332 -2.232134,-1.59665 -0.695163,-0.17561 -0.82733,-0.27485 -0.872847,-0.65542 l -0.05365,-0.44847 h 2.876114 2.876108 l 8.344247,10.6881 c 5.62448,7.20436 8.431727,10.67126 8.61262,10.63642 0.147604,-0.0284 0.321327,-0.24199 0.386048,-0.47459 0.15371,-0.55242 0.155426,-9.73085 0.0028,-14.49297 -0.155761,-4.85683 -0.206727,-4.95521 -2.811209,-5.42623 -0.916241,-0.1657 -1.023727,-0.22786 -1.023727,-0.59208 v -0.40694 l 4.796075,-0.008 4.79608,-0.008 -0.04953,0.4225 c -0.04463,0.38052 -0.165967,0.44352 -1.220854,0.63392 -1.362597,0.24595 -1.843556,0.51776 -2.257923,1.27606 -0.278295,0.50927 -0.303209,1.44575 -0.341584,12.83946 -0.02279,6.75956 -0.08143,12.46176 -0.130372,12.67154 -0.09876,0.42337 -0.715654,0.50307 -1.38608,0.17907 z m -37.810261,-0.26383 c -0.184179,-0.48005 0.113013,-0.67035 1.206313,-0.77245 1.478201,-0.13804 2.026294,-0.44393 2.401004,-1.34002 0.262188,-0.627 0.318157,-1.47294 0.406985,-6.15158 0.152607,-8.03843 -0.02596,-16.27466 -0.369953,-17.06584 -0.365501,-0.84058 -0.970059,-1.19585 -2.401321,-1.41112 -1.102644,-0.16585 -1.203294,-0.21465 -1.203294,-0.58344 v -0.40243 l 5.719402,-0.0159 c 5.873597,-0.0163 6.03794,0.002 5.797076,0.62919 -0.0497,0.12955 -0.614714,0.29764 -1.362692,0.4054 -1.478663,0.21302 -1.987969,0.57612 -2.315446,1.65076 -0.15746,0.51673 -0.209991,3.36059 -0.209991,11.3688 0,9.96598 0.02084,10.73375 0.312056,11.48852 0.379234,0.98293 0.885978,1.28441 2.395973,1.42541 0.683864,0.0639 1.120911,0.18727 1.176529,0.33222 0.244402,0.6369 0.09003,0.6544 -5.772774,0.6544 -4.402489,0 -5.717062,-0.0482 -5.779867,-0.21189 z m 45.4212386,-0.2119 c 0.045127,-0.38597 0.1458607,-0.43566 1.1287054,-0.55675 1.4093344,-0.17363 2.0211457,-0.50601 2.3502834,-1.27683 0.678371,-1.58872 0.678371,-21.86714 0,-23.45585 -0.3291377,-0.77083 -0.940949,-1.10321 -2.3502834,-1.27684 -0.9828447,-0.12109 -1.0835783,-0.17077 -1.1287054,-0.55675 l -0.049584,-0.4238 5.7284383,0.007 5.7284326,0.007 0.05426,0.37484 c 0.06139,0.42403 0.03733,0.43452 -1.556231,0.67926 -1.38272096,0.21235 -1.85806496,0.5834 -2.12977901,1.66248 -0.104411,0.41465 -0.238594,2.92627 -0.298179,5.5814 l -0.108338,4.82749 0.57821705,-0.10687 c 0.745203,-0.13774 1.89597096,-0.63237 2.54285796,-1.093 0.682901,-0.48626 8.0883655,-8.54547 8.3205585,-9.05508 0.244911,-0.53752 0.05387,-1.21831 -0.411759,-1.46752 -0.208148,-0.1114 -0.7221608,-0.29022 -1.1422498,-0.39739 -0.6391157,-0.16304 -0.7637997,-0.26126 -0.7637997,-0.60172 v -0.40686 l 4.9584255,-0.006 4.958432,-0.006 -6e-6,0.43118 c 0,0.38317 -0.09909,0.4522 -0.889972,0.61994 -1.444533,0.30638 -2.691176,0.8501 -3.711142,1.6186 -1.38861,1.04626 -9.0961805,9.00317 -9.2273665,9.52587 -0.06838,0.27243 -0.01292,0.57868 0.14776,0.81622 0.541519,0.80043 10.2321115,12.13681 10.7372955,12.56084 0.630436,0.52915 2.126966,1.25042 2.901045,1.39818 0.463087,0.0884 0.55094,0.17977 0.55094,0.57303 v 0.46785 l -3.587311,-0.051 -3.587304,-0.051 -0.24621,-0.72836 c -0.381658,-1.12906 -1.082086,-2.11778 -4.9242015,-6.95108 -3.99556,-5.02631 -4.50793,-5.48359 -6.54177296,-5.83833 l -0.66351205,-0.11573 0.109073,5.10543 c 0.06,2.80799 0.194414,5.44435 0.298714,5.85855 0.27151405,1.07828 0.74710305,1.44937 2.12958401,1.66169 1.593581,0.24473 1.617621,0.25523 1.556231,0.67926 l -0.05426,0.37484 -5.7284326,0.007 -5.7284383,0.007 0.049584,-0.4238 z m 76.4628534,0.2119 c -0.166062,-0.43269 0.117793,-0.67596 0.915249,-0.7844 1.034253,-0.14063 1.997209,-0.68667 2.658019,-1.5072 0.318458,-0.39544 2.492974,-5.26055 5.707808,-12.77022 l 5.19336,-12.13142 1.004305,-0.41991 c 0.552366,-0.23095 1.080587,-0.45367 1.173821,-0.49493 0.09324,-0.0413 2.219198,5.60019 4.724364,12.53658 2.50517,6.93639 4.71743,12.90146 4.91614,13.25571 0.45356,0.80858 1.24,1.2738 2.55548,1.5117 0.91607,0.16567 1.02649,0.22903 1.02649,0.58906 v 0.40341 l -5.59413,0.004 -5.594117,0.004 v -0.40769 c 0,-0.38165 0.08978,-0.42052 1.406017,-0.60858 1.43623,-0.20521 2.06912,-0.53605 2.06912,-1.08161 0,-0.15432 -0.64841,-2.14035 -1.44091,-4.41337 -0.792503,-2.27302 -1.440912,-4.15974 -1.440912,-4.19271 0,-0.033 -2.20961,-0.0376 -4.910246,-0.0102 -4.238171,0.0429 -4.947456,0.087 -5.182156,0.32187 -0.343439,0.34375 -3.130073,7.47341 -3.130073,8.00834 0,0.21845 0.145354,0.52872 0.323009,0.6895 0.379402,0.34335 1.728383,0.77734 2.416236,0.77734 0.412383,0 0.481617,0.067 0.481617,0.46618 l 6e-6,0.46617 h -4.598586 c -3.522486,0 -4.617619,-0.0496 -4.679911,-0.21189 z m 17.647274,-15.08718 c -0.610513,-1.74817 -1.540721,-4.41533 -2.067131,-5.92704 -0.52641,-1.5117 -1.005536,-2.6941 -1.064731,-2.62754 -0.164184,0.18461 -4.558845,10.96792 -4.558845,11.18617 0,0.45326 0.723782,0.53674 4.697023,0.54173 l 4.103709,0.005 z m 13.035637,15.08718 c -0.18421,-0.48004 0.113,-0.67035 1.206296,-0.77245 1.33377,-0.12455 1.99544,-0.4354 2.2979,-1.07954 0.4023,-0.85677 0.55486,-5.53666 0.46601,-14.29469 -0.0932,-9.18322 -0.13076,-9.58088 -0.96407,-10.1989 -0.23318,-0.17294 -0.99601,-0.40907 -1.69519,-0.52474 -1.169846,-0.19355 -1.271226,-0.24272 -1.271226,-0.61661 v -0.40629 l 5.000806,-0.0745 c 8.73919,-0.13018 9.03444,-0.12693 10.00161,0.1103 2.52802,0.62005 4.48925,2.07195 5.45861,4.04102 0.98743,2.00574 0.86139,4.75444 -0.32209,7.02461 -1.04252,1.99978 -2.97076,3.4532 -5.48912,4.13744 -1.17904,0.32035 -5.19326,0.43659 -6.57059,0.19025 l -0.73576,-0.13159 0.0599,4.96288 c 0.0523,4.33576 0.0975,5.03214 0.35721,5.51095 0.40457,0.7458 1.12772,1.07884 2.83326,1.30487 1.35902,0.1801 1.442,0.21467 1.442,0.60065 v 0.40955 l -5.99713,0.009 c -4.6483,0.007 -6.015406,-0.0383 -6.078426,-0.20255 z m 12.730506,-13.51725 c 2.709,-0.57395 4.12001,-2.18333 4.56035,-5.2015 0.39806,-2.7284 -0.39034,-5.60822 -1.9087,-6.97192 -1.16118,-1.04292 -2.25687,-1.39227 -4.32371,-1.37863 -1.92363,0.0127 -2.7583,0.27624 -3.25006,1.02617 -0.28284,0.43134 -0.31438,1.00062 -0.36195,6.53189 l -0.0521,6.05937 0.98447,0.0615 c 2.20826,0.13785 3.24506,0.10763 4.35172,-0.12683 z m 11.38806,13.51725 c -0.18462,-0.48124 0.11348,-0.67478 1.19496,-0.77577 1.24534,-0.11629 1.98311,-0.47801 2.27311,-1.11447 0.39257,-0.86162 0.50243,-3.45984 0.50243,-11.88317 0,-8.52941 -0.10879,-11.01921 -0.52099,-11.9239 -0.29041,-0.63735 -0.95441,-0.95233 -2.26577,-1.07479 -1.07025,-0.0999 -1.36789,-0.29474 -1.18372,-0.77472 0.0637,-0.1661 2.17828,-0.2119 9.78439,-0.2119 5.33669,0 9.98261,-0.0594 10.32423,-0.13209 0.73826,-0.15699 0.63846,-0.44943 1.23078,3.60594 0.42899,2.93702 0.41709,3.04444 -0.33767,3.05004 -0.27913,0.002 -0.41233,-0.19581 -0.65444,-0.97215 -0.7405,-2.37453 -1.76297,-3.72901 -3.09393,-4.0986 -0.37225,-0.10337 -2.35586,-0.18026 -4.66431,-0.1808 -3.93572,-0.001 -4.02567,0.007 -4.46535,0.38503 -0.60284,0.51854 -0.73978,1.77606 -0.74938,6.88146 l -0.007,3.96182 3.68703,-0.0725 c 3.10522,-0.0611 3.78718,-0.12076 4.32155,-0.37829 0.65199,-0.31421 0.91377,-0.8414 1.01713,-2.04823 0.0346,-0.40445 0.13182,-0.51885 0.47474,-0.55883 l 0.43118,-0.0503 -0.007,3.63841 c -0.004,2.00114 -0.0589,3.68989 -0.12175,3.75278 -0.0629,0.0629 -0.26318,0.0671 -0.44507,0.009 -0.2533,-0.0804 -0.34977,-0.30351 -0.41222,-0.95337 -0.0963,-1.00262 -0.57397,-1.60357 -1.47378,-1.85424 -0.33326,-0.0928 -2.15065,-0.21925 -4.03867,-0.28091 l -3.43276,-0.11211 0.0105,4.90055 c 0.0129,6.04723 0.10994,7.18878 0.66065,7.77499 l 0.40508,0.43119 h 4.21387 c 4.598,0 4.83319,-0.0394 6.0653,-1.01521 0.86351,-0.68392 1.64352,-1.93728 2.309,-3.71021 0.54902,-1.46268 0.84243,-1.76107 1.38453,-1.40808 0.23619,0.15379 -0.082,2.12595 -0.90745,5.62494 l -0.41994,1.77995 h -10.50355 c -8.24647,0 -10.52102,-0.0455 -10.58486,-0.21189 z"
       id="path959" />
  </g>
</svg>
