<?xml version="1.0" encoding="UTF-8" standalone="no"?>
<svg
   xmlns:dc="http://purl.org/dc/elements/1.1/"
   xmlns:cc="http://creativecommons.org/ns#"
   xmlns:rdf="http://www.w3.org/1999/02/22-rdf-syntax-ns#"
   xmlns:svg="http://www.w3.org/2000/svg"
   xmlns="http://www.w3.org/2000/svg"
   xmlns:xlink="http://www.w3.org/1999/xlink"
   height="75.760002"
   width="212.767"
   id="svg46"
   version="1.1"
   viewBox="0 0 212.767 75.76">
  <metadata
     id="metadata50">
    <rdf:RDF>
      <cc:Work
         rdf:about="">
        <dc:format>image/svg+xml</dc:format>
        <dc:type
           rdf:resource="http://purl.org/dc/dcmitype/StillImage" />
        <dc:title>Jira Software-blue</dc:title>
      </cc:Work>
    </rdf:RDF>
  </metadata>
  <defs
     id="defs10">
    <style
       id="style2">.cls-1{fill:#253858;}.cls-2{fill:#2684ff;}.cls-3{fill:url(#linear-gradient);}.cls-4{fill:url(#linear-gradient-2);}</style>
    <linearGradient
       gradientUnits="userSpaceOnUse"
       y2="30.99"
       x2="19"
       y1="15.35"
       x1="34.639999"
       id="linear-gradient">
      <stop
         id="stop4"
         stop-color="#0052cc"
         offset="0.18" />
      <stop
         id="stop6"
         stop-color="#2684ff"
         offset="1" />
    </linearGradient>
    <linearGradient
       xlink:href="#linear-gradient"
       y2="44.669998"
       x2="54.389999"
       y1="60.279999"
       x1="38.779999"
       id="linear-gradient-2" />
  </defs>
  <title
     id="title12">Jira Software-blue</title>
  <g
     id="g898">
    <path
       class="cls-1"
       d="m 109.28,9 h 7.92 v 40.2 c 0,10.65 -4.66,18 -15.58,18 a 28.14,28.14 0 0 1 -9.5,-1.5 V 58 a 22.19,22.19 0 0 0 8.18,1.5 c 6.69,0 9,-4 9,-9.77 z"
       id="path14"
       style="fill:#ffffff;fill-opacity:1;stroke:none" />
    <path
       class="cls-1"
       d="m 131.63,5.91 a 4.94,4.94 0 0 1 5.28,5.28 5.28,5.28 0 1 1 -10.56,0 4.94,4.94 0 0 1 5.28,-5.28 z m -3.87,16.9 h 7.57 v 44 h -7.57 z"
       id="path16"
       style="fill:#ffffff;fill-opacity:1;stroke:none" />
    <path
       class="cls-1"
       d="m 146.76,22.8 h 7.39 v 7.74 c 2.55,-5.19 7,-8.89 15.58,-8.36 v 7.39 c -9.68,-1 -15.58,1.94 -15.58,11.26 v 26 h -7.39 z"
       id="path18"
       style="fill:#ffffff;fill-opacity:1;stroke:none" />
    <path
       class="cls-1"
       d="m 205.19,58.88 c -2.82,5.81 -8.1,8.8 -14.87,8.8 -11.7,0 -17.6,-9.94 -17.6,-22.88 0,-12.41 6.16,-22.88 18.48,-22.88 6.42,0 11.35,2.9 14,8.62 V 22.8 h 7.57 v 44 h -7.57 z m -12.85,1.76 c 6.78,0 12.85,-4.31 12.85,-14.08 V 43 c 0,-9.77 -5.54,-14.08 -12,-14.08 -8.54,0 -12.94,5.63 -12.94,15.84 0.04,10.6 4.26,15.88 12.1,15.88 z"
       id="path20"
       style="fill:#ffffff;fill-opacity:1;stroke:none" />
    <path
       class="cls-2"
       d="M 72.4,35.76 39.8,3.16 36.64,0 V 0 L 12.1,24.54 v 0 L 0.88,35.76 a 3,3 0 0 0 0,4.24 L 23.3,62.42 36.64,75.76 61.18,51.22 61.56,50.84 72.4,40 a 3,3 0 0 0 0,-4.24 z m -35.76,13.32 -11.2,-11.2 11.2,-11.2 11.2,11.2 z"
       id="path38"
       style="fill:#ffffff;fill-opacity:1;stroke:none" />
  </g>
</svg>
