<?xml version="1.0" encoding="UTF-8" standalone="no"?>
<svg
   xmlns:dc="http://purl.org/dc/elements/1.1/"
   xmlns:cc="http://creativecommons.org/ns#"
   xmlns:rdf="http://www.w3.org/1999/02/22-rdf-syntax-ns#"
   xmlns:svg="http://www.w3.org/2000/svg"
   xmlns="http://www.w3.org/2000/svg"
   id="svg823"
   version="1.1"
   viewBox="0 0 21.708268 13.12492"
   height="49.605999"
   width="82.046997">
  <defs
     id="defs817" />
  <metadata
     id="metadata820">
    <rdf:RDF>
      <cc:Work
         rdf:about="">
        <dc:format>image/svg+xml</dc:format>
        <dc:type
           rdf:resource="http://purl.org/dc/dcmitype/StillImage" />
        <dc:title></dc:title>
      </cc:Work>
    </rdf:RDF>
  </metadata>
  <g
     transform="translate(0,-283.87508)"
     id="layer1">
    <path
       style="fill:#ffffff;fill-rule:nonzero;stroke-width:0.14699075;shape-rendering:auto"
       id="path2"
       d="m 5.122186,287.29817 h 4.094427 v 0.32617 H 5.4976 v 2.4546 h 3.497204 v 0.32617 H 5.4976 v 2.69493 h 3.761641 v 0.32617 H 5.122186 Z m 4.461169,0 h 0.435093 l 1.927783,2.69493 1.970412,-2.69493 2.680082,-3.42312 -4.403108,6.4013 2.268949,3.14986 h -0.452143 l -2.064192,-2.86661 -2.072716,2.86661 H 9.429897 l 2.286,-3.14986 -2.132395,-2.97818 z m 5.041342,0.32617 v -0.32617 h 4.66578 v 0.32617 h -2.149445 v 5.80172 h -0.375415 v -5.80172 H 14.624844 Z M 0,287.29817 H 0.469194 L 6.938404,297 4.264936,293.42621 0.392318,287.76163 0.375268,293.42621 H 1e-6 Z m 19.252847,5.70339 c -0.07688,0 -0.134349,-0.0595 -0.134349,-0.13641 0,-0.077 0.05747,-0.13656 0.134202,-0.13656 0.07761,0 0.134203,0.0595 0.134203,0.13656 0,0.0769 -0.05659,0.13641 -0.134203,0.13641 z m 0.368653,-0.3591 h 0.200936 c 0.0028,0.10906 0.08232,0.18227 0.199026,0.18227 0.130528,0 0.204464,-0.0786 0.204464,-0.22622 v -0.93428 h 0.204464 v 0.93516 c 0,0.26576 -0.153311,0.41878 -0.407164,0.41878 -0.238125,0 -0.401579,-0.14847 -0.401579,-0.37571 z m 1.076266,-0.0118 h 0.202701 c 0.01735,0.12538 0.139641,0.20505 0.315883,0.20505 0.164188,0 0.284721,-0.0853 0.284721,-0.20241 0,-0.10069 -0.07658,-0.16125 -0.25106,-0.2024 l -0.169775,-0.0412 c -0.238125,-0.0559 -0.346898,-0.17139 -0.346898,-0.36557 0,-0.23548 0.191676,-0.39217 0.47919,-0.39217 0.267523,0 0.463021,0.15669 0.47478,0.37924 h -0.199025 c -0.01911,-0.12171 -0.124943,-0.19785 -0.278401,-0.19785 -0.16169,0 -0.269287,0.0779 -0.269287,0.19697 0,0.0944 0.06938,0.14846 0.241065,0.18873 l 0.14508,0.0357 c 0.270169,0.0632 0.381588,0.17316 0.381588,0.37189 0,0.25282 -0.195498,0.41142 -0.507559,0.41142 -0.292071,0 -0.488451,-0.15125 -0.503003,-0.38761 z" />
  </g>
</svg>
