<?xml version="1.0" encoding="UTF-8" standalone="no"?>
<svg
   xmlns:dc="http://purl.org/dc/elements/1.1/"
   xmlns:cc="http://creativecommons.org/ns#"
   xmlns:rdf="http://www.w3.org/1999/02/22-rdf-syntax-ns#"
   xmlns:svg="http://www.w3.org/2000/svg"
   xmlns="http://www.w3.org/2000/svg"
   id="svg5491"
   version="1.1"
   viewBox="0 0 112.068 112.068"
   height="112.068mm"
   width="112.068mm">
  <defs
     id="defs5485" />
  <metadata
     id="metadata5488">
    <rdf:RDF>
      <cc:Work
         rdf:about="">
        <dc:format>image/svg+xml</dc:format>
        <dc:type
           rdf:resource="http://purl.org/dc/dcmitype/StillImage" />
        <dc:title></dc:title>
      </cc:Work>
    </rdf:RDF>
  </metadata>
  <g
     transform="translate(0,-184.932)"
     id="layer1">
    <g
       id="text5495"
       style="font-style:normal;font-variant:normal;font-weight:normal;font-stretch:normal;font-size:16.93333244px;line-height:1.25;font-family:monospace;-inkscape-font-specification:'monospace, Normal';font-variant-ligatures:normal;font-variant-caps:normal;font-variant-numeric:normal;font-feature-settings:normal;text-align:start;letter-spacing:0px;word-spacing:0px;writing-mode:lr-tb;text-anchor:start;fill:#000000;fill-opacity:1;stroke:none;stroke-width:0.26458332"
       aria-label="&lt;ðŸ’…ðŸ¾&gt;">
      <g
         transform="translate(-312.87109,-482.01367)"
         id="g5659">
        <g
           id="g5513"
           style="fill:#ffffff;fill-opacity:1;stroke:none;stroke-width:0.13124309"
           transform="matrix(2.0159791,0,0,2.0159791,326.70985,122.97606)">
          <path
             id="path5503"
             style="font-style:normal;font-variant:normal;font-weight:normal;font-stretch:normal;font-size:16.93333244px;font-family:Consolas;-inkscape-font-specification:'Consolas, Normal';font-variant-ligatures:normal;font-variant-caps:normal;font-variant-numeric:normal;font-feature-settings:normal;text-align:start;writing-mode:lr-tb;text-anchor:start;fill:#ffffff;fill-opacity:1;stroke:none;stroke-width:0.13124309"
             d="M 6.4574867,292.65919 5.5562498,293.56869 4.3772161e-8,288.93022 5.5562498,284.29174 l 0.9012369,0.91777 -4.5061847,3.70417 z" />
          <path
             id="path5505"
             style="font-style:normal;font-variant:normal;font-weight:normal;font-stretch:normal;font-size:16.93333244px;font-family:'Segoe UI Emoji';-inkscape-font-specification:'Segoe UI Emoji, Normal';font-variant-ligatures:normal;font-variant-caps:normal;font-variant-numeric:normal;font-feature-settings:normal;text-align:start;writing-mode:lr-tb;text-anchor:start;fill:#ffffff;fill-opacity:1;stroke:none;stroke-width:0.13124309"
             d="m 29.327407,277.98308 v 3.56361 q 0,0.28939 -0.09095,0.55397 -0.08268,0.25631 -0.239779,0.47956 -0.157096,0.21497 -0.380338,0.3886 -0.214974,0.16537 -0.479558,0.26459 v 0.69453 q 0,0.85163 -0.37207,1.5875 -0.37207,0.73587 -1.041797,1.25677 0.248047,0.24805 0.463021,0.48782 0.223242,0.23151 0.380339,0.48783 0.165364,0.25632 0.256315,0.55397 0.09922,0.29766 0.09922,0.678 0,0.23977 -0.04961,0.47129 0.264583,0.51263 0.264583,1.09967 0,0.61185 -0.248047,1.05833 -0.248046,0.43822 -0.669726,0.8599 l -4.530989,4.53099 h -12.37754 v -4.15892 l 11.294401,-11.2944 q 0.272851,0.30592 0.545703,0.59531 0.28112,0.28939 0.504362,0.60358 0.223242,0.31419 0.363802,0.678 0.148828,0.35553 0.148828,0.80201 0,0.23978 -0.04961,0.47129 l 0.05788,0.1323 0.314193,-0.30593 h 1.083138 v -1.29811 q -0.272852,-0.0992 -0.496094,-0.26458 -0.214974,-0.16537 -0.37207,-0.38034 -0.148828,-0.22325 -0.239779,-0.47956 -0.08268,-0.26458 -0.08268,-0.55397 v -3.56361 z m -2.372981,12.57598 q 0,-0.19017 -0.06615,-0.38861 l -2.017448,2.02572 -1.314648,-1.31465 -3.629753,3.62975 q -0.05788,0.0579 -0.132291,0.0827 -0.07441,0.0248 -0.148829,0.0248 -0.165364,0 -0.297656,-0.12403 -0.124023,-0.12402 -0.124023,-0.28938 0,-0.0744 0.0248,-0.1571 0.03307,-0.0744 0.08268,-0.12402 l 4.646744,-4.64675 q 0.248047,-0.24804 0.42168,-0.48782 0.173633,-0.23978 0.173633,-0.61185 0,-0.19017 -0.06615,-0.38861 -0.03307,0.0496 -0.173633,0.19844 -0.14056,0.14883 -0.338997,0.35553 -0.198438,0.19844 -0.438216,0.42995 -0.231511,0.23151 -0.446485,0.43822 -0.206705,0.2067 -0.380338,0.37207 -0.165365,0.16536 -0.231511,0.23151 -0.338997,-0.3142 -0.661458,-0.64492 -0.322461,-0.33073 -0.65319,-0.66146 l -4.820377,4.82037 q -0.04961,0.0496 -0.132292,0.0827 -0.07441,0.0248 -0.148828,0.0248 -0.173633,0 -0.297656,-0.12402 -0.124024,-0.12403 -0.124024,-0.29766 0,-0.0744 0.02481,-0.14883 0.02481,-0.0744 0.08268,-0.13229 l 5.83737,-5.83737 q 0.124023,-0.12402 0.23151,-0.23978 0.107487,-0.11575 0.190169,-0.23977 0.08268,-0.1323 0.124024,-0.28112 0.04961,-0.14883 0.04961,-0.339 0,-0.1819 -0.06615,-0.38034 l -2.017448,2.02572 -1.314648,-1.31465 -7.300846,7.30911 v 2.37298 h 10.69082 l 4.167187,-4.15892 q 0.239779,-0.23977 0.413412,-0.47955 0.181901,-0.24805 0.181901,-0.61185 z m 1.182356,-11.38535 h -3.563606 v 2.37298 q 0,0.19844 0.07441,0.32246 0.08268,0.11575 0.206706,0.1819 0.124023,0.0579 0.281119,0.0744 0.157097,0.0165 0.322461,0.0165 h 0.305925 v 1.19063 h 1.190625 V 282.142 h 0.314192 q 0.157097,0 0.314193,-0.0165 0.157096,-0.0165 0.28112,-0.0744 0.124023,-0.0661 0.198437,-0.1819 0.07441,-0.12402 0.07441,-0.32246 z m -3.786848,7.4414 q 0,-0.14883 -0.04134,-0.31419 h 0.264584 q 0.496093,0 0.926041,-0.1819 0.438216,-0.19017 0.760677,-0.51263 0.322461,-0.32246 0.504362,-0.75241 0.19017,-0.42995 0.19017,-0.92604 h -1.190625 v 0.59531 q 0,0.24805 -0.09922,0.46302 -0.09095,0.21498 -0.256315,0.38034 -0.157096,0.1571 -0.37207,0.24805 -0.214974,0.0909 -0.463021,0.0909 h -0.595313 l -2.372981,2.38125 0.892968,0.89297 1.480013,-1.48829 q 0.372071,-0.37207 0.372071,-0.87643 z m -5.126302,-0.9095 0.892968,0.89297 1.488282,-1.48002 q 0.173632,-0.17363 0.264583,-0.41341 0.09922,-0.23978 0.09922,-0.47956 0,-0.24804 -0.09922,-0.47955 -0.09095,-0.23978 -0.264583,-0.41341 z m 7.499283,3.27422 q 0,-0.52917 -0.363802,-0.89297 l -2.38125,2.38125 0.892969,0.8847 1.488281,-1.48002 q 0.173633,-0.17363 0.264583,-0.41341 0.09922,-0.23978 0.09922,-0.47955 z" />
          <path
             id="path5507"
             style="font-style:normal;font-variant:normal;font-weight:normal;font-stretch:normal;font-size:16.93333244px;font-family:Consolas;-inkscape-font-specification:'Consolas, Normal';font-variant-ligatures:normal;font-variant-caps:normal;font-variant-numeric:normal;font-feature-settings:normal;text-align:start;writing-mode:lr-tb;text-anchor:start;fill:#ffffff;fill-opacity:1;stroke:none;stroke-width:0.13124309"
             d="m 33.172133,285.20951 0.892969,-0.91777 5.556249,4.63848 -5.556249,4.63847 -0.892969,-0.9095 4.506185,-3.71244 z" />
        </g>
        <g
           aria-label="styled"
           style="font-style:normal;font-variant:normal;font-weight:bold;font-stretch:normal;font-size:11.64166641px;line-height:1.25;font-family:'Open Sans';-inkscape-font-specification:'Open Sans, Bold';font-variant-ligatures:normal;font-variant-caps:normal;font-variant-numeric:normal;font-feature-settings:normal;text-align:start;letter-spacing:0px;word-spacing:0px;writing-mode:lr-tb;text-anchor:start;fill:#ffffff;fill-opacity:1;stroke:none;stroke-width:0.07000434"
           id="text5575">
          <path
             d="m 330.68633,752.65294 q 0,0.97772 -0.68213,1.48931 -0.67644,0.5116 -2.02933,0.5116 -0.6935,0 -1.18236,-0.0966 -0.48886,-0.091 -0.91519,-0.27285 v -1.43247 q 0.48318,0.22738 1.08572,0.38086 0.60823,0.15348 1.06867,0.15348 0.94361,0 0.94361,-0.54571 0,-0.20464 -0.12505,-0.32969 -0.12506,-0.13074 -0.43202,-0.28991 -0.30696,-0.16484 -0.81855,-0.38085 -0.73329,-0.30696 -1.08004,-0.56844 -0.34107,-0.26149 -0.50023,-0.59687 -0.15348,-0.34106 -0.15348,-0.8356 0,-0.84698 0.65371,-1.30742 0.65939,-0.46612 1.86449,-0.46612 1.14825,0 2.23397,0.50023 l -0.52297,1.25057 q -0.47749,-0.20464 -0.89245,-0.33538 -0.41496,-0.13074 -0.84698,-0.13074 -0.76739,0 -0.76739,0.41496 0,0.23306 0.24443,0.40359 0.25011,0.17053 1.08572,0.50591 0.74466,0.30128 1.09141,0.56276 0.34674,0.26148 0.51159,0.60255 0.16485,0.34106 0.16485,0.81287 z"
             style="font-style:normal;font-variant:normal;font-weight:bold;font-stretch:normal;font-size:11.64166641px;font-family:'Open Sans';-inkscape-font-specification:'Open Sans, Bold';font-variant-ligatures:normal;font-variant-caps:normal;font-variant-numeric:normal;font-feature-settings:normal;text-align:start;writing-mode:lr-tb;text-anchor:start;fill:#ffffff;fill-opacity:1;stroke-width:0.07000434"
             id="path5623" />
          <path
             d="m 334.72794,753.27254 q 0.45476,0 1.09141,-0.19896 v 1.29036 q -0.64802,0.28991 -1.59163,0.28991 -1.04025,0 -1.51774,-0.52297 -0.47181,-0.52865 -0.47181,-1.58026 v -3.0639 h -0.82992 v -0.73329 l 0.95498,-0.57981 0.50023,-1.34152 h 1.10846 v 1.35289 h 1.77922 v 1.30173 h -1.77922 v 3.0639 q 0,0.36949 0.20464,0.5457 0.21032,0.17622 0.55138,0.17622 z"
             style="font-style:normal;font-variant:normal;font-weight:bold;font-stretch:normal;font-size:11.64166641px;font-family:'Open Sans';-inkscape-font-specification:'Open Sans, Bold';font-variant-ligatures:normal;font-variant-caps:normal;font-variant-numeric:normal;font-feature-settings:normal;text-align:start;writing-mode:lr-tb;text-anchor:start;fill:#ffffff;fill-opacity:1;stroke-width:0.07000434"
             id="path5625" />
          <path
             d="m 336.18884,748.18499 h 1.89859 l 1.19941,3.5755 q 0.15348,0.46612 0.21032,1.10277 h 0.0341 q 0.0625,-0.58549 0.24443,-1.10277 l 1.17667,-3.5755 h 1.8588 l -2.68872,7.16804 q -0.36949,0.99477 -1.0573,1.48932 -0.68213,0.49454 -1.59732,0.49454 -0.44907,0 -0.88108,-0.0966 v -1.37562 q 0.31264,0.0739 0.68212,0.0739 0.46044,0 0.80151,-0.28423 0.34674,-0.27853 0.54001,-0.84697 l 0.10232,-0.31264 z"
             style="font-style:normal;font-variant:normal;font-weight:bold;font-stretch:normal;font-size:11.64166641px;font-family:'Open Sans';-inkscape-font-specification:'Open Sans, Bold';font-variant-ligatures:normal;font-variant-caps:normal;font-variant-numeric:normal;font-feature-settings:normal;text-align:start;writing-mode:lr-tb;text-anchor:start;fill:#ffffff;fill-opacity:1;stroke-width:0.07000434"
             id="path5627" />
          <path
             d="m 345.44874,754.54016 h -1.73375 v -8.84494 h 1.73375 z"
             style="font-style:normal;font-variant:normal;font-weight:bold;font-stretch:normal;font-size:11.64166641px;font-family:'Open Sans';-inkscape-font-specification:'Open Sans, Bold';font-variant-ligatures:normal;font-variant-caps:normal;font-variant-numeric:normal;font-feature-settings:normal;text-align:start;writing-mode:lr-tb;text-anchor:start;fill:#ffffff;fill-opacity:1;stroke-width:0.07000434"
             id="path5629" />
          <path
             d="m 349.89394,749.29914 q -0.55139,0 -0.86403,0.35243 -0.31264,0.34675 -0.35812,0.98909 h 2.43293 q -0.0114,-0.64234 -0.33538,-0.98909 -0.32401,-0.35243 -0.8754,-0.35243 z m 0.24443,5.35471 q -1.53479,0 -2.39882,-0.84698 -0.86403,-0.84697 -0.86403,-2.39882 0,-1.59732 0.79582,-2.46703 0.8015,-0.8754 2.21123,-0.8754 1.34721,0 2.09755,0.7674 0.75034,0.76739 0.75034,2.12028 v 0.84129 H 348.632 q 0.0284,0.73898 0.4377,1.15394 0.40928,0.41496 1.14825,0.41496 0.57413,0 1.08573,-0.11937 0.51159,-0.11938 1.06866,-0.38086 v 1.34152 q -0.45475,0.22738 -0.97203,0.33538 -0.51728,0.11369 -1.26194,0.11369 z"
             style="font-style:normal;font-variant:normal;font-weight:bold;font-stretch:normal;font-size:11.64166641px;font-family:'Open Sans';-inkscape-font-specification:'Open Sans, Bold';font-variant-ligatures:normal;font-variant-caps:normal;font-variant-numeric:normal;font-feature-settings:normal;text-align:start;writing-mode:lr-tb;text-anchor:start;fill:#ffffff;fill-opacity:1;stroke-width:0.07000434"
             id="path5631" />
          <path
             d="m 356.16384,754.65385 q -1.11983,0 -1.76216,-0.86972 -0.63666,-0.86971 -0.63666,-2.41018 0,-1.56322 0.64803,-2.43293 0.6537,-0.8754 1.79627,-0.8754 1.19941,0 1.83038,0.93224 h 0.0568 q -0.13074,-0.71055 -0.13074,-1.26762 v -2.03502 h 1.73943 v 8.84494 h -1.33015 l -0.33538,-0.82424 h -0.0739 q -0.59118,0.93793 -1.80196,0.93793 z m 0.60823,-1.38131 q 0.66508,0 0.97204,-0.38654 0.31264,-0.38654 0.34106,-1.3131 v -0.18758 q 0,-1.0232 -0.31832,-1.46658 -0.31265,-0.44339 -1.0232,-0.44339 -0.57981,0 -0.90382,0.49455 -0.31832,0.48886 -0.31832,1.42678 0,0.93793 0.32401,1.40974 0.32401,0.46612 0.92655,0.46612 z"
             style="font-style:normal;font-variant:normal;font-weight:bold;font-stretch:normal;font-size:11.64166641px;font-family:'Open Sans';-inkscape-font-specification:'Open Sans, Bold';font-variant-ligatures:normal;font-variant-caps:normal;font-variant-numeric:normal;font-feature-settings:normal;text-align:start;writing-mode:lr-tb;text-anchor:start;fill:#ffffff;fill-opacity:1;stroke-width:0.07000434"
             id="path5633" />
        </g>
        <g
           aria-label="components"
           style="font-style:normal;font-variant:normal;font-weight:bold;font-stretch:normal;font-size:11.64166641px;line-height:1.25;font-family:'Open Sans';-inkscape-font-specification:'Open Sans, Bold';font-variant-ligatures:normal;font-variant-caps:normal;font-variant-numeric:normal;font-feature-settings:normal;text-align:start;letter-spacing:0px;word-spacing:0px;writing-mode:lr-tb;text-anchor:start;fill:#ffffff;fill-opacity:1;stroke:none;stroke-width:0.07000434"
           id="text5575-4">
          <path
             d="m 328.83425,767.41087 q -2.96726,0 -2.96726,-3.25717 0,-1.62005 0.80718,-2.47271 0.80719,-0.85835 2.31356,-0.85835 1.10277,0 1.97817,0.43202 l -0.5116,1.34152 q -0.40928,-0.16485 -0.76171,-0.26717 -0.35243,-0.10801 -0.70486,-0.10801 -1.35289,0 -1.35289,1.92133 0,1.86449 1.35289,1.86449 0.50022,0 0.92655,-0.13074 0.42633,-0.13643 0.85266,-0.42065 v 1.48363 q -0.42064,0.26717 -0.85266,0.36949 -0.42633,0.10232 -1.08003,0.10232 z"
             style="font-style:normal;font-variant:normal;font-weight:bold;font-stretch:normal;font-size:11.64166641px;font-family:'Open Sans';-inkscape-font-specification:'Open Sans, Bold';font-variant-ligatures:normal;font-variant-caps:normal;font-variant-numeric:normal;font-feature-settings:normal;text-align:start;writing-mode:lr-tb;text-anchor:start;fill:#ffffff;fill-opacity:1;stroke-width:0.07000434"
             id="path5602" />
          <path
             d="m 333.61483,764.10823 q 0,0.94361 0.30696,1.42678 0.31264,0.48318 1.01183,0.48318 0.69349,0 0.99477,-0.47749 0.30695,-0.48318 0.30695,-1.43247 0,-0.94361 -0.30695,-1.41542 -0.30696,-0.47181 -1.00614,-0.47181 -0.6935,0 -1.00046,0.47181 -0.30696,0.46612 -0.30696,1.41542 z m 4.39405,0 q 0,1.55184 -0.81855,2.42724 -0.81856,0.8754 -2.27945,0.8754 -0.91519,0 -1.61437,-0.39791 -0.69919,-0.40359 -1.07436,-1.15393 -0.37517,-0.75035 -0.37517,-1.7508 0,-1.55753 0.81287,-2.42156 0.81287,-0.86403 2.28513,-0.86403 0.91519,0 1.61438,0.39791 0.69918,0.39791 1.07435,1.14256 0.37517,0.74466 0.37517,1.74512 z"
             style="font-style:normal;font-variant:normal;font-weight:bold;font-stretch:normal;font-size:11.64166641px;font-family:'Open Sans';-inkscape-font-specification:'Open Sans, Bold';font-variant-ligatures:normal;font-variant-caps:normal;font-variant-numeric:normal;font-feature-settings:normal;text-align:start;writing-mode:lr-tb;text-anchor:start;fill:#ffffff;fill-opacity:1;stroke-width:0.07000434"
             id="path5604" />
          <path
             d="m 345.13144,767.29718 h -1.73374 v -3.71192 q 0,-0.68781 -0.23306,-1.02888 -0.22738,-0.34674 -0.72192,-0.34674 -0.66508,0 -0.96635,0.48885 -0.30128,0.48886 -0.30128,1.60869 v 2.99 h -1.73374 v -6.35517 h 1.32447 l 0.23306,0.81287 h 0.0966 q 0.2558,-0.4377 0.73898,-0.68213 0.48317,-0.25011 1.10846,-0.25011 1.42678,0 1.93269,0.93224 h 0.15348 q 0.2558,-0.44338 0.75034,-0.68781 0.50023,-0.24443 1.12552,-0.24443 1.08003,0 1.63142,0.55707 0.55707,0.55139 0.55707,1.77354 v 4.14393 h -1.73942 v -3.71192 q 0,-0.68781 -0.23307,-1.02888 -0.22737,-0.34674 -0.72192,-0.34674 -0.63665,0 -0.95498,0.45475 -0.31264,0.45475 -0.31264,1.44384 z"
             style="font-style:normal;font-variant:normal;font-weight:bold;font-stretch:normal;font-size:11.64166641px;font-family:'Open Sans';-inkscape-font-specification:'Open Sans, Bold';font-variant-ligatures:normal;font-variant-caps:normal;font-variant-numeric:normal;font-feature-settings:normal;text-align:start;writing-mode:lr-tb;text-anchor:start;fill:#ffffff;fill-opacity:1;stroke-width:0.07000434"
             id="path5606" />
          <path
             d="m 354.3686,767.41087 q -1.11982,0 -1.75648,-0.81287 h -0.0909 q 0.0909,0.79582 0.0909,0.92087 v 2.57504 h -1.73374 v -9.1519 h 1.40973 l 0.24443,0.82424 h 0.0796 q 0.60823,-0.94361 1.80196,-0.94361 1.12551,0 1.76217,0.86971 0.63665,0.86972 0.63665,2.41588 0,1.01751 -0.30127,1.76785 -0.29559,0.75034 -0.84698,1.14256 -0.55139,0.39223 -1.29605,0.39223 z m -0.51159,-5.20123 q -0.64234,0 -0.93793,0.3979 -0.29559,0.39223 -0.30696,1.30173 v 0.18759 q 0,1.02319 0.30128,1.46658 0.30695,0.44338 0.96635,0.44338 1.1653,0 1.1653,-1.92133 0,-0.93793 -0.28991,-1.40405 -0.28422,-0.4718 -0.89813,-0.4718 z"
             style="font-style:normal;font-variant:normal;font-weight:bold;font-stretch:normal;font-size:11.64166641px;font-family:'Open Sans';-inkscape-font-specification:'Open Sans, Bold';font-variant-ligatures:normal;font-variant-caps:normal;font-variant-numeric:normal;font-feature-settings:normal;text-align:start;writing-mode:lr-tb;text-anchor:start;fill:#ffffff;fill-opacity:1;stroke-width:0.07000434"
             id="path5608" />
          <path
             d="m 359.62668,764.10823 q 0,0.94361 0.30696,1.42678 0.31264,0.48318 1.01182,0.48318 0.6935,0 0.99477,-0.47749 0.30696,-0.48318 0.30696,-1.43247 0,-0.94361 -0.30696,-1.41542 -0.30695,-0.47181 -1.00614,-0.47181 -0.69349,0 -1.00045,0.47181 -0.30696,0.46612 -0.30696,1.41542 z m 4.39405,0 q 0,1.55184 -0.81856,2.42724 -0.81855,0.8754 -2.27944,0.8754 -0.91519,0 -1.61438,-0.39791 -0.69918,-0.40359 -1.07435,-1.15393 -0.37517,-0.75035 -0.37517,-1.7508 0,-1.55753 0.81287,-2.42156 0.81287,-0.86403 2.28513,-0.86403 0.91519,0 1.61437,0.39791 0.69919,0.39791 1.07436,1.14256 0.37517,0.74466 0.37517,1.74512 z"
             style="font-style:normal;font-variant:normal;font-weight:bold;font-stretch:normal;font-size:11.64166641px;font-family:'Open Sans';-inkscape-font-specification:'Open Sans, Bold';font-variant-ligatures:normal;font-variant-caps:normal;font-variant-numeric:normal;font-feature-settings:normal;text-align:start;writing-mode:lr-tb;text-anchor:start;fill:#ffffff;fill-opacity:1;stroke-width:0.07000434"
             id="path5610" />
          <path
             d="m 371.31951,767.29718 h -1.73375 v -3.71192 q 0,-0.68781 -0.24443,-1.02888 -0.24443,-0.34674 -0.77876,-0.34674 -0.72761,0 -1.05162,0.48885 -0.32401,0.48318 -0.32401,1.60869 v 2.99 h -1.73374 v -6.35517 h 1.32446 l 0.23307,0.81287 h 0.0966 q 0.28991,-0.46043 0.79582,-0.69349 0.51159,-0.23875 1.15962,-0.23875 1.10846,0 1.68258,0.60255 0.57413,0.59686 0.57413,1.72806 z"
             style="font-style:normal;font-variant:normal;font-weight:bold;font-stretch:normal;font-size:11.64166641px;font-family:'Open Sans';-inkscape-font-specification:'Open Sans, Bold';font-variant-ligatures:normal;font-variant-caps:normal;font-variant-numeric:normal;font-feature-settings:normal;text-align:start;writing-mode:lr-tb;text-anchor:start;fill:#ffffff;fill-opacity:1;stroke-width:0.07000434"
             id="path5612" />
          <path
             d="m 375.74766,762.05616 q -0.55139,0 -0.86403,0.35243 -0.31264,0.34675 -0.35812,0.98909 h 2.43293 q -0.0114,-0.64234 -0.33538,-0.98909 -0.32401,-0.35243 -0.8754,-0.35243 z m 0.24443,5.35471 q -1.53479,0 -2.39882,-0.84698 -0.86403,-0.84698 -0.86403,-2.39882 0,-1.59732 0.79582,-2.46703 0.8015,-0.8754 2.21123,-0.8754 1.34721,0 2.09755,0.7674 0.75034,0.76739 0.75034,2.12028 v 0.84129 h -4.09846 q 0.0284,0.73897 0.4377,1.15394 0.40928,0.41496 1.14825,0.41496 0.57413,0 1.08572,-0.11937 0.5116,-0.11938 1.06867,-0.38086 v 1.34152 q -0.45475,0.22738 -0.97203,0.33538 -0.51728,0.11369 -1.26194,0.11369 z"
             style="font-style:normal;font-variant:normal;font-weight:bold;font-stretch:normal;font-size:11.64166641px;font-family:'Open Sans';-inkscape-font-specification:'Open Sans, Bold';font-variant-ligatures:normal;font-variant-caps:normal;font-variant-numeric:normal;font-feature-settings:normal;text-align:start;writing-mode:lr-tb;text-anchor:start;fill:#ffffff;fill-opacity:1;stroke-width:0.07000434"
             id="path5614" />
          <path
             d="m 385.87159,767.29718 h -1.73375 v -3.71192 q 0,-0.68781 -0.24443,-1.02888 -0.24443,-0.34674 -0.77876,-0.34674 -0.7276,0 -1.05161,0.48885 -0.32402,0.48318 -0.32402,1.60869 v 2.99 h -1.73374 v -6.35517 h 1.32447 l 0.23306,0.81287 h 0.0966 q 0.28991,-0.46043 0.79582,-0.69349 0.5116,-0.23875 1.15962,-0.23875 1.10846,0 1.68258,0.60255 0.57413,0.59686 0.57413,1.72806 z"
             style="font-style:normal;font-variant:normal;font-weight:bold;font-stretch:normal;font-size:11.64166641px;font-family:'Open Sans';-inkscape-font-specification:'Open Sans, Bold';font-variant-ligatures:normal;font-variant-caps:normal;font-variant-numeric:normal;font-feature-settings:normal;text-align:start;writing-mode:lr-tb;text-anchor:start;fill:#ffffff;fill-opacity:1;stroke-width:0.07000434"
             id="path5616" />
          <path
             d="m 390.34522,766.02956 q 0.45475,0 1.0914,-0.19896 v 1.29036 q -0.64802,0.28991 -1.59163,0.28991 -1.04025,0 -1.51774,-0.52297 -0.4718,-0.52865 -0.4718,-1.58026 v -3.0639 h -0.82993 v -0.73329 l 0.95498,-0.57981 0.50023,-1.34152 h 1.10846 v 1.35289 h 1.77922 v 1.30173 h -1.77922 v 3.0639 q 0,0.36948 0.20464,0.5457 0.21032,0.17622 0.55139,0.17622 z"
             style="font-style:normal;font-variant:normal;font-weight:bold;font-stretch:normal;font-size:11.64166641px;font-family:'Open Sans';-inkscape-font-specification:'Open Sans, Bold';font-variant-ligatures:normal;font-variant-caps:normal;font-variant-numeric:normal;font-feature-settings:normal;text-align:start;writing-mode:lr-tb;text-anchor:start;fill:#ffffff;fill-opacity:1;stroke-width:0.07000434"
             id="path5618" />
          <path
             d="m 397.14945,765.40996 q 0,0.97771 -0.68213,1.48931 -0.67644,0.5116 -2.02933,0.5116 -0.6935,0 -1.18236,-0.0966 -0.48886,-0.0909 -0.91519,-0.27285 v -1.43247 q 0.48318,0.22738 1.08573,0.38086 0.60823,0.15348 1.06866,0.15348 0.94362,0 0.94362,-0.54571 0,-0.20464 -0.12506,-0.32969 -0.12506,-0.13074 -0.43202,-0.28991 -0.30695,-0.16485 -0.81855,-0.38085 -0.73329,-0.30696 -1.08004,-0.56844 -0.34106,-0.26149 -0.50023,-0.59687 -0.15348,-0.34106 -0.15348,-0.8356 0,-0.84698 0.65371,-1.30742 0.65939,-0.46612 1.86449,-0.46612 1.14825,0 2.23397,0.50023 l -0.52297,1.25057 q -0.47749,-0.20464 -0.89245,-0.33538 -0.41496,-0.13074 -0.84697,-0.13074 -0.7674,0 -0.7674,0.41496 0,0.23306 0.24443,0.40359 0.25011,0.17053 1.08572,0.50591 0.74466,0.30128 1.09141,0.56276 0.34675,0.26148 0.51159,0.60255 0.16485,0.34106 0.16485,0.81287 z"
             style="font-style:normal;font-variant:normal;font-weight:bold;font-stretch:normal;font-size:11.64166641px;font-family:'Open Sans';-inkscape-font-specification:'Open Sans, Bold';font-variant-ligatures:normal;font-variant-caps:normal;font-variant-numeric:normal;font-feature-settings:normal;text-align:start;writing-mode:lr-tb;text-anchor:start;fill:#ffffff;fill-opacity:1;stroke-width:0.07000434"
             id="path5620" />
        </g>
        <path
           style="color:#000000;font-style:normal;font-variant:normal;font-weight:normal;font-stretch:normal;font-size:medium;line-height:1.25;font-family:monospace;-inkscape-font-specification:'monospace, Normal';font-variant-ligatures:normal;font-variant-position:normal;font-variant-caps:normal;font-variant-numeric:normal;font-variant-alternates:normal;font-feature-settings:normal;text-indent:0;text-align:start;text-decoration:none;text-decoration-line:none;text-decoration-style:solid;text-decoration-color:#000000;letter-spacing:0px;word-spacing:0px;text-transform:none;writing-mode:lr-tb;direction:ltr;text-orientation:mixed;dominant-baseline:auto;baseline-shift:baseline;text-anchor:start;white-space:normal;shape-padding:0;clip-rule:nonzero;display:inline;overflow:visible;visibility:visible;opacity:1;isolation:auto;mix-blend-mode:normal;color-interpolation:sRGB;color-interpolation-filters:linearRGB;solid-color:#000000;solid-opacity:1;vector-effect:none;fill:#ffffff;fill-opacity:1;fill-rule:nonzero;stroke:none;stroke-width:1.5;stroke-linecap:butt;stroke-linejoin:miter;stroke-miterlimit:2;stroke-dasharray:none;stroke-dashoffset:0;stroke-opacity:1;paint-order:fill markers stroke;color-rendering:auto;image-rendering:auto;shape-rendering:auto;text-rendering:auto;enable-background:accumulate"
           d="m 312.87109,666.94531 v 0.75 111.31836 H 424.93945 V 666.94531 Z m 1.5,1.5 H 423.43945 V 777.51367 H 314.37109 Z"
           id="rect5595" />
      </g>
    </g>
  </g>
</svg>
