<?xml version="1.0" encoding="UTF-8" standalone="no"?>
<svg
   xmlns:dc="http://purl.org/dc/elements/1.1/"
   xmlns:cc="http://creativecommons.org/ns#"
   xmlns:rdf="http://www.w3.org/1999/02/22-rdf-syntax-ns#"
   xmlns:svg="http://www.w3.org/2000/svg"
   xmlns="http://www.w3.org/2000/svg"
   version="1.1"
   id="svg3476"
   viewBox="0 0 362.73401 511.99998"
   height="144.49777mm"
   width="102.3716mm">
  <defs
     id="defs3478" />
  <metadata
     id="metadata3481">
    <rdf:RDF>
      <cc:Work
         rdf:about="">
        <dc:format>image/svg+xml</dc:format>
        <dc:type
           rdf:resource="http://purl.org/dc/dcmitype/StillImage" />
        <dc:title></dc:title>
      </cc:Work>
    </rdf:RDF>
  </metadata>
  <g
     transform="translate(-193.633,-276.3622)"
     id="layer1">
    <g
       id="g840">
      <path
         style="fill:#ffffff;stroke-width:1.0666666;stroke:none;fill-opacity:1"
         d="M 0 107.32812 L 35.210938 502.26953 L 193.2207 546.13281 L 351.66797 502.20703 L 386.91602 107.32812 L 0 107.32812 z M 71.998047 188.05859 L 193.29102 188.05859 L 193.45898 188.05859 L 314.62891 188.05859 L 305.88281 286.09766 L 304.70117 299.10547 L 293.32031 426.62695 L 292.5918 434.81055 L 193.45898 462.2832 L 193.45898 462.29297 L 193.23438 462.35352 L 94.013672 434.81055 L 87.228516 358.75586 L 109.63867 358.75586 L 135.85156 358.75586 L 139.30078 397.38672 L 193.24609 411.95312 L 193.29102 411.94141 L 193.29102 411.9375 L 247.31445 397.35547 L 252.9375 334.53516 L 193.45898 334.53516 L 193.29102 334.53516 L 85.0625 334.53516 L 80.722656 286.09766 L 193.29102 286.09766 L 193.45898 286.09766 L 257.13672 286.09766 L 261.54492 236.49609 L 193.45898 236.49609 L 193.29102 236.49609 L 76.402344 236.49609 L 71.998047 188.05859 z "
         transform="matrix(0.93750003,0,0,0.93750003,193.633,276.3622)"
         id="polygon2989" />
      <path
         d="m 279,276.3622 h 55 v 23 h -32 v 23 h 32 v 23 h -55 z"
         id="path2999"
         style="stroke:none;fill:#ffffff;fill-opacity:1" />
      <path
         d="m 345,276.3622 h 55 v 20 h -32 v 4 h 32 v 46 h -55 v -21 h 32 v -4 h -32 z"
         id="path3001"
         style="stroke:none;fill:#ffffff;fill-opacity:1" />
      <path
         d="m 411,276.3622 h 55 v 20 h -32 v 4 h 32 v 46 h -55 v -21 h 32 v -4 h -32 z"
         id="path3003"
         style="stroke:none;fill:#ffffff;fill-opacity:1" />
    </g>
  </g>
</svg>
