<?xml version="1.0" encoding="UTF-8" standalone="no"?>
<svg
   xmlns:dc="http://purl.org/dc/elements/1.1/"
   xmlns:cc="http://creativecommons.org/ns#"
   xmlns:rdf="http://www.w3.org/1999/02/22-rdf-syntax-ns#"
   xmlns:svg="http://www.w3.org/2000/svg"
   xmlns="http://www.w3.org/2000/svg"
   id="svg890"
   version="1.1"
   viewBox="0 0 52.023998 44.715"
   height="44.715mm"
   width="52.023998mm">
  <defs
     id="defs884" />
  <metadata
     id="metadata887">
    <rdf:RDF>
      <cc:Work
         rdf:about="">
        <dc:format>image/svg+xml</dc:format>
        <dc:type
           rdf:resource="http://purl.org/dc/dcmitype/StillImage" />
        <dc:title></dc:title>
      </cc:Work>
    </rdf:RDF>
  </metadata>
  <g
     transform="translate(0,-252.285)"
     id="layer1">
    <g
       id="g1568">
      <g
         aria-label="RESTful"
         style="font-style:normal;font-variant:normal;font-weight:normal;font-stretch:normal;font-size:8.65404892px;line-height:1.25;font-family:'Segoe UI';-inkscape-font-specification:'Segoe UI, Normal';font-variant-ligatures:normal;font-variant-caps:normal;font-variant-numeric:normal;font-feature-settings:normal;text-align:start;letter-spacing:0px;word-spacing:0px;writing-mode:lr-tb;text-anchor:start;fill:#ffffff;fill-opacity:1;stroke:none;stroke-width:0.26458332"
         id="text1451">
        <path
           d="m 17.100478,258.78363 h -0.845122 l -1.014147,-1.69869 q -0.139445,-0.23664 -0.270439,-0.40144 -0.130993,-0.16902 -0.270439,-0.27466 -0.135219,-0.10564 -0.295792,-0.15212 -0.156348,-0.0507 -0.354951,-0.0507 h -0.583135 v 2.57762 h -0.709902 v -6.05952 h 1.808561 q 0.397207,0 0.73103,0.10141 0.338049,0.0972 0.583135,0.30002 0.249311,0.20283 0.388756,0.50707 0.139445,0.30002 0.139445,0.70568 0,0.31692 -0.09719,0.58313 -0.09296,0.26199 -0.270439,0.46905 -0.17325,0.20705 -0.422561,0.35495 -0.245086,0.14367 -0.553555,0.22395 v 0.0169 q 0.152122,0.0676 0.261988,0.15634 0.114091,0.0845 0.215506,0.20283 0.101414,0.11832 0.198603,0.27044 0.101415,0.1479 0.223958,0.3465 z m -3.634025,-5.41723 v 2.19732 h 0.963439 q 0.266214,0 0.490171,-0.0803 0.228183,-0.0803 0.392982,-0.22818 0.164799,-0.15213 0.257762,-0.36763 0.09296,-0.21973 0.09296,-0.49017 0,-0.48595 -0.31692,-0.75639 -0.312695,-0.27466 -0.908506,-0.27466 z"
           style="font-style:normal;font-variant:normal;font-weight:normal;font-stretch:normal;font-size:8.65404892px;font-family:'Segoe UI';-inkscape-font-specification:'Segoe UI, Normal';font-variant-ligatures:normal;font-variant-caps:normal;font-variant-numeric:normal;font-feature-settings:normal;text-align:start;writing-mode:lr-tb;text-anchor:start;fill:#ffffff;fill-opacity:1;stroke-width:0.26458332"
           id="path1534" />
        <path
           d="m 21.140161,258.78363 h -3.211464 v -6.05952 h 3.076244 v 0.64229 H 18.6386 v 2.01561 h 2.188866 v 0.63807 H 18.6386 v 2.12126 h 2.501561 z"
           style="font-style:normal;font-variant:normal;font-weight:normal;font-stretch:normal;font-size:8.65404892px;font-family:'Segoe UI';-inkscape-font-specification:'Segoe UI, Normal';font-variant-ligatures:normal;font-variant-caps:normal;font-variant-numeric:normal;font-feature-settings:normal;text-align:start;writing-mode:lr-tb;text-anchor:start;fill:#ffffff;fill-opacity:1;stroke-width:0.26458332"
           id="path1536" />
        <path
           d="m 22.023313,258.53855 v -0.83668 q 0.143671,0.12677 0.342275,0.22819 0.202829,0.10141 0.422561,0.17325 0.223957,0.0676 0.447914,0.10564 0.223958,0.038 0.41411,0.038 0.654969,0 0.976116,-0.24086 0.325372,-0.24509 0.325372,-0.70145 0,-0.24509 -0.109866,-0.42679 -0.10564,-0.1817 -0.295793,-0.3296 -0.190152,-0.15212 -0.45214,-0.28734 -0.257762,-0.13944 -0.557781,-0.29157 -0.31692,-0.16057 -0.591585,-0.32537 -0.274665,-0.1648 -0.477494,-0.3634 -0.202829,-0.1986 -0.321146,-0.44791 -0.114092,-0.25354 -0.114092,-0.59159 0,-0.41411 0.181702,-0.71835 0.181701,-0.30847 0.477494,-0.50708 0.295792,-0.1986 0.671871,-0.29579 0.380305,-0.0972 0.773287,-0.0972 0.895829,0 1.305714,0.21551 v 0.79864 q -0.536653,-0.37186 -1.377549,-0.37186 -0.232409,0 -0.464817,0.0507 -0.232409,0.0465 -0.41411,0.15635 -0.181701,0.10986 -0.295793,0.28311 -0.114091,0.17325 -0.114091,0.42257 0,0.2324 0.08451,0.40143 0.08874,0.16902 0.257762,0.30847 0.169025,0.13944 0.409884,0.27044 0.245086,0.13099 0.562006,0.28734 0.325372,0.16057 0.616939,0.33805 0.291567,0.17747 0.511299,0.39298 0.219732,0.21551 0.3465,0.47749 0.130994,0.26199 0.130994,0.60004 0,0.44791 -0.177475,0.76061 -0.173251,0.30847 -0.473269,0.50285 -0.295792,0.19438 -0.684549,0.27889 -0.388756,0.0887 -0.819768,0.0887 -0.143671,0 -0.354951,-0.0254 -0.211281,-0.0211 -0.431012,-0.0676 -0.219732,-0.0423 -0.418336,-0.10564 -0.194378,-0.0676 -0.312695,-0.14789 z"
           style="font-style:normal;font-variant:normal;font-weight:normal;font-stretch:normal;font-size:8.65404892px;font-family:'Segoe UI';-inkscape-font-specification:'Segoe UI, Normal';font-variant-ligatures:normal;font-variant-caps:normal;font-variant-numeric:normal;font-feature-settings:normal;text-align:start;writing-mode:lr-tb;text-anchor:start;fill:#ffffff;fill-opacity:1;stroke-width:0.26458332"
           id="path1538" />
        <path
           d="m 30.48721,253.3664 h -1.749403 v 5.41723 h -0.709902 v -5.41723 h -1.745177 v -0.64229 h 4.204482 z"
           style="font-style:normal;font-variant:normal;font-weight:normal;font-stretch:normal;font-size:8.65404892px;font-family:'Segoe UI';-inkscape-font-specification:'Segoe UI, Normal';font-variant-ligatures:normal;font-variant-caps:normal;font-variant-numeric:normal;font-feature-settings:normal;text-align:start;writing-mode:lr-tb;text-anchor:start;fill:#ffffff;fill-opacity:1;stroke-width:0.26458332"
           id="path1540" />
        <path
           d="m 33.073284,252.98609 q -0.202829,-0.11409 -0.460592,-0.11409 -0.726805,0 -0.726805,0.91696 v 0.66765 h 1.014147 v 0.59158 h -1.014147 v 3.73544 h -0.688774 v -3.73544 h -0.739482 v -0.59158 h 0.739482 v -0.70146 q 0,-0.68032 0.392982,-1.0733 0.392982,-0.39721 0.980341,-0.39721 0.316921,0 0.502848,0.0761 z"
           style="font-style:normal;font-variant:normal;font-weight:normal;font-stretch:normal;font-size:8.65404892px;font-family:'Segoe UI';-inkscape-font-specification:'Segoe UI, Normal';font-variant-ligatures:normal;font-variant-caps:normal;font-variant-numeric:normal;font-feature-settings:normal;text-align:start;writing-mode:lr-tb;text-anchor:start;fill:#ffffff;fill-opacity:1;stroke-width:0.26458332"
           id="path1542" />
        <path
           d="m 37.13832,258.78363 h -0.693 v -0.68455 h -0.0169 q -0.431012,0.78597 -1.335292,0.78597 -1.546574,0 -1.546574,-1.84237 v -2.58607 h 0.688775 v 2.4762 q 0,1.3691 1.047951,1.3691 0.507073,0 0.832445,-0.37185 0.329598,-0.37608 0.329598,-0.98034 v -2.49311 h 0.693 z"
           style="font-style:normal;font-variant:normal;font-weight:normal;font-stretch:normal;font-size:8.65404892px;font-family:'Segoe UI';-inkscape-font-specification:'Segoe UI, Normal';font-variant-ligatures:normal;font-variant-caps:normal;font-variant-numeric:normal;font-feature-settings:normal;text-align:start;writing-mode:lr-tb;text-anchor:start;fill:#ffffff;fill-opacity:1;stroke-width:0.26458332"
           id="path1544" />
        <path
           d="m 39.234222,258.78363 h -0.693 v -6.40602 h 0.693 z"
           style="font-style:normal;font-variant:normal;font-weight:normal;font-stretch:normal;font-size:8.65404892px;font-family:'Segoe UI';-inkscape-font-specification:'Segoe UI, Normal';font-variant-ligatures:normal;font-variant-caps:normal;font-variant-numeric:normal;font-feature-settings:normal;text-align:start;writing-mode:lr-tb;text-anchor:start;fill:#ffffff;fill-opacity:1;stroke-width:0.26458332"
           id="path1546" />
      </g>
      <g
         aria-label="API"
         style="font-style:normal;font-variant:normal;font-weight:normal;font-stretch:normal;font-size:8.65404892px;line-height:1.25;font-family:'Segoe UI';-inkscape-font-specification:'Segoe UI, Normal';font-variant-ligatures:normal;font-variant-caps:normal;font-variant-numeric:normal;font-feature-settings:normal;text-align:start;letter-spacing:0px;word-spacing:0px;writing-mode:lr-tb;text-anchor:start;fill:#ffffff;fill-opacity:1;stroke:none;stroke-width:0.26458332"
         id="text1451-6">
        <path
           d="m 25.370881,297 h -0.785963 l -0.642293,-1.6987 H 21.373454 L 20.769192,297 h -0.790189 l 2.324086,-6.05952 h 0.735256 z m -1.660664,-2.33676 -0.950763,-2.58185 q -0.04648,-0.12677 -0.09296,-0.40566 h -0.0169 q -0.04226,0.25776 -0.09719,0.40566 l -0.942311,2.58185 z"
           style="font-style:normal;font-variant:normal;font-weight:normal;font-stretch:normal;font-size:8.65404892px;font-family:'Segoe UI';-inkscape-font-specification:'Segoe UI, Normal';font-variant-ligatures:normal;font-variant-caps:normal;font-variant-numeric:normal;font-feature-settings:normal;text-align:start;writing-mode:lr-tb;text-anchor:start;fill:#ffffff;fill-opacity:1;stroke-width:0.26458332"
           id="path1520" />
        <path
           d="M 26.968162,294.70972 V 297 h -0.709903 v -6.05952 h 1.664891 q 0.97189,0 1.504317,0.47326 0.536652,0.47327 0.536652,1.3353 0,0.86202 -0.595811,1.41135 -0.591585,0.54933 -1.601506,0.54933 z m 0,-3.12695 v 2.48466 h 0.743707 q 0.735256,0 1.119787,-0.33383 0.388756,-0.33805 0.388756,-0.95076 0,-1.20007 -1.419805,-1.20007 z"
           style="font-style:normal;font-variant:normal;font-weight:normal;font-stretch:normal;font-size:8.65404892px;font-family:'Segoe UI';-inkscape-font-specification:'Segoe UI, Normal';font-variant-ligatures:normal;font-variant-caps:normal;font-variant-numeric:normal;font-feature-settings:normal;text-align:start;writing-mode:lr-tb;text-anchor:start;fill:#ffffff;fill-opacity:1;stroke-width:0.26458332"
           id="path1522" />
        <path
           d="M 31.819162,297 H 31.10926 v -6.05952 h 0.709902 z"
           style="font-style:normal;font-variant:normal;font-weight:normal;font-stretch:normal;font-size:8.65404892px;font-family:'Segoe UI';-inkscape-font-specification:'Segoe UI, Normal';font-variant-ligatures:normal;font-variant-caps:normal;font-variant-numeric:normal;font-feature-settings:normal;text-align:start;writing-mode:lr-tb;text-anchor:start;fill:#ffffff;fill-opacity:1;stroke-width:0.26458332"
           id="path1524" />
      </g>
      <g
         aria-label="{  }"
         style="font-style:normal;font-variant:normal;font-weight:300;font-stretch:normal;font-size:51.00281525px;line-height:1.25;font-family:'Segoe UI';-inkscape-font-specification:'Segoe UI, Light';font-variant-ligatures:normal;font-variant-caps:normal;font-variant-numeric:normal;font-feature-settings:normal;text-align:start;letter-spacing:0px;word-spacing:0px;writing-mode:lr-tb;text-anchor:start;fill:#ffffff;fill-opacity:1;stroke:none;stroke-width:0.26458329"
         id="text1477">
        <path
           d="m 10.260332,296.66793 q -3.1627723,-0.12452 -4.781514,-1.79307 -1.5938379,-1.66855 -1.5938379,-5.45391 v -7.39641 q 0,-5.90218 -3.8849801,-6.47496 v -1.59384 q 3.8849801,-0.54788 3.8849801,-6.05161 v -7.81976 q 0,-3.78537 1.5938379,-5.45392 1.6187417,-1.66855 4.781514,-1.79307 v 2.09192 q -2.1915273,0.12452 -3.0880611,1.41951 -0.8965339,1.29499 -0.8965339,4.45776 v 7.29679 q 0,5.52863 -3.6110391,6.62439 v 0.0996 q 3.6110391,1.14557 3.6110391,6.99794 v 6.87343 q 0,3.16277 0.8965339,4.45776 0.8965338,1.295 3.0880611,1.41952 z"
           style="font-style:normal;font-variant:normal;font-weight:300;font-stretch:normal;font-size:51.00281525px;font-family:'Segoe UI';-inkscape-font-specification:'Segoe UI, Light';font-variant-ligatures:normal;font-variant-caps:normal;font-variant-numeric:normal;font-feature-settings:normal;text-align:start;writing-mode:lr-tb;text-anchor:start;fill:#ffffff;fill-opacity:1;stroke-width:0.26458329"
           id="path1515" />
        <path
           d="m 52.023865,275.54958 q -3.860076,0.57278 -3.860076,6.47496 v 7.39641 q 0,3.81027 -1.618742,5.45391 -1.593838,1.66855 -4.75661,1.79307 v -2.09191 q 2.042105,-0.12452 2.988446,-1.3199 0.971245,-1.19538 0.971245,-4.55738 v -6.87343 q 0,-5.85237 3.635943,-6.99794 v -0.0996 q -3.635943,-1.12066 -3.635943,-6.62439 v -7.29679 q 0,-3.362 -0.971245,-4.55738 -0.946341,-1.19537 -2.988446,-1.31989 v -2.09192 q 3.162772,0.12452 4.75661,1.79307 1.618742,1.64365 1.618742,5.45392 v 7.81976 q 0,5.50373 3.860076,6.05161 z"
           style="font-style:normal;font-variant:normal;font-weight:300;font-stretch:normal;font-size:51.00281525px;font-family:'Segoe UI';-inkscape-font-specification:'Segoe UI, Light';font-variant-ligatures:normal;font-variant-caps:normal;font-variant-numeric:normal;font-feature-settings:normal;text-align:start;writing-mode:lr-tb;text-anchor:start;fill:#ffffff;fill-opacity:1;stroke-width:0.26458329"
           id="path1517" />
      </g>
      <g
         aria-label="..."
         style="font-style:normal;font-variant:normal;font-weight:normal;font-stretch:normal;font-size:45.54887772px;line-height:1.25;font-family:'Segoe UI';-inkscape-font-specification:'Segoe UI, Normal';font-variant-ligatures:normal;font-variant-caps:normal;font-variant-numeric:normal;font-feature-settings:normal;text-align:start;letter-spacing:0px;word-spacing:0px;writing-mode:lr-tb;text-anchor:start;fill:#ffffff;fill-opacity:1;stroke:none;stroke-width:0.26458332"
         id="text1451-6-7">
        <path
           d="m 16.028913,277.13816 q -1.02307,0 -1.757012,-0.73394 -0.711701,-0.73394 -0.711701,-1.75701 0,-1.02308 0.711701,-1.75702 0.733942,-0.75618 1.757012,-0.75618 1.045311,0 1.779253,0.75618 0.733942,0.73394 0.733942,1.75702 0,1.02307 -0.733942,1.75701 -0.733942,0.73394 -1.779253,0.73394 z"
           style="font-style:normal;font-variant:normal;font-weight:normal;font-stretch:normal;font-size:45.54887772px;font-family:'Segoe UI';-inkscape-font-specification:'Segoe UI, Normal';font-variant-ligatures:normal;font-variant-caps:normal;font-variant-numeric:normal;font-feature-settings:normal;text-align:start;writing-mode:lr-tb;text-anchor:start;fill:#ffffff;fill-opacity:1;stroke-width:0.26458332"
           id="path1527" />
        <path
           d="m 25.903767,277.13816 q -1.02307,0 -1.757012,-0.73394 -0.711701,-0.73394 -0.711701,-1.75701 0,-1.02308 0.711701,-1.75702 0.733942,-0.75618 1.757012,-0.75618 1.045311,0 1.779253,0.75618 0.733942,0.73394 0.733942,1.75702 0,1.02307 -0.733942,1.75701 -0.733942,0.73394 -1.779253,0.73394 z"
           style="font-style:normal;font-variant:normal;font-weight:normal;font-stretch:normal;font-size:45.54887772px;font-family:'Segoe UI';-inkscape-font-specification:'Segoe UI, Normal';font-variant-ligatures:normal;font-variant-caps:normal;font-variant-numeric:normal;font-feature-settings:normal;text-align:start;writing-mode:lr-tb;text-anchor:start;fill:#ffffff;fill-opacity:1;stroke-width:0.26458332"
           id="path1529" />
        <path
           d="m 35.778621,277.13816 q -1.02307,0 -1.757012,-0.73394 -0.711701,-0.73394 -0.711701,-1.75701 0,-1.02308 0.711701,-1.75702 0.733942,-0.75618 1.757012,-0.75618 1.045312,0 1.779253,0.75618 0.733942,0.73394 0.733942,1.75702 0,1.02307 -0.733942,1.75701 -0.733941,0.73394 -1.779253,0.73394 z"
           style="font-style:normal;font-variant:normal;font-weight:normal;font-stretch:normal;font-size:45.54887772px;font-family:'Segoe UI';-inkscape-font-specification:'Segoe UI, Normal';font-variant-ligatures:normal;font-variant-caps:normal;font-variant-numeric:normal;font-feature-settings:normal;text-align:start;writing-mode:lr-tb;text-anchor:start;fill:#ffffff;fill-opacity:1;stroke-width:0.26458332"
           id="path1531" />
      </g>
    </g>
  </g>
</svg>
